SplineFontDB: 3.2
FontName: Ddystopian
FullName: Ddystopian
FamilyName: Ddystopian
Weight: Regular
Copyright: Copyright (c) 2023, Unknown
UComments: "2023-3-4: Created with FontForge (http://fontforge.org)"
Version: 001.000
ItalicAngle: 0
UnderlinePosition: -99.6094
UnderlineWidth: 49.8047
Ascent: 800
Descent: 200
InvalidEm: 0
LayerCount: 2
Layer: 0 0 "Back" 1
Layer: 1 0 "Fore" 0
XUID: [1021 49 -801721816 11776728]
StyleMap: 0x0000
FSType: 0
OS2Version: 0
OS2_WeightWidthSlopeOnly: 0
OS2_UseTypoMetrics: 1
CreationTime: 1677943094
ModificationTime: 1720214376
OS2TypoAscent: 0
OS2TypoAOffset: 1
OS2TypoDescent: 0
OS2TypoDOffset: 1
OS2TypoLinegap: 90
OS2WinAscent: 0
OS2WinAOffset: 1
OS2WinDescent: 0
OS2WinDOffset: 1
HheadAscent: 0
HheadAOffset: 1
HheadDescent: 0
HheadDOffset: 1
OS2Vendor: 'PfEd'
MarkAttachClasses: 1
DEI: 91125
LangName: 1033
Encoding: UnicodeFull
UnicodeInterp: none
NameList: AGL For New Fonts
DisplaySize: -48
AntiAlias: 1
FitToEm: 0
WinInfo: 58026 38 14
BeginPrivate: 0
EndPrivate
BeginChars: 1114118 51

StartChar: uniE000
Encoding: 57344 57344 0
Width: 1000
Flags: HW
HStem: 329.538 75.9349<129.127 224.554> 390 18<722 771> 458 18<692 737> 498 27<603 668> 600 27<563 623>
VStem: 563 103<498 524 600 627> 692 79<390 407 458 476>
LayerCount: 2
Fore
SplineSet
942.403320312 225.046875 m 1
 942.403320312 225.0390625 l 1
 963.426757812 201.896484375 972.690429688 187.018554688 972.681640625 121.96875 c 0
 972.681640625 40.353515625 866.364257812 7.673828125 866.364257812 7.673828125 c 2
 847.634765625 -13.0283203125 573.581054688 -7.177734375 524.301757812 -7.177734375 c 0
 475.0234375 -7.177734375 318.293945312 -7.1875 205.916015625 26.392578125 c 0
 93.5361328125 59.9716796875 27.490234375 110.182617188 27.490234375 219.603515625 c 0
 27.490234375 329.0234375 104.374023438 364.510742188 139.861328125 378.3125 c 0
 175.348632812 392.114257812 220.705078125 378.306640625 225.630859375 348.732421875 c 0
 230.559570312 319.158203125 205.912109375 307.328125 194.0859375 306.34375 c 0
 182.2578125 305.357421875 109.315429688 321.123046875 99.451171875 221.567382812 c 0
 89.587890625 122.010742188 211.823242188 109.197265625 211.823242188 109.197265625 c 1
 222.666015625 125.955078125 215.765625 143.697265625 215.765625 183.129882812 c 0
 215.779296875 230.966796875 249.279296875 287.626953125 356.729492188 321.142578125 c 0
 464.181640625 354.658203125 504.59375 308.328125 538.111328125 285.654296875 c 0
 571.629882812 262.982421875 667.25 120.043945312 688.935546875 187.873046875 c 0
 710.622070312 255.705078125 763.853515625 268.896484375 763.853515625 268.896484375 c 2
 794.412109375 309.3125 850.6015625 353.674804688 870.317382812 348.745117188 c 0
 890.034179688 343.814453125 869.330078125 268.896484375 869.330078125 268.896484375 c 1
 885.03125 264.884765625 l 1
 885.03125 264.884765625 961.189453125 337.630859375 965.935546875 312.793945312 c 0
 972.690429688 277.4609375 942.403320312 225.046875 942.403320312 225.046875 c 1
842.34375 277.456054688 m 1
 842.34375 277.456054688 852.252929688 307.182617188 842.34375 307.182617188 c 0
 832.434570312 307.182617188 804.232421875 277.456054688 804.232421875 277.456054688 c 1
 827.098632812 282.791992188 842.34375 277.456054688 842.34375 277.456054688 c 1
924.065429688 239.864257812 m 2
 924.067382812 239.864257812 l 1
 924.067382812 239.864257812 933.431640625 259.456054688 931.908203125 264.793945312 c 0
 930.384765625 270.130859375 907.768554688 251.587890625 907.768554688 251.587890625 c 1
 907.768554688 251.587890625 919.4921875 245.9609375 924.065429688 239.864257812 c 2
EndSplineSet
EndChar

StartChar: uniE001
Encoding: 57345 57345 1
Width: 1000
Flags: HW
HStem: 250 61<23.5469 189.788> 334 61<280.845 384>
VStem: 856 38<451.875 506.544> 893 22<566.422 613.231> 949 31<453.032 509.51>
LayerCount: 2
Fore
SplineSet
942.403320312 225.046875 m 1
 942.403320312 225.0390625 l 1
 963.426757812 201.896484375 972.690429688 187.018554688 972.681640625 121.96875 c 0
 972.681640625 40.353515625 866.364257812 7.673828125 866.364257812 7.673828125 c 2
 847.634765625 -13.0283203125 573.581054688 -7.177734375 524.301757812 -7.177734375 c 0
 475.0234375 -7.177734375 318.293945312 -7.1875 205.916015625 26.392578125 c 0
 93.5361328125 59.9716796875 27.490234375 110.182617188 27.490234375 219.603515625 c 0
 27.490234375 329.0234375 104.374023438 364.510742188 139.861328125 378.3125 c 0
 175.348632812 392.114257812 220.705078125 378.306640625 225.630859375 348.732421875 c 0
 230.559570312 319.158203125 205.912109375 307.328125 194.0859375 306.34375 c 0
 182.2578125 305.357421875 109.315429688 321.123046875 99.451171875 221.567382812 c 0
 89.587890625 122.010742188 211.823242188 109.197265625 211.823242188 109.197265625 c 1
 222.666015625 125.955078125 215.765625 143.697265625 215.765625 183.129882812 c 0
 215.779296875 230.966796875 249.279296875 287.626953125 356.729492188 321.142578125 c 0
 464.181640625 354.658203125 504.59375 308.328125 538.111328125 285.654296875 c 0
 571.629882812 262.982421875 667.25 120.043945312 688.935546875 187.873046875 c 0
 710.622070312 255.705078125 763.853515625 268.896484375 763.853515625 268.896484375 c 2
 794.412109375 309.3125 850.6015625 353.674804688 870.317382812 348.745117188 c 0
 890.034179688 343.814453125 869.330078125 268.896484375 869.330078125 268.896484375 c 1
 885.03125 264.884765625 l 1
 885.03125 264.884765625 961.189453125 337.630859375 965.935546875 312.793945312 c 0
 972.690429688 277.4609375 942.403320312 225.046875 942.403320312 225.046875 c 1
842.34375 277.456054688 m 1
 842.34375 277.456054688 852.252929688 307.182617188 842.34375 307.182617188 c 0
 832.434570312 307.182617188 804.232421875 277.456054688 804.232421875 277.456054688 c 1
 827.098632812 282.791992188 842.34375 277.456054688 842.34375 277.456054688 c 1
924.065429688 239.864257812 m 2
 924.067382812 239.864257812 l 1
 924.067382812 239.864257812 933.431640625 259.456054688 931.908203125 264.793945312 c 0
 930.384765625 270.130859375 907.768554688 251.587890625 907.768554688 251.587890625 c 1
 907.768554688 251.587890625 919.4921875 245.9609375 924.065429688 239.864257812 c 2
617.095703125 371.498046875 m 1
 652.817382812 424.823242188 l 1
 616.662109375 424.823242188 l 1
 616.662109375 442.1328125 l 1
 676.962890625 442.1328125 l 1
 676.962890625 429.529296875 l 1
 641.240234375 376.205078125 l 1
 677.395507812 376.205078125 l 1
 677.395507812 358.895507812 l 1
 617.095703125 358.895507812 l 1
 617.095703125 371.498046875 l 1
698.564453125 371.684570312 m 1
 725.560546875 406.357421875 l 1
 699.575195312 406.357421875 l 1
 699.575195312 423.666992188 l 1
 750.353515625 423.666992188 l 1
 750.353515625 410.615234375 l 1
 724.111328125 376.205078125 l 1
 751.364257812 376.205078125 l 1
 751.364257812 358.895507812 l 1
 698.564453125 358.895507812 l 1
 698.564453125 371.684570312 l 1
EndSplineSet
EndChar

StartChar: uniE002
Encoding: 57346 57346 2
Width: 1000
Flags: HW
VStem: 848 33<396.261 450.307>
LayerCount: 2
Fore
SplineSet
942.403320312 225.046875 m 1
 942.403320312 225.0390625 l 1
 963.426757812 201.896484375 972.690429688 187.018554688 972.681640625 121.96875 c 0
 972.681640625 40.353515625 866.364257812 7.673828125 866.364257812 7.673828125 c 2
 847.634765625 -13.0283203125 573.581054688 -7.177734375 524.301757812 -7.177734375 c 0
 475.0234375 -7.177734375 318.293945312 -7.1875 205.916015625 26.392578125 c 0
 93.5361328125 59.9716796875 27.490234375 110.182617188 27.490234375 219.603515625 c 0
 27.490234375 329.0234375 104.374023438 364.510742188 139.861328125 378.3125 c 0
 175.348632812 392.114257812 220.705078125 378.306640625 225.630859375 348.732421875 c 0
 230.559570312 319.158203125 205.912109375 307.328125 194.0859375 306.34375 c 0
 182.2578125 305.357421875 109.315429688 321.123046875 99.451171875 221.567382812 c 0
 89.587890625 122.010742188 211.823242188 109.197265625 211.823242188 109.197265625 c 1
 222.666015625 125.955078125 215.765625 143.697265625 215.765625 183.129882812 c 0
 215.779296875 230.966796875 249.279296875 287.626953125 356.729492188 321.142578125 c 0
 464.181640625 354.658203125 504.59375 308.328125 538.111328125 285.654296875 c 0
 571.629882812 262.982421875 667.25 120.043945312 688.935546875 187.873046875 c 0
 710.622070312 255.705078125 763.853515625 268.896484375 763.853515625 268.896484375 c 2
 794.412109375 309.3125 850.6015625 353.674804688 870.317382812 348.745117188 c 0
 890.034179688 343.814453125 869.330078125 268.896484375 869.330078125 268.896484375 c 1
 885.03125 264.884765625 l 1
 885.03125 264.884765625 961.189453125 337.630859375 965.935546875 312.793945312 c 0
 972.690429688 277.4609375 942.403320312 225.046875 942.403320312 225.046875 c 1
842.34375 277.456054688 m 1
 842.34375 277.456054688 852.252929688 307.182617188 842.34375 307.182617188 c 0
 832.434570312 307.182617188 804.232421875 277.456054688 804.232421875 277.456054688 c 1
 827.098632812 282.791992188 842.34375 277.456054688 842.34375 277.456054688 c 1
924.065429688 239.864257812 m 2
 924.067382812 239.864257812 l 1
 924.067382812 239.864257812 933.431640625 259.456054688 931.908203125 264.793945312 c 0
 930.384765625 270.130859375 907.768554688 251.587890625 907.768554688 251.587890625 c 1
 907.768554688 251.587890625 919.4921875 245.9609375 924.065429688 239.864257812 c 2
586.044921875 399.823242188 m 1
 622.9921875 454.9765625 l 1
 585.598632812 454.9765625 l 1
 585.598632812 472.529296875 l 1
 647.465820312 472.529296875 l 1
 647.465820312 459.7265625 l 1
 610.518554688 404.573242188 l 1
 647.912109375 404.573242188 l 1
 647.912109375 387.018554688 l 1
 586.044921875 387.018554688 l 1
 586.044921875 399.823242188 l 1
670.020507812 400.0078125 m 1
 697.998046875 435.942382812 l 1
 671.0625 435.942382812 l 1
 671.0625 453.497070312 l 1
 723.114257812 453.497070312 l 1
 723.114257812 440.236328125 l 1
 695.918945312 404.573242188 l 1
 724.15625 404.573242188 l 1
 724.15625 387.018554688 l 1
 670.020507812 387.018554688 l 1
 670.020507812 400.0078125 l 1
EndSplineSet
EndChar

StartChar: uniE003
Encoding: 57347 57347 3
Width: 1000
Flags: HW
VStem: 884 29<340.557 387.895>
LayerCount: 2
Fore
SplineSet
942.403320312 225.046875 m 1
 942.403320312 225.0390625 l 1
 963.426757812 201.896484375 972.690429688 187.018554688 972.681640625 121.96875 c 0
 972.681640625 40.353515625 866.364257812 7.673828125 866.364257812 7.673828125 c 2
 847.634765625 -13.0283203125 573.581054688 -7.177734375 524.301757812 -7.177734375 c 0
 475.0234375 -7.177734375 318.293945312 -7.1875 205.916015625 26.392578125 c 0
 93.5361328125 59.9716796875 27.490234375 110.182617188 27.490234375 219.603515625 c 0
 27.490234375 329.0234375 104.374023438 364.510742188 139.861328125 378.3125 c 0
 175.348632812 392.114257812 220.705078125 378.306640625 225.630859375 348.732421875 c 0
 230.559570312 319.158203125 205.912109375 307.328125 194.0859375 306.34375 c 0
 182.2578125 305.357421875 109.315429688 321.123046875 99.451171875 221.567382812 c 0
 89.587890625 122.010742188 211.823242188 109.197265625 211.823242188 109.197265625 c 1
 222.666015625 125.955078125 215.765625 143.697265625 215.765625 183.129882812 c 0
 215.779296875 230.966796875 249.279296875 287.626953125 356.729492188 321.142578125 c 0
 464.181640625 354.658203125 504.59375 308.328125 538.111328125 285.654296875 c 0
 571.629882812 262.982421875 667.25 120.043945312 688.935546875 187.873046875 c 0
 710.622070312 255.705078125 763.853515625 268.896484375 763.853515625 268.896484375 c 2
 794.412109375 309.3125 850.6015625 353.674804688 870.317382812 348.745117188 c 0
 890.034179688 343.814453125 869.330078125 268.896484375 869.330078125 268.896484375 c 1
 885.03125 264.884765625 l 1
 885.03125 264.884765625 961.189453125 337.630859375 965.935546875 312.793945312 c 0
 972.690429688 277.4609375 942.403320312 225.046875 942.403320312 225.046875 c 1
842.34375 277.456054688 m 1
 842.34375 277.456054688 852.252929688 307.182617188 842.34375 307.182617188 c 0
 832.434570312 307.182617188 804.232421875 277.456054688 804.232421875 277.456054688 c 1
 827.098632812 282.791992188 842.34375 277.456054688 842.34375 277.456054688 c 1
924.065429688 239.864257812 m 2
 924.067382812 239.864257812 l 1
 924.067382812 239.864257812 933.431640625 259.456054688 931.908203125 264.793945312 c 0
 930.384765625 270.130859375 907.768554688 251.587890625 907.768554688 251.587890625 c 1
 907.768554688 251.587890625 919.4921875 245.9609375 924.065429688 239.864257812 c 2
570.520507812 413.986328125 m 1
 608.080078125 470.052734375 l 1
 570.067382812 470.052734375 l 1
 570.067382812 487.729492188 l 1
 632.716796875 487.729492188 l 1
 632.716796875 474.825195312 l 1
 595.158203125 418.7578125 l 1
 633.169921875 418.7578125 l 1
 633.169921875 401.081054688 l 1
 570.520507812 401.081054688 l 1
 570.520507812 413.986328125 l 1
655.748046875 414.169921875 m 1
 684.216796875 450.736328125 l 1
 656.8046875 450.736328125 l 1
 656.8046875 468.411132812 l 1
 709.495117188 468.411132812 l 1
 709.495117188 455.046875 l 1
 681.822265625 418.7578125 l 1
 710.551757812 418.7578125 l 1
 710.551757812 401.081054688 l 1
 655.748046875 401.081054688 l 1
 655.748046875 414.169921875 l 1
EndSplineSet
EndChar

StartChar: uniE004
Encoding: 57348 57348 4
Width: 1000
Flags: HW
HStem: 520 53<140.688 316.533>
VStem: 384 64<84.5049 193.275> 874 30<317.812 352.641>
LayerCount: 2
Fore
SplineSet
942.403320312 225.046875 m 1
 942.403320312 225.0390625 l 1
 963.426757812 201.896484375 972.690429688 187.018554688 972.681640625 121.96875 c 0
 972.681640625 40.353515625 866.364257812 7.673828125 866.364257812 7.673828125 c 2
 847.634765625 -13.0283203125 573.581054688 -7.177734375 524.301757812 -7.177734375 c 0
 475.0234375 -7.177734375 318.293945312 -7.1875 205.916015625 26.392578125 c 0
 93.5361328125 59.9716796875 27.490234375 110.182617188 27.490234375 219.603515625 c 0
 27.490234375 329.0234375 104.374023438 364.510742188 139.861328125 378.3125 c 0
 175.348632812 392.114257812 220.705078125 378.306640625 225.630859375 348.732421875 c 0
 230.559570312 319.158203125 205.912109375 307.328125 194.0859375 306.34375 c 0
 182.2578125 305.357421875 109.315429688 321.123046875 99.451171875 221.567382812 c 0
 89.587890625 122.010742188 211.823242188 109.197265625 211.823242188 109.197265625 c 1
 222.666015625 125.955078125 215.765625 143.697265625 215.765625 183.129882812 c 0
 215.779296875 230.966796875 249.279296875 287.626953125 356.729492188 321.142578125 c 0
 464.181640625 354.658203125 504.59375 308.328125 538.111328125 285.654296875 c 0
 571.629882812 262.982421875 667.25 120.043945312 688.935546875 187.873046875 c 0
 710.622070312 255.705078125 763.853515625 268.896484375 763.853515625 268.896484375 c 2
 794.412109375 309.3125 850.6015625 353.674804688 870.317382812 348.745117188 c 0
 890.034179688 343.814453125 869.330078125 268.896484375 869.330078125 268.896484375 c 1
 885.03125 264.884765625 l 1
 885.03125 264.884765625 961.189453125 337.630859375 965.935546875 312.793945312 c 0
 972.690429688 277.4609375 942.403320312 225.046875 942.403320312 225.046875 c 1
842.34375 277.456054688 m 1
 842.34375 277.456054688 852.252929688 307.182617188 842.34375 307.182617188 c 0
 832.434570312 307.182617188 804.232421875 277.456054688 804.232421875 277.456054688 c 1
 827.098632812 282.791992188 842.34375 277.456054688 842.34375 277.456054688 c 1
924.065429688 239.864257812 m 2
 924.067382812 239.864257812 l 1
 924.067382812 239.864257812 933.431640625 259.456054688 931.908203125 264.793945312 c 0
 930.384765625 270.130859375 907.768554688 251.587890625 907.768554688 251.587890625 c 1
 907.768554688 251.587890625 919.4921875 245.9609375 924.065429688 239.864257812 c 2
554.994140625 428.1484375 m 1
 593.166992188 485.129882812 l 1
 554.534179688 485.129882812 l 1
 554.534179688 502.927734375 l 1
 617.96875 502.927734375 l 1
 617.96875 489.924804688 l 1
 579.796875 432.942382812 l 1
 618.427734375 432.942382812 l 1
 618.427734375 415.143554688 l 1
 554.994140625 415.143554688 l 1
 554.994140625 428.1484375 l 1
641.4765625 428.333007812 m 1
 670.435546875 465.528320312 l 1
 642.548828125 465.528320312 l 1
 642.548828125 483.326171875 l 1
 695.876953125 483.326171875 l 1
 695.876953125 469.857421875 l 1
 667.724609375 432.942382812 l 1
 696.948242188 432.942382812 l 1
 696.948242188 415.143554688 l 1
 641.4765625 415.143554688 l 1
 641.4765625 428.333007812 l 1
EndSplineSet
EndChar

StartChar: uniE005
Encoding: 57349 57349 5
Width: 1000
Flags: HW
VStem: 648 62<52.8092 134.354> 787 36<372.627 411.056> 871 23<361.369 407.939>
LayerCount: 2
Fore
SplineSet
942.403320312 225.046875 m 1
 942.403320312 225.0390625 l 1
 963.426757812 201.896484375 972.690429688 187.018554688 972.681640625 121.96875 c 0
 972.681640625 40.353515625 866.364257812 7.673828125 866.364257812 7.673828125 c 2
 847.634765625 -13.0283203125 573.581054688 -7.177734375 524.301757812 -7.177734375 c 0
 475.0234375 -7.177734375 318.293945312 -7.1875 205.916015625 26.392578125 c 0
 93.5361328125 59.9716796875 27.490234375 110.182617188 27.490234375 219.603515625 c 0
 27.490234375 329.0234375 104.374023438 364.510742188 139.861328125 378.3125 c 0
 175.348632812 392.114257812 220.705078125 378.306640625 225.630859375 348.732421875 c 0
 230.559570312 319.158203125 205.912109375 307.328125 194.0859375 306.34375 c 0
 182.2578125 305.357421875 109.315429688 321.123046875 99.451171875 221.567382812 c 0
 89.587890625 122.010742188 211.823242188 109.197265625 211.823242188 109.197265625 c 1
 222.666015625 125.955078125 215.765625 143.697265625 215.765625 183.129882812 c 0
 215.779296875 230.966796875 249.279296875 287.626953125 356.729492188 321.142578125 c 0
 464.181640625 354.658203125 504.59375 308.328125 538.111328125 285.654296875 c 0
 571.629882812 262.982421875 667.25 120.043945312 688.935546875 187.873046875 c 0
 710.622070312 255.705078125 763.853515625 268.896484375 763.853515625 268.896484375 c 2
 794.412109375 309.3125 850.6015625 353.674804688 870.317382812 348.745117188 c 0
 890.034179688 343.814453125 869.330078125 268.896484375 869.330078125 268.896484375 c 1
 885.03125 264.884765625 l 1
 885.03125 264.884765625 961.189453125 337.630859375 965.935546875 312.793945312 c 0
 972.690429688 277.4609375 942.403320312 225.046875 942.403320312 225.046875 c 1
842.34375 277.456054688 m 1
 842.34375 277.456054688 852.252929688 307.182617188 842.34375 307.182617188 c 0
 832.434570312 307.182617188 804.232421875 277.456054688 804.232421875 277.456054688 c 1
 827.098632812 282.791992188 842.34375 277.456054688 842.34375 277.456054688 c 1
924.065429688 239.864257812 m 2
 924.067382812 239.864257812 l 1
 924.067382812 239.864257812 933.431640625 259.456054688 931.908203125 264.793945312 c 0
 930.384765625 270.130859375 907.768554688 251.587890625 907.768554688 251.587890625 c 1
 907.768554688 251.587890625 919.4921875 245.9609375 924.065429688 239.864257812 c 2
539.466796875 442.310546875 m 1
 578.252929688 500.208007812 l 1
 539.001953125 500.208007812 l 1
 539.001953125 518.127929688 l 1
 603.21875 518.127929688 l 1
 603.21875 505.0234375 l 1
 564.434570312 447.126953125 l 1
 603.685546875 447.126953125 l 1
 603.685546875 429.206054688 l 1
 539.466796875 429.206054688 l 1
 539.466796875 442.310546875 l 1
627.203125 442.495117188 m 1
 656.653320312 480.322265625 l 1
 628.291015625 480.322265625 l 1
 628.291015625 498.240234375 l 1
 682.254882812 498.240234375 l 1
 682.254882812 484.668945312 l 1
 653.626953125 447.126953125 l 1
 683.341796875 447.126953125 l 1
 683.341796875 429.206054688 l 1
 627.203125 429.206054688 l 1
 627.203125 442.495117188 l 1
EndSplineSet
EndChar

StartChar: uniE006
Encoding: 57350 57350 6
Width: 1000
Flags: H
LayerCount: 2
Fore
SplineSet
942.403320312 225.046875 m 1
 942.403320312 225.0390625 l 1
 963.426757812 201.896484375 972.690429688 187.018554688 972.681640625 121.96875 c 0
 972.681640625 40.353515625 866.364257812 7.673828125 866.364257812 7.673828125 c 2
 847.634765625 -13.0283203125 573.581054688 -7.177734375 524.301757812 -7.177734375 c 0
 475.0234375 -7.177734375 318.293945312 -7.1875 205.916015625 26.392578125 c 0
 93.5361328125 59.9716796875 27.490234375 110.182617188 27.490234375 219.603515625 c 0
 27.490234375 329.0234375 104.374023438 364.510742188 139.861328125 378.3125 c 0
 175.348632812 392.114257812 220.705078125 378.306640625 225.630859375 348.732421875 c 0
 230.559570312 319.158203125 205.912109375 307.328125 194.0859375 306.34375 c 0
 182.2578125 305.357421875 109.315429688 321.123046875 99.451171875 221.567382812 c 0
 89.587890625 122.010742188 211.823242188 109.197265625 211.823242188 109.197265625 c 1
 222.666015625 125.955078125 215.765625 143.697265625 215.765625 183.129882812 c 0
 215.779296875 230.966796875 249.279296875 287.626953125 356.729492188 321.142578125 c 0
 464.181640625 354.658203125 504.59375 308.328125 538.111328125 285.654296875 c 0
 571.629882812 262.982421875 667.25 120.043945312 688.935546875 187.873046875 c 0
 710.622070312 255.705078125 763.853515625 268.896484375 763.853515625 268.896484375 c 2
 794.412109375 309.3125 850.6015625 353.674804688 870.317382812 348.745117188 c 0
 890.034179688 343.814453125 869.330078125 268.896484375 869.330078125 268.896484375 c 1
 885.03125 264.884765625 l 1
 885.03125 264.884765625 961.189453125 337.630859375 965.935546875 312.793945312 c 0
 972.690429688 277.4609375 942.403320312 225.046875 942.403320312 225.046875 c 1
842.34375 277.456054688 m 1
 842.34375 277.456054688 852.252929688 307.182617188 842.34375 307.182617188 c 0
 832.434570312 307.182617188 804.232421875 277.456054688 804.232421875 277.456054688 c 1
 827.098632812 282.791992188 842.34375 277.456054688 842.34375 277.456054688 c 1
924.065429688 239.864257812 m 2
 924.067382812 239.864257812 l 1
 924.067382812 239.864257812 933.431640625 259.456054688 931.908203125 264.793945312 c 0
 930.384765625 270.130859375 907.768554688 251.587890625 907.768554688 251.587890625 c 1
 907.768554688 251.587890625 919.4921875 245.9609375 924.065429688 239.864257812 c 2
523.947265625 456.473632812 m 1
 563.345703125 515.284179688 l 1
 523.473632812 515.284179688 l 1
 523.473632812 533.326171875 l 1
 588.474609375 533.326171875 l 1
 588.474609375 520.122070312 l 1
 549.078125 461.310546875 l 1
 588.948242188 461.310546875 l 1
 588.948242188 443.268554688 l 1
 523.947265625 443.268554688 l 1
 523.947265625 456.473632812 l 1
612.935546875 456.658203125 m 1
 642.876953125 495.114257812 l 1
 614.0390625 495.114257812 l 1
 614.0390625 513.15625 l 1
 668.640625 513.15625 l 1
 668.640625 499.478515625 l 1
 639.534179688 461.310546875 l 1
 669.744140625 461.310546875 l 1
 669.744140625 443.268554688 l 1
 612.935546875 443.268554688 l 1
 612.935546875 456.658203125 l 1
EndSplineSet
EndChar

StartChar: uniE007
Encoding: 57351 57351 7
Width: 1000
Flags: H
LayerCount: 2
Fore
SplineSet
942.403320312 225.046875 m 1
 942.403320312 225.0390625 l 1
 963.426757812 201.896484375 972.690429688 187.018554688 972.681640625 121.96875 c 0
 972.681640625 40.353515625 866.364257812 7.673828125 866.364257812 7.673828125 c 2
 847.634765625 -13.0283203125 573.581054688 -7.177734375 524.301757812 -7.177734375 c 0
 475.0234375 -7.177734375 318.293945312 -7.1875 205.916015625 26.392578125 c 0
 93.5361328125 59.9716796875 27.490234375 110.182617188 27.490234375 219.603515625 c 0
 27.490234375 329.0234375 104.374023438 364.510742188 139.861328125 378.3125 c 0
 175.348632812 392.114257812 220.705078125 378.306640625 225.630859375 348.732421875 c 0
 230.559570312 319.158203125 205.912109375 307.328125 194.0859375 306.34375 c 0
 182.2578125 305.357421875 109.315429688 321.123046875 99.451171875 221.567382812 c 0
 89.587890625 122.010742188 211.823242188 109.197265625 211.823242188 109.197265625 c 1
 222.666015625 125.955078125 215.765625 143.697265625 215.765625 183.129882812 c 0
 215.779296875 230.966796875 249.279296875 287.626953125 356.729492188 321.142578125 c 0
 464.181640625 354.658203125 504.59375 308.328125 538.111328125 285.654296875 c 0
 571.629882812 262.982421875 667.25 120.043945312 688.935546875 187.873046875 c 0
 710.622070312 255.705078125 763.853515625 268.896484375 763.853515625 268.896484375 c 2
 794.412109375 309.3125 850.6015625 353.674804688 870.317382812 348.745117188 c 0
 890.034179688 343.814453125 869.330078125 268.896484375 869.330078125 268.896484375 c 1
 885.03125 264.884765625 l 1
 885.03125 264.884765625 961.189453125 337.630859375 965.935546875 312.793945312 c 0
 972.690429688 277.4609375 942.403320312 225.046875 942.403320312 225.046875 c 1
842.34375 277.456054688 m 1
 842.34375 277.456054688 852.252929688 307.182617188 842.34375 307.182617188 c 0
 832.434570312 307.182617188 804.232421875 277.456054688 804.232421875 277.456054688 c 1
 827.098632812 282.791992188 842.34375 277.456054688 842.34375 277.456054688 c 1
924.065429688 239.864257812 m 2
 924.067382812 239.864257812 l 1
 924.067382812 239.864257812 933.431640625 259.456054688 931.908203125 264.793945312 c 0
 930.384765625 270.130859375 907.768554688 251.587890625 907.768554688 251.587890625 c 1
 907.768554688 251.587890625 919.4921875 245.9609375 924.065429688 239.864257812 c 2
508.419921875 470.635742188 m 1
 548.4296875 530.361328125 l 1
 507.940429688 530.361328125 l 1
 507.940429688 548.525390625 l 1
 573.724609375 548.525390625 l 1
 573.724609375 535.221679688 l 1
 533.715820312 475.497070312 l 1
 574.205078125 475.497070312 l 1
 574.205078125 457.333007812 l 1
 508.419921875 457.333007812 l 1
 508.419921875 470.635742188 l 1
598.662109375 470.8203125 m 1
 629.09375 509.90625 l 1
 599.78125 509.90625 l 1
 599.78125 528.0703125 l 1
 655.018554688 528.0703125 l 1
 655.018554688 514.2890625 l 1
 625.435546875 475.497070312 l 1
 656.137695312 475.497070312 l 1
 656.137695312 457.333007812 l 1
 598.662109375 457.333007812 l 1
 598.662109375 470.8203125 l 1
EndSplineSet
EndChar

StartChar: uniE008
Encoding: 57352 57352 8
Width: 1000
Flags: H
LayerCount: 2
Fore
SplineSet
942.403320312 225.046875 m 1
 942.403320312 225.0390625 l 1
 963.426757812 201.896484375 972.690429688 187.018554688 972.681640625 121.96875 c 0
 972.681640625 40.353515625 866.364257812 7.673828125 866.364257812 7.673828125 c 2
 847.634765625 -13.0283203125 573.581054688 -7.177734375 524.301757812 -7.177734375 c 0
 475.0234375 -7.177734375 318.293945312 -7.1875 205.916015625 26.392578125 c 0
 93.5361328125 59.9716796875 27.490234375 110.182617188 27.490234375 219.603515625 c 0
 27.490234375 329.0234375 104.374023438 364.510742188 139.861328125 378.3125 c 0
 175.348632812 392.114257812 220.705078125 378.306640625 225.630859375 348.732421875 c 0
 230.559570312 319.158203125 205.912109375 307.328125 194.0859375 306.34375 c 0
 182.2578125 305.357421875 109.315429688 321.123046875 99.451171875 221.567382812 c 0
 89.587890625 122.010742188 211.823242188 109.197265625 211.823242188 109.197265625 c 1
 222.666015625 125.955078125 215.765625 143.697265625 215.765625 183.129882812 c 0
 215.779296875 230.966796875 249.279296875 287.626953125 356.729492188 321.142578125 c 0
 464.181640625 354.658203125 504.59375 308.328125 538.111328125 285.654296875 c 0
 571.629882812 262.982421875 667.25 120.043945312 688.935546875 187.873046875 c 0
 710.622070312 255.705078125 763.853515625 268.896484375 763.853515625 268.896484375 c 2
 794.412109375 309.3125 850.6015625 353.674804688 870.317382812 348.745117188 c 0
 890.034179688 343.814453125 869.330078125 268.896484375 869.330078125 268.896484375 c 1
 885.03125 264.884765625 l 1
 885.03125 264.884765625 961.189453125 337.630859375 965.935546875 312.793945312 c 0
 972.690429688 277.4609375 942.403320312 225.046875 942.403320312 225.046875 c 1
842.34375 277.456054688 m 1
 842.34375 277.456054688 852.252929688 307.182617188 842.34375 307.182617188 c 0
 832.434570312 307.182617188 804.232421875 277.456054688 804.232421875 277.456054688 c 1
 827.098632812 282.791992188 842.34375 277.456054688 842.34375 277.456054688 c 1
924.065429688 239.864257812 m 2
 924.067382812 239.864257812 l 1
 924.067382812 239.864257812 933.431640625 259.456054688 931.908203125 264.793945312 c 0
 930.384765625 270.130859375 907.768554688 251.587890625 907.768554688 251.587890625 c 1
 907.768554688 251.587890625 919.4921875 245.9609375 924.065429688 239.864257812 c 2
492.893554688 484.796875 m 1
 533.515625 545.4375 l 1
 492.408203125 545.4375 l 1
 492.408203125 563.723632812 l 1
 558.974609375 563.723632812 l 1
 558.974609375 550.3203125 l 1
 518.353515625 489.6796875 l 1
 559.4609375 489.6796875 l 1
 559.4609375 471.393554688 l 1
 492.893554688 471.393554688 l 1
 492.893554688 484.796875 l 1
584.388671875 484.982421875 m 1
 615.3125 524.698242188 l 1
 585.5234375 524.698242188 l 1
 585.5234375 542.984375 l 1
 641.3984375 542.984375 l 1
 641.3984375 529.099609375 l 1
 611.337890625 489.6796875 l 1
 642.533203125 489.6796875 l 1
 642.533203125 471.393554688 l 1
 584.388671875 471.393554688 l 1
 584.388671875 484.982421875 l 1
EndSplineSet
EndChar

StartChar: uniE009
Encoding: 57353 57353 9
Width: 1000
Flags: H
LayerCount: 2
Fore
SplineSet
942.403320312 225.046875 m 1
 942.403320312 225.0390625 l 1
 963.426757812 201.896484375 972.690429688 187.018554688 972.681640625 121.96875 c 0
 972.681640625 40.353515625 866.364257812 7.673828125 866.364257812 7.673828125 c 2
 847.634765625 -13.0283203125 573.581054688 -7.177734375 524.301757812 -7.177734375 c 0
 475.0234375 -7.177734375 318.293945312 -7.1875 205.916015625 26.392578125 c 0
 93.5361328125 59.9716796875 27.490234375 110.182617188 27.490234375 219.603515625 c 0
 27.490234375 329.0234375 104.374023438 364.510742188 139.861328125 378.3125 c 0
 175.348632812 392.114257812 220.705078125 378.306640625 225.630859375 348.732421875 c 0
 230.559570312 319.158203125 205.912109375 307.328125 194.0859375 306.34375 c 0
 182.2578125 305.357421875 109.315429688 321.123046875 99.451171875 221.567382812 c 0
 89.587890625 122.010742188 211.823242188 109.197265625 211.823242188 109.197265625 c 1
 222.666015625 125.955078125 215.765625 143.697265625 215.765625 183.129882812 c 0
 215.779296875 230.966796875 249.279296875 287.626953125 356.729492188 321.142578125 c 0
 464.181640625 354.658203125 504.59375 308.328125 538.111328125 285.654296875 c 0
 571.629882812 262.982421875 667.25 120.043945312 688.935546875 187.873046875 c 0
 710.622070312 255.705078125 763.853515625 268.896484375 763.853515625 268.896484375 c 2
 794.412109375 309.3125 850.6015625 353.674804688 870.317382812 348.745117188 c 0
 890.034179688 343.814453125 869.330078125 268.896484375 869.330078125 268.896484375 c 1
 885.03125 264.884765625 l 1
 885.03125 264.884765625 961.189453125 337.630859375 965.935546875 312.793945312 c 0
 972.690429688 277.4609375 942.403320312 225.046875 942.403320312 225.046875 c 1
842.34375 277.456054688 m 1
 842.34375 277.456054688 852.252929688 307.182617188 842.34375 307.182617188 c 0
 832.434570312 307.182617188 804.232421875 277.456054688 804.232421875 277.456054688 c 1
 827.098632812 282.791992188 842.34375 277.456054688 842.34375 277.456054688 c 1
924.065429688 239.864257812 m 2
 924.067382812 239.864257812 l 1
 924.067382812 239.864257812 933.431640625 259.456054688 931.908203125 264.793945312 c 0
 930.384765625 270.130859375 907.768554688 251.587890625 907.768554688 251.587890625 c 1
 907.768554688 251.587890625 919.4921875 245.9609375 924.065429688 239.864257812 c 2
477.3671875 498.9609375 m 1
 518.6015625 560.513671875 l 1
 476.873046875 560.513671875 l 1
 476.873046875 578.923828125 l 1
 544.224609375 578.923828125 l 1
 544.224609375 565.419921875 l 1
 502.990234375 503.865234375 l 1
 544.71875 503.865234375 l 1
 544.71875 485.458007812 l 1
 477.3671875 485.458007812 l 1
 477.3671875 498.9609375 l 1
570.115234375 499.145507812 m 1
 601.529296875 539.4921875 l 1
 571.265625 539.4921875 l 1
 571.265625 557.900390625 l 1
 627.778320312 557.900390625 l 1
 627.778320312 543.909179688 l 1
 597.240234375 503.865234375 l 1
 628.927734375 503.865234375 l 1
 628.927734375 485.458007812 l 1
 570.115234375 485.458007812 l 1
 570.115234375 499.145507812 l 1
EndSplineSet
EndChar

StartChar: uniE00A
Encoding: 57354 57354 10
Width: 1000
Flags: H
LayerCount: 2
Fore
SplineSet
942.403320312 225.046875 m 1
 942.403320312 225.0390625 l 1
 963.426757812 201.896484375 972.690429688 187.018554688 972.681640625 121.96875 c 0
 972.681640625 40.353515625 866.364257812 7.673828125 866.364257812 7.673828125 c 2
 847.634765625 -13.0283203125 573.581054688 -7.177734375 524.301757812 -7.177734375 c 0
 475.0234375 -7.177734375 318.293945312 -7.1875 205.916015625 26.392578125 c 0
 93.5361328125 59.9716796875 27.490234375 110.182617188 27.490234375 219.603515625 c 0
 27.490234375 329.0234375 104.374023438 364.510742188 139.861328125 378.3125 c 0
 175.348632812 392.114257812 220.705078125 378.306640625 225.630859375 348.732421875 c 0
 230.559570312 319.158203125 205.912109375 307.328125 194.0859375 306.34375 c 0
 182.2578125 305.357421875 109.315429688 321.123046875 99.451171875 221.567382812 c 0
 89.587890625 122.010742188 211.823242188 109.197265625 211.823242188 109.197265625 c 1
 222.666015625 125.955078125 215.765625 143.697265625 215.765625 183.129882812 c 0
 215.779296875 230.966796875 249.279296875 287.626953125 356.729492188 321.142578125 c 0
 464.181640625 354.658203125 504.59375 308.328125 538.111328125 285.654296875 c 0
 571.629882812 262.982421875 667.25 120.043945312 688.935546875 187.873046875 c 0
 710.622070312 255.705078125 763.853515625 268.896484375 763.853515625 268.896484375 c 2
 794.412109375 309.3125 850.6015625 353.674804688 870.317382812 348.745117188 c 0
 890.034179688 343.814453125 869.330078125 268.896484375 869.330078125 268.896484375 c 1
 885.03125 264.884765625 l 1
 885.03125 264.884765625 961.189453125 337.630859375 965.935546875 312.793945312 c 0
 972.690429688 277.4609375 942.403320312 225.046875 942.403320312 225.046875 c 1
842.34375 277.456054688 m 1
 842.34375 277.456054688 852.252929688 307.182617188 842.34375 307.182617188 c 0
 832.434570312 307.182617188 804.232421875 277.456054688 804.232421875 277.456054688 c 1
 827.098632812 282.791992188 842.34375 277.456054688 842.34375 277.456054688 c 1
924.065429688 239.864257812 m 2
 924.067382812 239.864257812 l 1
 924.067382812 239.864257812 933.431640625 259.456054688 931.908203125 264.793945312 c 0
 930.384765625 270.130859375 907.768554688 251.587890625 907.768554688 251.587890625 c 1
 907.768554688 251.587890625 919.4921875 245.9609375 924.065429688 239.864257812 c 2
461.845703125 513.122070312 m 1
 503.693359375 575.590820312 l 1
 461.346679688 575.590820312 l 1
 461.346679688 594.122070312 l 1
 529.481445312 594.122070312 l 1
 529.481445312 580.518554688 l 1
 487.6328125 518.049804688 l 1
 529.981445312 518.049804688 l 1
 529.981445312 499.518554688 l 1
 461.845703125 499.518554688 l 1
 461.845703125 513.122070312 l 1
555.848632812 513.307617188 m 1
 587.752929688 554.284179688 l 1
 557.013671875 554.284179688 l 1
 557.013671875 572.814453125 l 1
 614.162109375 572.814453125 l 1
 614.162109375 558.720703125 l 1
 583.1484375 518.049804688 l 1
 615.328125 518.049804688 l 1
 615.328125 499.518554688 l 1
 555.848632812 499.518554688 l 1
 555.848632812 513.307617188 l 1
EndSplineSet
EndChar

StartChar: uniE00B
Encoding: 57355 57355 11
Width: 1000
Flags: H
LayerCount: 2
Fore
SplineSet
942.403320312 225.046875 m 1
 942.403320312 225.0390625 l 1
 963.426757812 201.896484375 972.690429688 187.018554688 972.681640625 121.96875 c 0
 972.681640625 40.353515625 866.364257812 7.673828125 866.364257812 7.673828125 c 2
 847.634765625 -13.0283203125 573.581054688 -7.177734375 524.301757812 -7.177734375 c 0
 475.0234375 -7.177734375 318.293945312 -7.1875 205.916015625 26.392578125 c 0
 93.5361328125 59.9716796875 27.490234375 110.182617188 27.490234375 219.603515625 c 0
 27.490234375 329.0234375 104.374023438 364.510742188 139.861328125 378.3125 c 0
 175.348632812 392.114257812 220.705078125 378.306640625 225.630859375 348.732421875 c 0
 230.559570312 319.158203125 205.912109375 307.328125 194.0859375 306.34375 c 0
 182.2578125 305.357421875 109.315429688 321.123046875 99.451171875 221.567382812 c 0
 89.587890625 122.010742188 211.823242188 109.197265625 211.823242188 109.197265625 c 1
 222.666015625 125.955078125 215.765625 143.697265625 215.765625 183.129882812 c 0
 215.779296875 230.966796875 249.279296875 287.626953125 356.729492188 321.142578125 c 0
 464.181640625 354.658203125 504.59375 308.328125 538.111328125 285.654296875 c 0
 571.629882812 262.982421875 667.25 120.043945312 688.935546875 187.873046875 c 0
 710.622070312 255.705078125 763.853515625 268.896484375 763.853515625 268.896484375 c 2
 794.412109375 309.3125 850.6015625 353.674804688 870.317382812 348.745117188 c 0
 890.034179688 343.814453125 869.330078125 268.896484375 869.330078125 268.896484375 c 1
 885.03125 264.884765625 l 1
 885.03125 264.884765625 961.189453125 337.630859375 965.935546875 312.793945312 c 0
 972.690429688 277.4609375 942.403320312 225.046875 942.403320312 225.046875 c 1
842.34375 277.456054688 m 1
 842.34375 277.456054688 852.252929688 307.182617188 842.34375 307.182617188 c 0
 832.434570312 307.182617188 804.232421875 277.456054688 804.232421875 277.456054688 c 1
 827.098632812 282.791992188 842.34375 277.456054688 842.34375 277.456054688 c 1
924.065429688 239.864257812 m 2
 924.067382812 239.864257812 l 1
 924.067382812 239.864257812 933.431640625 259.456054688 931.908203125 264.793945312 c 0
 930.384765625 270.130859375 907.768554688 251.587890625 907.768554688 251.587890625 c 1
 907.768554688 251.587890625 919.4921875 245.9609375 924.065429688 239.864257812 c 2
461.845703125 513.122070312 m 1
 503.693359375 575.590820312 l 1
 461.346679688 575.590820312 l 1
 461.346679688 594.122070312 l 1
 529.481445312 594.122070312 l 1
 529.481445312 580.518554688 l 1
 487.6328125 518.049804688 l 1
 529.981445312 518.049804688 l 1
 529.981445312 499.518554688 l 1
 461.845703125 499.518554688 l 1
 461.845703125 513.122070312 l 1
555.848632812 513.307617188 m 1
 587.752929688 554.284179688 l 1
 557.013671875 554.284179688 l 1
 557.013671875 572.814453125 l 1
 614.162109375 572.814453125 l 1
 614.162109375 558.720703125 l 1
 583.1484375 518.049804688 l 1
 615.328125 518.049804688 l 1
 615.328125 499.518554688 l 1
 555.848632812 499.518554688 l 1
 555.848632812 513.307617188 l 1
EndSplineSet
EndChar

StartChar: uniE00C
Encoding: 57356 57356 12
Width: 1000
Flags: H
LayerCount: 2
Fore
SplineSet
942.403320312 225.046875 m 1
 942.403320312 225.0390625 l 1
 963.426757812 201.896484375 972.690429688 187.018554688 972.681640625 121.96875 c 0
 972.681640625 40.353515625 866.364257812 7.673828125 866.364257812 7.673828125 c 2
 847.634765625 -13.0283203125 573.581054688 -7.177734375 524.301757812 -7.177734375 c 0
 475.0234375 -7.177734375 318.293945312 -7.1875 205.916015625 26.392578125 c 0
 93.5361328125 59.9716796875 27.490234375 110.182617188 27.490234375 219.603515625 c 0
 27.490234375 329.0234375 104.374023438 364.510742188 139.861328125 378.3125 c 0
 175.348632812 392.114257812 220.705078125 378.306640625 225.630859375 348.732421875 c 0
 230.559570312 319.158203125 205.912109375 307.328125 194.0859375 306.34375 c 0
 182.2578125 305.357421875 109.315429688 321.123046875 99.451171875 221.567382812 c 0
 89.587890625 122.010742188 211.823242188 109.197265625 211.823242188 109.197265625 c 1
 222.666015625 125.955078125 215.765625 143.697265625 215.765625 183.129882812 c 0
 215.779296875 230.966796875 249.279296875 287.626953125 356.729492188 321.142578125 c 0
 464.181640625 354.658203125 504.59375 308.328125 538.111328125 285.654296875 c 0
 571.629882812 262.982421875 667.25 120.043945312 688.935546875 187.873046875 c 0
 710.622070312 255.705078125 763.853515625 268.896484375 763.853515625 268.896484375 c 2
 794.412109375 309.3125 850.6015625 353.674804688 870.317382812 348.745117188 c 0
 890.034179688 343.814453125 869.330078125 268.896484375 869.330078125 268.896484375 c 1
 885.03125 264.884765625 l 1
 885.03125 264.884765625 961.189453125 337.630859375 965.935546875 312.793945312 c 0
 972.690429688 277.4609375 942.403320312 225.046875 942.403320312 225.046875 c 1
842.34375 277.456054688 m 1
 842.34375 277.456054688 852.252929688 307.182617188 842.34375 307.182617188 c 0
 832.434570312 307.182617188 804.232421875 277.456054688 804.232421875 277.456054688 c 1
 827.098632812 282.791992188 842.34375 277.456054688 842.34375 277.456054688 c 1
924.065429688 239.864257812 m 2
 924.067382812 239.864257812 l 1
 924.067382812 239.864257812 933.431640625 259.456054688 931.908203125 264.793945312 c 0
 930.384765625 270.130859375 907.768554688 251.587890625 907.768554688 251.587890625 c 1
 907.768554688 251.587890625 919.4921875 245.9609375 924.065429688 239.864257812 c 2
446.318359375 527.286132812 m 1
 488.779296875 590.668945312 l 1
 445.8125 590.668945312 l 1
 445.8125 609.3203125 l 1
 514.731445312 609.3203125 l 1
 514.731445312 595.6171875 l 1
 472.270507812 532.234375 l 1
 515.237304688 532.234375 l 1
 515.237304688 513.583007812 l 1
 446.318359375 513.583007812 l 1
 446.318359375 527.286132812 l 1
541.575195312 527.470703125 m 1
 573.970703125 569.078125 l 1
 542.755859375 569.078125 l 1
 542.755859375 587.729492188 l 1
 600.541992188 587.729492188 l 1
 600.541992188 573.53125 l 1
 569.049804688 532.234375 l 1
 601.723632812 532.234375 l 1
 601.723632812 513.583007812 l 1
 541.575195312 513.583007812 l 1
 541.575195312 527.470703125 l 1
EndSplineSet
EndChar

StartChar: uniE00D
Encoding: 57357 57357 13
Width: 1000
Flags: H
LayerCount: 2
Fore
SplineSet
942.403320312 225.046875 m 1
 942.403320312 225.0390625 l 1
 963.426757812 201.896484375 972.690429688 187.018554688 972.681640625 121.96875 c 0
 972.681640625 40.353515625 866.364257812 7.673828125 866.364257812 7.673828125 c 2
 847.634765625 -13.0283203125 573.581054688 -7.177734375 524.301757812 -7.177734375 c 0
 475.0234375 -7.177734375 318.293945312 -7.1875 205.916015625 26.392578125 c 0
 93.5361328125 59.9716796875 27.490234375 110.182617188 27.490234375 219.603515625 c 0
 27.490234375 329.0234375 104.374023438 364.510742188 139.861328125 378.3125 c 0
 175.348632812 392.114257812 220.705078125 378.306640625 225.630859375 348.732421875 c 0
 230.559570312 319.158203125 205.912109375 307.328125 194.0859375 306.34375 c 0
 182.2578125 305.357421875 109.315429688 321.123046875 99.451171875 221.567382812 c 0
 89.587890625 122.010742188 211.823242188 109.197265625 211.823242188 109.197265625 c 1
 222.666015625 125.955078125 215.765625 143.697265625 215.765625 183.129882812 c 0
 215.779296875 230.966796875 249.279296875 287.626953125 356.729492188 321.142578125 c 0
 464.181640625 354.658203125 504.59375 308.328125 538.111328125 285.654296875 c 0
 571.629882812 262.982421875 667.25 120.043945312 688.935546875 187.873046875 c 0
 710.622070312 255.705078125 763.853515625 268.896484375 763.853515625 268.896484375 c 2
 794.412109375 309.3125 850.6015625 353.674804688 870.317382812 348.745117188 c 0
 890.034179688 343.814453125 869.330078125 268.896484375 869.330078125 268.896484375 c 1
 885.03125 264.884765625 l 1
 885.03125 264.884765625 961.189453125 337.630859375 965.935546875 312.793945312 c 0
 972.690429688 277.4609375 942.403320312 225.046875 942.403320312 225.046875 c 1
842.34375 277.456054688 m 1
 842.34375 277.456054688 852.252929688 307.182617188 842.34375 307.182617188 c 0
 832.434570312 307.182617188 804.232421875 277.456054688 804.232421875 277.456054688 c 1
 827.098632812 282.791992188 842.34375 277.456054688 842.34375 277.456054688 c 1
924.065429688 239.864257812 m 2
 924.067382812 239.864257812 l 1
 924.067382812 239.864257812 933.431640625 259.456054688 931.908203125 264.793945312 c 0
 930.384765625 270.130859375 907.768554688 251.587890625 907.768554688 251.587890625 c 1
 907.768554688 251.587890625 919.4921875 245.9609375 924.065429688 239.864257812 c 2
430.791992188 541.447265625 m 1
 473.865234375 605.745117188 l 1
 430.279296875 605.745117188 l 1
 430.279296875 624.518554688 l 1
 499.981445312 624.518554688 l 1
 499.981445312 610.716796875 l 1
 456.908203125 546.418945312 l 1
 500.494140625 546.418945312 l 1
 500.494140625 527.643554688 l 1
 430.791992188 527.643554688 l 1
 430.791992188 541.447265625 l 1
527.301757812 541.630859375 m 1
 560.1875 583.870117188 l 1
 528.498046875 583.870117188 l 1
 528.498046875 602.643554688 l 1
 586.921875 602.643554688 l 1
 586.921875 588.340820312 l 1
 554.951171875 546.418945312 l 1
 588.1171875 546.418945312 l 1
 588.1171875 527.643554688 l 1
 527.301757812 527.643554688 l 1
 527.301757812 541.630859375 l 1
EndSplineSet
EndChar

StartChar: uniE00E
Encoding: 57358 57358 14
Width: 1000
Flags: H
LayerCount: 2
Fore
SplineSet
942.403320312 225.046875 m 1
 942.403320312 225.0390625 l 1
 963.426757812 201.896484375 972.690429688 187.018554688 972.681640625 121.96875 c 0
 972.681640625 40.353515625 866.364257812 7.673828125 866.364257812 7.673828125 c 2
 847.634765625 -13.0283203125 573.581054688 -7.177734375 524.301757812 -7.177734375 c 0
 475.0234375 -7.177734375 318.293945312 -7.1875 205.916015625 26.392578125 c 0
 93.5361328125 59.9716796875 27.490234375 110.182617188 27.490234375 219.603515625 c 0
 27.490234375 329.0234375 104.374023438 364.510742188 139.861328125 378.3125 c 0
 175.348632812 392.114257812 220.705078125 378.306640625 225.630859375 348.732421875 c 0
 230.559570312 319.158203125 205.912109375 307.328125 194.0859375 306.34375 c 0
 182.2578125 305.357421875 109.315429688 321.123046875 99.451171875 221.567382812 c 0
 89.587890625 122.010742188 211.823242188 109.197265625 211.823242188 109.197265625 c 1
 222.666015625 125.955078125 215.765625 143.697265625 215.765625 183.129882812 c 0
 215.779296875 230.966796875 249.279296875 287.626953125 356.729492188 321.142578125 c 0
 464.181640625 354.658203125 504.59375 308.328125 538.111328125 285.654296875 c 0
 571.629882812 262.982421875 667.25 120.043945312 688.935546875 187.873046875 c 0
 710.622070312 255.705078125 763.853515625 268.896484375 763.853515625 268.896484375 c 2
 794.412109375 309.3125 850.6015625 353.674804688 870.317382812 348.745117188 c 0
 890.034179688 343.814453125 869.330078125 268.896484375 869.330078125 268.896484375 c 1
 885.03125 264.884765625 l 1
 885.03125 264.884765625 961.189453125 337.630859375 965.935546875 312.793945312 c 0
 972.690429688 277.4609375 942.403320312 225.046875 942.403320312 225.046875 c 1
842.34375 277.456054688 m 1
 842.34375 277.456054688 852.252929688 307.182617188 842.34375 307.182617188 c 0
 832.434570312 307.182617188 804.232421875 277.456054688 804.232421875 277.456054688 c 1
 827.098632812 282.791992188 842.34375 277.456054688 842.34375 277.456054688 c 1
924.065429688 239.864257812 m 2
 924.067382812 239.864257812 l 1
 924.067382812 239.864257812 933.431640625 259.456054688 931.908203125 264.793945312 c 0
 930.384765625 270.130859375 907.768554688 251.587890625 907.768554688 251.587890625 c 1
 907.768554688 251.587890625 919.4921875 245.9609375 924.065429688 239.864257812 c 2
415.271484375 557.171875 m 1
 458.958007812 622.384765625 l 1
 414.751953125 622.384765625 l 1
 414.751953125 641.279296875 l 1
 485.237304688 641.279296875 l 1
 485.237304688 627.377929688 l 1
 441.551757812 562.166015625 l 1
 485.7578125 562.166015625 l 1
 485.7578125 543.268554688 l 1
 415.271484375 543.268554688 l 1
 415.271484375 557.171875 l 1
513.034179688 557.356445312 m 1
 546.411132812 600.224609375 l 1
 514.247070312 600.224609375 l 1
 514.247070312 619.122070312 l 1
 573.306640625 619.122070312 l 1
 573.306640625 604.713867188 l 1
 540.859375 562.166015625 l 1
 574.518554688 562.166015625 l 1
 574.518554688 543.268554688 l 1
 513.034179688 543.268554688 l 1
 513.034179688 557.356445312 l 1
EndSplineSet
EndChar

StartChar: uniE100
Encoding: 57600 57600 15
Width: 1000
Flags: H
LayerCount: 2
Fore
SplineSet
827.9375 500.307617188 m 1
 827.9375 500.307617188 887.861328125 468.1953125 887.861328125 411.107421875 c 0
 887.861328125 354.020507812 832.206054688 323.333984375 801.520507812 313.345703125 c 0
 770.833984375 303.354492188 764.412109375 276.955078125 760.130859375 229.143554688 c 0
 755.849609375 181.331054688 700.904296875 100.697265625 667.365234375 98.556640625 c 0
 633.826171875 96.4140625 636.690429688 134.236328125 644.53125 160.638671875 c 0
 652.370117188 187.041015625 633.814453125 208.4453125 593.865234375 202.025390625 c 0
 553.916992188 195.604492188 532.504882812 167.775390625 544.638671875 138.517578125 c 0
 556.7734375 109.259765625 571.75 60.0205078125 538.215820312 68.583984375 c 0
 504.682617188 77.1484375 464.0078125 116.395507812 461.154296875 121.390625 c 0
 458.301757812 126.385742188 433.325195312 142.799804688 434.752929688 122.818359375 c 0
 436.1796875 102.837890625 478.267578125 51.4580078125 476.853515625 31.478515625 c 0
 475.4375 11.498046875 460.443359375 -5.626953125 419.767578125 27.197265625 c 0
 379.091796875 60.021484375 354.115234375 119.248046875 356.971679688 180.6171875 c 0
 359.826171875 241.986328125 335.564453125 234.326171875 342.698242188 296.671875 c 1
 305.283203125 298.076171875 268.216796875 289.0234375 235.662109375 270.529296875 c 0
 182.856445312 239.846679688 100.793945312 217.005859375 67.2548828125 220.580078125 c 0
 33.716796875 224.151367188 13.025390625 227.720703125 9.4560546875 248.4140625 c 0
 5.88671875 269.107421875 34.427734375 279.810546875 94.37109375 275.529296875 c 0
 154.314453125 271.25 199.984375 318.346679688 237.090820312 332.6171875 c 0
 274.1953125 346.888671875 322.71875 354.739257812 379.806640625 352.596679688 c 1
 379.806640625 352.596679688 439.033203125 405.401367188 501.830078125 397.552734375 c 0
 564.626953125 389.705078125 602.4453125 390.270507812 612.435546875 426.020507812 c 0
 622.424804688 461.770507812 636.698242188 473.184570312 636.698242188 473.184570312 c 1
 636.698242188 473.184570312 675.943359375 573.807617188 708.056640625 580.9453125 c 0
 740.169921875 588.081054688 730.892578125 521.004882812 730.892578125 521.004882812 c 1
 742.309570312 522.432617188 l 1
 742.309570312 522.432617188 781.646484375 594.501953125 806.932617188 590.934570312 c 0
 832.21875 587.3671875 827.912109375 535.009765625 827.9375 500.307617188 c 1
707.520507812 497.455078125 m 0
 711.059570312 510.135742188 712.333984375 523.341796875 711.2890625 536.465820312 c 1
 670.080078125 524.572265625 665.252929688 468.734375 665.252929688 468.734375 c 1
 665.252929688 468.734375 703.416992188 481.755859375 707.520507812 497.455078125 c 0
749.2265625 395.948242188 m 0
 763.2265625 395.948242188 774.612304688 409.4453125 774.612304688 426.033203125 c 0
 774.612304688 442.620117188 763.229492188 456.112304688 749.2265625 456.112304688 c 0
 735.223632812 456.112304688 723.840820312 442.620117188 723.840820312 426.033203125 c 0
 723.840820312 409.4453125 735.223632812 395.948242188 749.2265625 395.948242188 c 0
804.151367188 509.109375 m 1
 808.237304688 523.932617188 808.646484375 539.526367188 805.341796875 554.543945312 c 1
 783.340820312 548.120117188 776.103515625 518.174804688 776.103515625 518.174804688 c 1
 787.400390625 517.033203125 793.443359375 514.279296875 804.151367188 509.109375 c 1
834.048828125 403.6171875 m 2
 834.0546875 403.6171875 l 2
 848.046875 403.6171875 859.432617188 417.083984375 859.432617188 433.6328125 c 0
 859.432617188 450.182617188 848.056640625 463.6484375 834.0546875 463.6484375 c 0
 820.051757812 463.6484375 808.662109375 450.176757812 808.662109375 433.627929688 c 0
 808.662109375 417.080078125 820.046875 403.6171875 834.048828125 403.6171875 c 2
EndSplineSet
EndChar

StartChar: uniE101
Encoding: 57601 57601 16
Width: 1000
Flags: H
LayerCount: 2
Fore
SplineSet
842.924804688 291.379882812 m 1
 842.924804688 291.379882812 957.076171875 222.162109375 942.815429688 192.908203125 c 0
 928.556640625 163.653320312 902.8671875 176.495117188 902.8671875 176.495117188 c 1
 902.8671875 176.495117188 900.009765625 137.962890625 870.754882812 145.098632812 c 0
 841.498046875 152.234375 782.986328125 187.201171875 775.135742188 192.908203125 c 0
 767.284179688 198.614257812 737.314453125 220.036132812 715.90625 217.169921875 c 0
 694.498046875 214.3046875 654.537109375 182.206054688 612.4375 174.356445312 c 0
 570.3359375 166.505859375 486.846679688 164.3671875 486.846679688 164.3671875 c 1
 486.846679688 164.3671875 464.001953125 140.109375 455.447265625 132.252929688 c 0
 446.893554688 124.396484375 409.049804688 107.270507812 400.501953125 95.138671875 c 0
 391.953125 83.0078125 346.982421875 15.216796875 317.724609375 17.359375 c 0
 288.46875 19.5 297.744140625 75.162109375 304.879882812 93 c 0
 312.017578125 110.837890625 326.287109375 139.379882812 306.307617188 132.245117188 c 0
 286.328125 125.111328125 245.661132812 80.1533203125 203.552734375 82.2939453125 c 0
 161.4453125 84.435546875 179.291992188 123.677734375 198.557617188 144.376953125 c 0
 217.823242188 165.075195312 256.357421875 210.716796875 300.599609375 222.861328125 c 0
 344.841796875 235.005859375 372.673828125 279.958984375 348.411132812 287.809570312 c 0
 324.1484375 295.661132812 222.104492188 294.947265625 155.741210938 284.2421875 c 0
 89.3779296875 273.5390625 34.4345703125 254.984375 26.583984375 284.2421875 c 0
 18.7333984375 313.5 152.173828125 342.7578125 174.294921875 345.611328125 c 0
 196.416992188 348.463867188 279.192382812 353.458984375 318.439453125 350.606445312 c 0
 357.6875 347.752929688 403.357421875 339.189453125 419.770507812 339.189453125 c 2
 419.770507812 339.189453125 471.921875 382.864257812 524.728515625 382.150390625 c 0
 577.534179688 381.435546875 643.831054688 377.721679688 670.947265625 405.551757812 c 0
 698.064453125 433.380859375 700.203125 457.645507812 709.481445312 467.634765625 c 2
 709.481445312 467.634765625 750.901367188 574.551757812 789.403320312 576.098632812 c 0
 807.247070312 576.8125 807.9609375 514.018554688 807.9609375 514.018554688 c 1
 818.6640625 514.018554688 l 1
 818.6640625 514.018554688 858.588867188 582.520507812 887.880859375 582.520507812 c 0
 912.857421875 582.520507812 901.439453125 492.609375 901.439453125 492.609375 c 1
 916.424804688 486.543945312 957.34375 451.1015625 962.338867188 410.895507812 c 0
 967.096679688 372.595703125 937.831054688 313.5 847.208007812 302.083007812 c 1
 842.924804688 291.379882812 l 1
769.6640625 477.387695312 m 0
 777.552734375 488.190429688 786.552734375 500.458984375 782.034179688 524.721679688 c 1
 755.385742188 514.026367188 738.736328125 464.541992188 738.736328125 464.541992188 c 1
 738.736328125 464.541992188 763.240234375 468.5859375 769.6640625 477.387695312 c 0
906.909179688 458.057617188 m 1
 906.909179688 458.036132812 l 1
 892.720703125 458.036132812 881.220703125 443.681640625 881.220703125 425.947265625 c 0
 881.220703125 408.212890625 892.720703125 393.8359375 906.909179688 393.8359375 c 0
 921.096679688 393.8359375 932.596679688 408.212890625 932.596679688 425.947265625 c 0
 932.596679688 443.681640625 921.083984375 458.057617188 906.909179688 458.057617188 c 1
878.521484375 541.098632812 m 1
 869.802734375 538.755859375 861.4296875 531.673828125 849.537109375 508.005859375 c 1
 857.426757812 507.65625 865.21875 506.134765625 872.659179688 503.487304688 c 1
 872.659179688 503.487304688 880.2109375 523.1171875 878.521484375 541.098632812 c 1
821.517578125 389.376953125 m 0
 835.705078125 389.376953125 847.208007812 403.755859375 847.208007812 421.490234375 c 0
 847.208007812 439.224609375 835.705078125 453.6015625 821.517578125 453.6015625 c 0
 807.328125 453.6015625 795.830078125 439.224609375 795.830078125 421.490234375 c 0
 795.830078125 403.755859375 807.341796875 389.376953125 821.517578125 389.376953125 c 0
EndSplineSet
EndChar

StartChar: uniE102
Encoding: 57602 57602 17
Width: 1000
Flags: H
LayerCount: 2
Fore
SplineSet
986.353515625 330.412109375 m 0
 974.9375 280.462890625 932.833984375 269.7578125 887.857421875 265.462890625 c 1
 887.857421875 265.462890625 879.995117188 254.044921875 893.567382812 250.478515625 c 0
 907.138671875 246.911132812 990.989257812 208.376953125 974.495117188 183.869140625 c 0
 956.583007812 157.2578125 910.706054688 175.559570312 906.424804688 165.5703125 c 0
 902.143554688 155.581054688 949.239257812 117.763671875 944.958007812 102.0625 c 0
 940.677734375 86.361328125 905.71875 77.7998046875 874.314453125 92.7841796875 c 0
 842.909179688 107.768554688 757.995117188 160.573242188 732.3046875 185.549804688 c 1
 732.3046875 185.549804688 635.979492188 176.986328125 575.317382812 184.122070312 c 0
 514.654296875 191.2578125 476.126953125 174.846679688 437.591796875 139.879882812 c 0
 399.059570312 104.912109375 372.643554688 73.515625 341.973632812 79.939453125 c 0
 311.3046875 86.361328125 314.861328125 129.890625 351.252929688 165.567382812 c 1
 351.252929688 165.567382812 321.278320312 181.987304688 282.036132812 162.001953125 c 0
 242.793945312 142.013671875 202.825195312 144.161132812 205.6796875 179.126953125 c 0
 208.536132812 214.09375 299.451171875 281.763671875 332.698242188 289.018554688 c 0
 366.487304688 296.384765625 396.221679688 323.995117188 397.646484375 339.684570312 c 0
 399.072265625 355.372070312 326.286132812 409.6171875 278.4765625 420.3203125 c 0
 230.666992188 431.0234375 161.451171875 421.737304688 132.193359375 415.323242188 c 0
 102.935546875 408.908203125 72.25 428.887695312 99.3662109375 452.435546875 c 1
 99.3662109375 452.435546875 154.314453125 479.552734375 219.963867188 478.125 c 0
 285.612304688 476.697265625 339.134765625 452.434570312 359.112304688 443.872070312 c 0
 379.091796875 435.309570312 442.603515625 390.353515625 442.603515625 390.353515625 c 1
 442.603515625 390.353515625 461.143554688 383.224609375 483.265625 395.356445312 c 0
 505.385742188 407.487304688 563.901367188 415.390625 613.853515625 391.815429688 c 0
 663.8046875 368.240234375 690.206054688 361.1015625 712.326171875 381.796875 c 0
 734.448242188 402.494140625 765.4921875 465.302734375 799.7421875 495.971679688 c 0
 833.9921875 526.642578125 861.825195312 542.705078125 848.620117188 458.859375 c 1
 860.751953125 456.716796875 l 1
 860.751953125 456.716796875 909.896484375 526.418945312 939.9609375 514.518554688 c 0
 957.087890625 507.737304688 939.9609375 427.458984375 939.9609375 427.458984375 c 1
 939.9609375 427.458984375 997.770507812 380.364257812 986.353515625 330.412109375 c 0
938.956054688 390.331054688 m 0
 924.626953125 390.331054688 913.0078125 376.728515625 913.0078125 359.943359375 c 0
 913.0078125 343.161132812 924.623046875 329.557617188 938.956054688 329.557617188 c 0
 953.2890625 329.557617188 964.90625 343.162109375 964.90625 359.943359375 c 0
 964.90625 376.724609375 953.2890625 390.331054688 938.956054688 390.331054688 c 0
926.770507812 480.622070312 m 1
 911.783203125 478.838867188 890.495117188 448.712890625 890.495117188 448.712890625 c 1
 898.517578125 446.830078125 906.333984375 444.162109375 913.833984375 440.751953125 c 1
 930.068359375 463.5859375 926.770507812 480.622070312 926.770507812 480.622070312 c 1
805.103515625 427.458984375 m 0
 821.278320312 440.751953125 825.388671875 453.221679688 826.103515625 475.34375 c 1
 791.317382812 460.892578125 776.916992188 419.252929688 776.916992188 419.252929688 c 1
 776.916992188 419.252929688 796.856445312 420.685546875 805.103515625 427.458984375 c 0
855.53125 335.950195312 m 0
 871.03125 335.950195312 883.598632812 350.403320312 883.598632812 368.232421875 c 0
 883.598632812 386.0625 871.033203125 400.515625 855.53125 400.515625 c 0
 840.028320312 400.515625 827.463867188 386.0625 827.463867188 368.232421875 c 0
 827.463867188 350.403320312 840.028320312 335.950195312 855.53125 335.950195312 c 0
EndSplineSet
EndChar

StartChar: uniE103
Encoding: 57603 57603 18
Width: 1000
Flags: H
LayerCount: 2
Fore
SplineSet
939.970703125 388.6953125 m 1
 939.970703125 388.6953125 977.604492188 353.037109375 972.081054688 308.056640625 c 0
 965.421875 253.823242188 922.129882812 233.129882812 847.205078125 224.565429688 c 1
 847.205078125 224.565429688 830.7890625 205.307617188 854.338867188 193.168945312 c 0
 877.887695312 181.029296875 926.416015625 168.8984375 923.557617188 146.776367188 c 0
 920.700195312 124.65625 899.291992188 107.529296875 809.3828125 120.375 c 1
 809.3828125 120.375 812.240234375 89.703125 827.939453125 71.1484375 c 0
 843.637695312 52.59375 835.076171875 6.923828125 790.120117188 29.759765625 c 0
 745.1640625 52.59375 708.161132812 117.315429688 685.223632812 168.909179688 c 0
 673.8046875 194.599609375 640.981445312 182.466796875 596.025390625 193.885742188 c 0
 551.068359375 205.302734375 516.815429688 230.276367188 481.848632812 213.864257812 c 0
 451.751953125 199.736328125 448.6328125 201.470703125 448.34375 202.228515625 c 1
 448.9140625 197.6328125 461.181640625 95.8828125 431.192382812 85.4189453125 c 0
 400.505859375 74.705078125 388.362304688 91.1298828125 383.379882812 139.653320312 c 0
 378.3984375 188.176757812 348.426757812 196.731445312 343.431640625 230.276367188 c 0
 338.435546875 263.823242188 328.447265625 291.637695312 356.276367188 331.607421875 c 0
 384.106445312 371.576171875 416.220703125 400.823242188 391.958007812 430.081054688 c 0
 367.693359375 459.338867188 339.372070312 510.565429688 238.534179688 519.994140625 c 0
 150.771484375 528.200195312 143.983398438 527.6328125 139.689453125 544.044921875 c 0
 135.395507812 560.458007812 172.1640625 585.645507812 249.224609375 572.799804688 c 0
 326.287109375 559.955078125 361.251953125 534.254882812 394.7890625 501.434570312 c 0
 428.328125 468.614257812 445.455078125 437.216796875 456.872070312 433.651367188 c 2
 456.872070312 433.651367188 524.661132812 460.767578125 571.759765625 427.228515625 c 0
 618.856445312 393.689453125 653.818359375 346.59375 684.505859375 360.151367188 c 0
 715.193359375 373.708007812 765.8515625 445.068359375 792.255859375 467.189453125 c 0
 818.661132812 489.310546875 865.041992188 509.291015625 866.470703125 491.450195312 c 0
 867.8984375 473.609375 859.096679688 435.552734375 859.096679688 435.552734375 c 1
 869.451171875 433.267578125 l 1
 869.451171875 433.267578125 912.348632812 482.978515625 952.8125 471.470703125 c 0
 973.509765625 465.583984375 939.970703125 388.6953125 939.970703125 388.6953125 c 1
779.403320312 409.387695312 m 1
 779.4140625 409.3828125 l 1
 779.4140625 409.3828125 805.276367188 404.791992188 821.502929688 417.950195312 c 0
 835.299804688 429.129882812 836.728515625 458.387695312 836.728515625 458.387695312 c 1
 806.283203125 450.299804688 779.403320312 409.387695312 779.403320312 409.387695312 c 1
846.481445312 314.005859375 m 2
 846.490234375 314.005859375 l 2
 861.465820312 314.005859375 873.596679688 327.744140625 873.596679688 344.689453125 c 0
 873.596679688 361.635742188 861.458007812 375.375 846.481445312 375.375 c 0
 831.502929688 375.375 819.364257812 361.635742188 819.364257812 344.689453125 c 0
 819.364257812 327.744140625 831.502929688 314.005859375 846.481445312 314.005859375 c 2
935.439453125 442.212890625 m 1
 935.450195312 442.212890625 l 1
 919.276367188 442.276367188 901.712890625 423.84375 897.185546875 418.192382812 c 1
 904.833984375 416.396484375 911.854492188 412.567382812 917.502929688 407.109375 c 1
 924.098632812 410.986328125 935.486328125 433.267578125 935.439453125 442.212890625 c 1
928.076171875 298.815429688 m 0
 941.181640625 298.815429688 951.8046875 311.481445312 951.8046875 327.099609375 c 0
 951.8046875 342.716796875 941.1796875 355.379882812 928.076171875 355.379882812 c 0
 914.973632812 355.379882812 904.348632812 342.720703125 904.348632812 327.099609375 c 0
 904.348632812 311.478515625 914.973632812 298.815429688 928.076171875 298.815429688 c 0
EndSplineSet
EndChar

StartChar: uniE104
Encoding: 57604 57604 19
Width: 1000
Flags: H
LayerCount: 2
Fore
SplineSet
847.560546875 453.837890625 m 1
 847.560546875 453.837890625 893.115234375 417.932617188 893.115234375 372.262695312 c 0
 893.115234375 326.591796875 858.388671875 292.338867188 788.456054688 279.020507812 c 0
 718.521484375 265.700195312 714.244140625 237.6328125 710.4375 218.127929688 c 0
 706.630859375 198.623046875 697.591796875 136.778320312 709.9609375 96.341796875 c 0
 722.330078125 55.90625 713.767578125 53.0517578125 706.630859375 47.341796875 c 0
 699.494140625 41.6328125 659.533203125 52.103515625 648.591796875 70.654296875 c 0
 637.651367188 89.2060546875 630.509765625 142.484375 619.573242188 143.4375 c 0
 608.638671875 144.390625 584.846679688 133.924804688 577.7109375 123.458007812 c 0
 570.573242188 112.9921875 565.806640625 102.525390625 539.176757812 102.525390625 c 0
 512.548828125 102.525390625 503.986328125 117.747070312 499.228515625 128.690429688 c 0
 494.470703125 139.6328125 485.426757812 153.904296875 460.21875 153.904296875 c 0
 435.009765625 153.904296875 405.984375 152.942382812 404.081054688 183.3984375 c 0
 402.1796875 213.854492188 409.791015625 227.1875 399.801757812 239.068359375 c 0
 389.810546875 250.950195312 351.751953125 280.456054688 348.8984375 312.806640625 c 0
 346.044921875 345.15625 351.041015625 342.064453125 343.786132812 352.171875 c 1
 343.786132812 352.171875 216.396484375 306.509765625 173.940429688 305.076171875 c 0
 131.484375 303.643554688 81.533203125 310.4375 61.1953125 326.838867188 c 0
 40.857421875 343.2421875 20.533203125 365.0078125 39.07421875 385.345703125 c 0
 57.615234375 405.682617188 107.220703125 368.221679688 117.924804688 366.434570312 c 0
 128.627929688 364.6484375 177.862304688 356.802734375 226.388671875 375.354492188 c 0
 274.9140625 393.90625 363.037109375 442.075195312 404.072265625 452.064453125 c 0
 445.104492188 462.052734375 489.349609375 482.390625 560.346679688 447.068359375 c 0
 631.345703125 411.747070312 638.838867188 442.075195312 646.6875 450.279296875 c 0
 654.536132812 458.486328125 684.862304688 509.862304688 723.041015625 538.051757812 c 0
 761.21875 566.239257812 767.997070312 560.171875 760.504882812 495.591796875 c 1
 773.346679688 492.739257812 l 1
 773.346679688 492.739257812 825.440429688 550.528320312 849.345703125 541.965820312 c 0
 873.25 533.404296875 847.560546875 453.837890625 847.560546875 453.837890625 c 1
720.067382812 468.229492188 m 0
 740.286132812 486.1875 738.143554688 505.575195312 738.146484375 505.576171875 c 1
 709.362304688 498.9140625 689.3828125 458.123046875 689.3828125 458.123046875 c 1
 694.916992188 457.625 700.494140625 458.265625 705.770507812 460.002929688 c 0
 711.046875 461.740234375 715.912109375 464.541015625 720.067382812 468.229492188 c 0
760.385742188 370.684570312 m 0
 775.096679688 370.684570312 787.025390625 383.909179688 787.025390625 400.221679688 c 0
 787.025390625 416.533203125 775.099609375 429.7578125 760.385742188 429.7578125 c 0
 745.671875 429.7578125 733.744140625 416.533203125 733.744140625 400.221679688 c 0
 733.744140625 383.909179688 745.671875 370.684570312 760.385742188 370.684570312 c 0
803.426757812 478.6953125 m 1
 803.418945312 478.6953125 l 1
 809.893554688 476.7265625 816.036132812 473.798828125 821.640625 470.0078125 c 1
 831.037109375 479.528320312 833.831054688 491.537109375 833.119140625 505.575195312 c 1
 821.880859375 503.076171875 803.426757812 478.6953125 803.426757812 478.6953125 c 1
846.984375 357.362304688 m 1
 846.965820312 357.349609375 l 1
 860.103515625 357.349609375 870.770507812 369.703125 870.770507812 384.921875 c 0
 870.770507812 400.140625 860.120117188 412.481445312 846.984375 412.481445312 c 0
 833.846679688 412.481445312 823.198242188 400.143554688 823.198242188 384.921875 c 0
 823.198242188 369.700195312 833.838867188 357.362304688 846.984375 357.362304688 c 1
EndSplineSet
EndChar

StartChar: uniE200
Encoding: 57856 57856 20
Width: 1000
Flags: H
LayerCount: 2
Fore
SplineSet
537.140625 137.078125 m 0
 537.431640625 136.958984375 537.716796875 136.840820312 537.995117188 136.724609375 c 0
 564.416015625 125.740234375 574.435546875 108.478515625 561.682617188 97.494140625 c 0
 550.372070312 87.751953125 542.643554688 86.650390625 526.424804688 84.3359375 c 2
 526.412109375 84.333984375 l 2
 524.346679688 84.0390625 522.142578125 83.724609375 519.775390625 83.3701171875 c 0
 498.822265625 80.232421875 435.051757812 90.4326171875 388.588867188 111.6171875 c 0
 342.127929688 132.801757812 313.885742188 168.893554688 315.708007812 226.171875 c 0
 316.818359375 261.081054688 335.2734375 289.098632812 350.848632812 305.4375 c 0
 350.887695312 305.573242188 350.926757812 305.7109375 350.965820312 305.848632812 c 1
 339.950195312 303.525390625 328.0625 300.427734375 316.294921875 296.168945312 c 0
 291.474609375 287.182617188 270.400390625 274.151367188 258.373046875 255.5390625 c 0
 244.379882812 233.8828125 240.122070312 214.231445312 241.080078125 196.5546875 c 0
 242.059570312 178.494140625 248.598632812 160.779296875 258.826171875 143.732421875 c 0
 264.200195312 134.776367188 275.588867188 124.056640625 290.5078125 115.450195312 c 0
 305.427734375 106.841796875 320.426757812 102.34375 331.25 102.34375 c 0
 345.489257812 102.34375 357.03125 90.8017578125 357.03125 76.5625 c 0
 357.03125 62.3232421875 345.489257812 50.78125 331.25 50.78125 c 0
 308.481445312 50.78125 284.53125 59.3720703125 264.744140625 70.7861328125 c 0
 244.956054688 82.2001953125 225.875 98.4326171875 214.612304688 117.205078125 c 0
 201.401367188 139.220703125 191.150390625 165.052734375 189.59375 193.763671875 c 0
 188.015625 222.861328125 195.4765625 253.208007812 215.065429688 283.5234375 c 0
 235.8515625 315.692382812 269.073242188 333.911132812 298.744140625 344.651367188 c 0
 328.712890625 355.5 358.357421875 359.8828125 375.34375 362.252929688 c 0
 377.802734375 362.595703125 380.228515625 362.580078125 382.568359375 362.245117188 c 0
 400.8046875 381.137695312 426.254882812 394.34375 460.15625 395.3125 c 0
 526.581054688 397.2109375 559.287109375 367.768554688 585.674804688 344.013671875 c 0
 588.154296875 341.783203125 590.578125 339.6015625 592.96875 337.5 c 0
 594.090820312 336.513671875 595.21875 335.521484375 596.348632812 334.526367188 c 2
 596.372070312 334.505859375 l 2
 620.662109375 313.122070312 646.537109375 290.34375 670.348632812 286.1796875 c 1
 682.7890625 317.418945312 705.833984375 361.223632812 738.369140625 380.604492188 c 0
 781.703125 406.419921875 772.416015625 372.6875 763.712890625 341.076171875 c 0
 761.658203125 333.6171875 759.637695312 326.276367188 758.346679688 319.864257812 c 1
 765.512695312 320.926757812 772.747070312 321.369140625 779.973632812 321.115234375 c 0
 788.138671875 332.7421875 801.640625 348.3671875 815.701171875 359.212890625 c 0
 836.376953125 375.159179688 857.994140625 377.205078125 867.794921875 374.114257812 c 0
 875.171875 371.7890625 864.098632812 325.271484375 851.939453125 296.966796875 c 1
 890.630859375 271.596679688 916.637695312 230.046875 911.279296875 189.879882812 c 0
 907.926757812 164.744140625 892.831054688 144.197265625 871.323242188 129.583984375 c 1
 880.515625 126.392578125 888.302734375 123.106445312 891.40625 120.3125 c 0
 899.21875 113.28125 905.46875 104.6875 898.4375 92.96875 c 0
 891.40625 81.25 857.03125 85.15625 839.84375 89.0625 c 0
 838.479492188 89.373046875 836.340820312 89.978515625 833.549804688 90.8310546875 c 1
 842.637695312 83.0234375 846.662109375 74.955078125 843.75 67.1875 c 0
 839.0625 54.6875 817.96875 46.875 786.71875 55.46875 c 0
 755.46875 64.0625 703.125 82.8125 674.21875 104.6875 c 0
 662.0078125 113.9296875 651.873046875 124.448242188 644.298828125 133.623046875 c 1
 616.901367188 133.228515625 588.572265625 134.331054688 563.28125 135.9375 c 0
 553.865234375 136.536132812 545.018554688 136.935546875 536.568359375 137.314453125 c 1
 536.762695312 137.236328125 536.953125 137.15625 537.140625 137.078125 c 0
701.095703125 292.5390625 m 1
 744.96875 310.529296875 l 1
 749.956054688 342.923828125 l 2
 750.856445312 348.765625 745.234375 353.255859375 740.1953125 350.1640625 c 0
 733.190429688 345.865234375 726.416015625 340.026367188 720.760742188 332.987304688 c 0
 712.801757812 323.076171875 702.997070312 304.893554688 701.095703125 292.5390625 c 1
839.318359375 343.189453125 m 0
 825.823242188 337.677734375 812.4296875 322.560546875 807.418945312 315.692382812 c 1
 811.676757812 314.245117188 821.376953125 310.854492188 826.127929688 308.859375 c 0
 830.879882812 306.862304688 837.4921875 303.947265625 840.205078125 302.739257812 c 1
 842.403320312 308.4609375 847.370117188 321.5546875 849.653320312 328.159179688 c 0
 852.504882812 336.416015625 856.189453125 350.076171875 839.318359375 343.189453125 c 0
804.986328125 226.005859375 m 0
 805.651367188 228.864257812 803.5234375 231.505859375 800.607421875 231.833984375 c 0
 797.692382812 232.1640625 795.115234375 230.0390625 794.224609375 227.244140625 c 0
 793.120117188 223.771484375 791.3359375 220.65625 789.029296875 218.244140625 c 0
 785.619140625 214.676757812 781.341796875 212.940429688 777.142578125 213.4140625 c 0
 772.942382812 213.888671875 769.162109375 216.536132812 766.6328125 220.771484375 c 0
 764.921875 223.638671875 763.877929688 227.073242188 763.575195312 230.705078125 c 0
 763.330078125 233.627929688 761.291992188 236.275390625 758.376953125 236.604492188 c 0
 755.4609375 236.932617188 752.796875 234.833007812 752.809570312 231.8984375 c 0
 752.837890625 224.556640625 754.658203125 217.5078125 758.059570312 211.807617188 c 0
 762.275390625 204.745117188 768.576171875 200.333984375 775.576171875 199.543945312 c 0
 782.576171875 198.752929688 789.703125 201.6484375 795.387695312 207.591796875 c 0
 799.974609375 212.388671875 803.3203125 218.854492188 804.986328125 226.005859375 c 0
882.676757812 225.583984375 m 0
 879.760742188 225.9140625 877.182617188 223.7890625 876.291992188 220.994140625 c 0
 876.005859375 220.090820312 875.671875 219.208984375 875.291992188 218.354492188 c 0
 874.2109375 215.921875 872.786132812 213.759765625 871.096679688 211.994140625 c 0
 869.408203125 210.228515625 867.489257812 208.892578125 865.450195312 208.064453125 c 0
 863.411132812 207.234375 861.291015625 206.9296875 859.2109375 207.1640625 c 0
 857.130859375 207.3984375 855.1328125 208.169921875 853.330078125 209.432617188 c 0
 851.525390625 210.6953125 849.953125 212.424804688 848.700195312 214.521484375 c 0
 847.448242188 216.620117188 846.541015625 219.044921875 846.029296875 221.659179688 c 0
 845.849609375 222.576171875 845.721679688 223.510742188 845.642578125 224.455078125 c 0
 845.3984375 227.377929688 843.359375 230.025390625 840.443359375 230.354492188 c 0
 837.528320312 230.682617188 834.865234375 228.583007812 834.876953125 225.6484375 c 0
 834.887695312 222.870117188 835.154296875 220.119140625 835.676757812 217.453125 c 0
 836.528320312 213.096679688 838.041015625 209.0546875 840.126953125 205.557617188 c 0
 842.213867188 202.060546875 844.8359375 199.177734375 847.841796875 197.075195312 c 0
 850.846679688 194.970703125 854.177734375 193.685546875 857.643554688 193.293945312 c 0
 861.111328125 192.903320312 864.643554688 193.412109375 868.043945312 194.791992188 c 0
 871.442382812 196.173828125 874.640625 198.400390625 877.455078125 201.341796875 c 0
 880.270507812 204.286132812 882.645507812 207.888671875 884.447265625 211.9453125 c 0
 885.549804688 214.427734375 886.423828125 217.051757812 887.052734375 219.755859375 c 0
 887.71875 222.614257812 885.590820312 225.255859375 882.676757812 225.583984375 c 0
EndSplineSet
EndChar

StartChar: uniE201
Encoding: 57857 57857 21
Width: 1000
Flags: H
LayerCount: 2
Fore
SplineSet
537.140625 137.078125 m 0
 537.431640625 136.958984375 537.716796875 136.840820312 537.995117188 136.724609375 c 0
 564.416015625 125.740234375 574.435546875 108.478515625 561.682617188 97.494140625 c 0
 550.372070312 87.751953125 542.643554688 86.650390625 526.424804688 84.3359375 c 2
 526.412109375 84.333984375 l 2
 524.346679688 84.0390625 522.142578125 83.724609375 519.775390625 83.3701171875 c 0
 498.822265625 80.232421875 435.051757812 90.4326171875 388.588867188 111.6171875 c 0
 342.127929688 132.801757812 313.885742188 168.893554688 315.708007812 226.171875 c 0
 316.818359375 261.081054688 335.2734375 289.098632812 350.848632812 305.4375 c 0
 350.887695312 305.573242188 350.926757812 305.7109375 350.965820312 305.848632812 c 1
 339.950195312 303.525390625 328.0625 300.427734375 316.294921875 296.168945312 c 0
 291.474609375 287.182617188 270.400390625 274.151367188 258.373046875 255.5390625 c 0
 244.379882812 233.8828125 240.122070312 214.231445312 241.080078125 196.5546875 c 0
 242.059570312 178.494140625 248.598632812 160.779296875 258.826171875 143.732421875 c 0
 264.200195312 134.776367188 275.588867188 124.056640625 290.5078125 115.450195312 c 0
 305.427734375 106.841796875 320.426757812 102.34375 331.25 102.34375 c 0
 345.489257812 102.34375 357.03125 90.8017578125 357.03125 76.5625 c 0
 357.03125 62.3232421875 345.489257812 50.78125 331.25 50.78125 c 0
 308.481445312 50.78125 284.53125 59.3720703125 264.744140625 70.7861328125 c 0
 244.956054688 82.2001953125 225.875 98.4326171875 214.612304688 117.205078125 c 0
 201.401367188 139.220703125 191.150390625 165.052734375 189.59375 193.763671875 c 0
 188.015625 222.861328125 195.4765625 253.208007812 215.065429688 283.5234375 c 0
 235.8515625 315.692382812 269.073242188 333.911132812 298.744140625 344.651367188 c 0
 328.712890625 355.5 358.357421875 359.8828125 375.34375 362.252929688 c 0
 377.802734375 362.595703125 380.228515625 362.580078125 382.568359375 362.245117188 c 0
 400.8046875 381.137695312 426.254882812 394.34375 460.15625 395.3125 c 0
 526.581054688 397.2109375 559.287109375 367.768554688 585.674804688 344.013671875 c 0
 588.154296875 341.783203125 590.578125 339.6015625 592.96875 337.5 c 0
 594.090820312 336.513671875 595.21875 335.521484375 596.348632812 334.526367188 c 2
 596.372070312 334.505859375 l 2
 620.662109375 313.122070312 646.537109375 290.34375 670.348632812 286.1796875 c 1
 682.7890625 317.418945312 705.833984375 361.223632812 738.369140625 380.604492188 c 0
 781.703125 406.419921875 772.416015625 372.6875 763.712890625 341.076171875 c 0
 761.658203125 333.6171875 759.637695312 326.276367188 758.346679688 319.864257812 c 1
 765.512695312 320.926757812 772.747070312 321.369140625 779.973632812 321.115234375 c 0
 788.138671875 332.7421875 801.640625 348.3671875 815.701171875 359.212890625 c 0
 836.376953125 375.159179688 857.994140625 377.205078125 867.794921875 374.114257812 c 0
 875.171875 371.7890625 864.098632812 325.271484375 851.939453125 296.966796875 c 1
 890.630859375 271.596679688 916.637695312 230.046875 911.279296875 189.879882812 c 0
 907.926757812 164.744140625 892.831054688 144.197265625 871.323242188 129.583984375 c 1
 880.515625 126.392578125 888.302734375 123.106445312 891.40625 120.3125 c 0
 899.21875 113.28125 905.46875 104.6875 898.4375 92.96875 c 0
 891.40625 81.25 857.03125 85.15625 839.84375 89.0625 c 0
 838.479492188 89.373046875 836.340820312 89.978515625 833.549804688 90.8310546875 c 1
 842.637695312 83.0234375 846.662109375 74.955078125 843.75 67.1875 c 0
 839.0625 54.6875 817.96875 46.875 786.71875 55.46875 c 0
 755.46875 64.0625 703.125 82.8125 674.21875 104.6875 c 0
 662.0078125 113.9296875 651.873046875 124.448242188 644.298828125 133.623046875 c 1
 616.901367188 133.228515625 588.572265625 134.331054688 563.28125 135.9375 c 0
 553.865234375 136.536132812 545.018554688 136.935546875 536.568359375 137.314453125 c 1
 536.762695312 137.236328125 536.953125 137.15625 537.140625 137.078125 c 0
701.095703125 292.5390625 m 1
 744.96875 310.529296875 l 1
 749.956054688 342.923828125 l 2
 750.856445312 348.765625 745.234375 353.255859375 740.1953125 350.1640625 c 0
 733.190429688 345.865234375 726.416015625 340.026367188 720.760742188 332.987304688 c 0
 712.801757812 323.076171875 702.997070312 304.893554688 701.095703125 292.5390625 c 1
839.318359375 343.189453125 m 0
 825.823242188 337.677734375 812.4296875 322.560546875 807.418945312 315.692382812 c 1
 811.676757812 314.245117188 821.376953125 310.854492188 826.127929688 308.859375 c 0
 830.879882812 306.862304688 837.4921875 303.947265625 840.205078125 302.739257812 c 1
 842.403320312 308.4609375 847.370117188 321.5546875 849.653320312 328.159179688 c 0
 852.504882812 336.416015625 856.189453125 350.076171875 839.318359375 343.189453125 c 0
804.986328125 226.005859375 m 0
 805.651367188 228.864257812 803.5234375 231.505859375 800.607421875 231.833984375 c 0
 797.692382812 232.1640625 795.115234375 230.0390625 794.224609375 227.244140625 c 0
 793.120117188 223.771484375 791.3359375 220.65625 789.029296875 218.244140625 c 0
 785.619140625 214.676757812 781.341796875 212.940429688 777.142578125 213.4140625 c 0
 772.942382812 213.888671875 769.162109375 216.536132812 766.6328125 220.771484375 c 0
 764.921875 223.638671875 763.877929688 227.073242188 763.575195312 230.705078125 c 0
 763.330078125 233.627929688 761.291992188 236.275390625 758.376953125 236.604492188 c 0
 755.4609375 236.932617188 752.796875 234.833007812 752.809570312 231.8984375 c 0
 752.837890625 224.556640625 754.658203125 217.5078125 758.059570312 211.807617188 c 0
 762.275390625 204.745117188 768.576171875 200.333984375 775.576171875 199.543945312 c 0
 782.576171875 198.752929688 789.703125 201.6484375 795.387695312 207.591796875 c 0
 799.974609375 212.388671875 803.3203125 218.854492188 804.986328125 226.005859375 c 0
882.676757812 225.583984375 m 0
 879.760742188 225.9140625 877.182617188 223.7890625 876.291992188 220.994140625 c 0
 876.005859375 220.090820312 875.671875 219.208984375 875.291992188 218.354492188 c 0
 874.2109375 215.921875 872.786132812 213.759765625 871.096679688 211.994140625 c 0
 869.408203125 210.228515625 867.489257812 208.892578125 865.450195312 208.064453125 c 0
 863.411132812 207.234375 861.291015625 206.9296875 859.2109375 207.1640625 c 0
 857.130859375 207.3984375 855.1328125 208.169921875 853.330078125 209.432617188 c 0
 851.525390625 210.6953125 849.953125 212.424804688 848.700195312 214.521484375 c 0
 847.448242188 216.620117188 846.541015625 219.044921875 846.029296875 221.659179688 c 0
 845.849609375 222.576171875 845.721679688 223.510742188 845.642578125 224.455078125 c 0
 845.3984375 227.377929688 843.359375 230.025390625 840.443359375 230.354492188 c 0
 837.528320312 230.682617188 834.865234375 228.583007812 834.876953125 225.6484375 c 0
 834.887695312 222.870117188 835.154296875 220.119140625 835.676757812 217.453125 c 0
 836.528320312 213.096679688 838.041015625 209.0546875 840.126953125 205.557617188 c 0
 842.213867188 202.060546875 844.8359375 199.177734375 847.841796875 197.075195312 c 0
 850.846679688 194.970703125 854.177734375 193.685546875 857.643554688 193.293945312 c 0
 861.111328125 192.903320312 864.643554688 193.412109375 868.043945312 194.791992188 c 0
 871.442382812 196.173828125 874.640625 198.400390625 877.455078125 201.341796875 c 0
 880.270507812 204.286132812 882.645507812 207.888671875 884.447265625 211.9453125 c 0
 885.549804688 214.427734375 886.423828125 217.051757812 887.052734375 219.755859375 c 0
 887.71875 222.614257812 885.590820312 225.255859375 882.676757812 225.583984375 c 0
606.4921875 443.854492188 m 1
 642.213867188 497.1796875 l 1
 606.059570312 497.1796875 l 1
 606.059570312 514.489257812 l 1
 666.359375 514.489257812 l 1
 666.359375 501.884765625 l 1
 630.637695312 448.559570312 l 1
 666.791992188 448.559570312 l 1
 666.791992188 431.25 l 1
 606.4921875 431.25 l 1
 606.4921875 443.854492188 l 1
687.9609375 444.0390625 m 1
 714.958007812 478.713867188 l 1
 688.971679688 478.713867188 l 1
 688.971679688 496.0234375 l 1
 739.75 496.0234375 l 1
 739.75 482.971679688 l 1
 713.5078125 448.559570312 l 1
 740.759765625 448.559570312 l 1
 740.759765625 431.25 l 1
 687.9609375 431.25 l 1
 687.9609375 444.0390625 l 1
EndSplineSet
EndChar

StartChar: uniE202
Encoding: 57858 57858 22
Width: 1000
Flags: H
LayerCount: 2
Fore
SplineSet
537.140625 137.078125 m 0
 537.431640625 136.958984375 537.716796875 136.840820312 537.995117188 136.724609375 c 0
 564.416015625 125.740234375 574.435546875 108.478515625 561.682617188 97.494140625 c 0
 550.372070312 87.751953125 542.643554688 86.650390625 526.424804688 84.3359375 c 2
 526.412109375 84.333984375 l 2
 524.346679688 84.0390625 522.142578125 83.724609375 519.775390625 83.3701171875 c 0
 498.822265625 80.232421875 435.051757812 90.4326171875 388.588867188 111.6171875 c 0
 342.127929688 132.801757812 313.885742188 168.893554688 315.708007812 226.171875 c 0
 316.818359375 261.081054688 335.2734375 289.098632812 350.848632812 305.4375 c 0
 350.887695312 305.573242188 350.926757812 305.7109375 350.965820312 305.848632812 c 1
 339.950195312 303.525390625 328.0625 300.427734375 316.294921875 296.168945312 c 0
 291.474609375 287.182617188 270.400390625 274.151367188 258.373046875 255.5390625 c 0
 244.379882812 233.8828125 240.122070312 214.231445312 241.080078125 196.5546875 c 0
 242.059570312 178.494140625 248.598632812 160.779296875 258.826171875 143.732421875 c 0
 264.200195312 134.776367188 275.588867188 124.056640625 290.5078125 115.450195312 c 0
 305.427734375 106.841796875 320.426757812 102.34375 331.25 102.34375 c 0
 345.489257812 102.34375 357.03125 90.8017578125 357.03125 76.5625 c 0
 357.03125 62.3232421875 345.489257812 50.78125 331.25 50.78125 c 0
 308.481445312 50.78125 284.53125 59.3720703125 264.744140625 70.7861328125 c 0
 244.956054688 82.2001953125 225.875 98.4326171875 214.612304688 117.205078125 c 0
 201.401367188 139.220703125 191.150390625 165.052734375 189.59375 193.763671875 c 0
 188.015625 222.861328125 195.4765625 253.208007812 215.065429688 283.5234375 c 0
 235.8515625 315.692382812 269.073242188 333.911132812 298.744140625 344.651367188 c 0
 328.712890625 355.5 358.357421875 359.8828125 375.34375 362.252929688 c 0
 377.802734375 362.595703125 380.228515625 362.580078125 382.568359375 362.245117188 c 0
 400.8046875 381.137695312 426.254882812 394.34375 460.15625 395.3125 c 0
 526.581054688 397.2109375 559.287109375 367.768554688 585.674804688 344.013671875 c 0
 588.154296875 341.783203125 590.578125 339.6015625 592.96875 337.5 c 0
 594.090820312 336.513671875 595.21875 335.521484375 596.348632812 334.526367188 c 2
 596.372070312 334.505859375 l 2
 620.662109375 313.122070312 646.537109375 290.34375 670.348632812 286.1796875 c 1
 682.7890625 317.418945312 705.833984375 361.223632812 738.369140625 380.604492188 c 0
 781.703125 406.419921875 772.416015625 372.6875 763.712890625 341.076171875 c 0
 761.658203125 333.6171875 759.637695312 326.276367188 758.346679688 319.864257812 c 1
 765.512695312 320.926757812 772.747070312 321.369140625 779.973632812 321.115234375 c 0
 788.138671875 332.7421875 801.640625 348.3671875 815.701171875 359.212890625 c 0
 836.376953125 375.159179688 857.994140625 377.205078125 867.794921875 374.114257812 c 0
 875.171875 371.7890625 864.098632812 325.271484375 851.939453125 296.966796875 c 1
 890.630859375 271.596679688 916.637695312 230.046875 911.279296875 189.879882812 c 0
 907.926757812 164.744140625 892.831054688 144.197265625 871.323242188 129.583984375 c 1
 880.515625 126.392578125 888.302734375 123.106445312 891.40625 120.3125 c 0
 899.21875 113.28125 905.46875 104.6875 898.4375 92.96875 c 0
 891.40625 81.25 857.03125 85.15625 839.84375 89.0625 c 0
 838.479492188 89.373046875 836.340820312 89.978515625 833.549804688 90.8310546875 c 1
 842.637695312 83.0234375 846.662109375 74.955078125 843.75 67.1875 c 0
 839.0625 54.6875 817.96875 46.875 786.71875 55.46875 c 0
 755.46875 64.0625 703.125 82.8125 674.21875 104.6875 c 0
 662.0078125 113.9296875 651.873046875 124.448242188 644.298828125 133.623046875 c 1
 616.901367188 133.228515625 588.572265625 134.331054688 563.28125 135.9375 c 0
 553.865234375 136.536132812 545.018554688 136.935546875 536.568359375 137.314453125 c 1
 536.762695312 137.236328125 536.953125 137.15625 537.140625 137.078125 c 0
701.095703125 292.5390625 m 1
 744.96875 310.529296875 l 1
 749.956054688 342.923828125 l 2
 750.856445312 348.765625 745.234375 353.255859375 740.1953125 350.1640625 c 0
 733.190429688 345.865234375 726.416015625 340.026367188 720.760742188 332.987304688 c 0
 712.801757812 323.076171875 702.997070312 304.893554688 701.095703125 292.5390625 c 1
839.318359375 343.189453125 m 0
 825.823242188 337.677734375 812.4296875 322.560546875 807.418945312 315.692382812 c 1
 811.676757812 314.245117188 821.376953125 310.854492188 826.127929688 308.859375 c 0
 830.879882812 306.862304688 837.4921875 303.947265625 840.205078125 302.739257812 c 1
 842.403320312 308.4609375 847.370117188 321.5546875 849.653320312 328.159179688 c 0
 852.504882812 336.416015625 856.189453125 350.076171875 839.318359375 343.189453125 c 0
804.986328125 226.005859375 m 0
 805.651367188 228.864257812 803.5234375 231.505859375 800.607421875 231.833984375 c 0
 797.692382812 232.1640625 795.115234375 230.0390625 794.224609375 227.244140625 c 0
 793.120117188 223.771484375 791.3359375 220.65625 789.029296875 218.244140625 c 0
 785.619140625 214.676757812 781.341796875 212.940429688 777.142578125 213.4140625 c 0
 772.942382812 213.888671875 769.162109375 216.536132812 766.6328125 220.771484375 c 0
 764.921875 223.638671875 763.877929688 227.073242188 763.575195312 230.705078125 c 0
 763.330078125 233.627929688 761.291992188 236.275390625 758.376953125 236.604492188 c 0
 755.4609375 236.932617188 752.796875 234.833007812 752.809570312 231.8984375 c 0
 752.837890625 224.556640625 754.658203125 217.5078125 758.059570312 211.807617188 c 0
 762.275390625 204.745117188 768.576171875 200.333984375 775.576171875 199.543945312 c 0
 782.576171875 198.752929688 789.703125 201.6484375 795.387695312 207.591796875 c 0
 799.974609375 212.388671875 803.3203125 218.854492188 804.986328125 226.005859375 c 0
882.676757812 225.583984375 m 0
 879.760742188 225.9140625 877.182617188 223.7890625 876.291992188 220.994140625 c 0
 876.005859375 220.090820312 875.671875 219.208984375 875.291992188 218.354492188 c 0
 874.2109375 215.921875 872.786132812 213.759765625 871.096679688 211.994140625 c 0
 869.408203125 210.228515625 867.489257812 208.892578125 865.450195312 208.064453125 c 0
 863.411132812 207.234375 861.291015625 206.9296875 859.2109375 207.1640625 c 0
 857.130859375 207.3984375 855.1328125 208.169921875 853.330078125 209.432617188 c 0
 851.525390625 210.6953125 849.953125 212.424804688 848.700195312 214.521484375 c 0
 847.448242188 216.620117188 846.541015625 219.044921875 846.029296875 221.659179688 c 0
 845.849609375 222.576171875 845.721679688 223.510742188 845.642578125 224.455078125 c 0
 845.3984375 227.377929688 843.359375 230.025390625 840.443359375 230.354492188 c 0
 837.528320312 230.682617188 834.865234375 228.583007812 834.876953125 225.6484375 c 0
 834.887695312 222.870117188 835.154296875 220.119140625 835.676757812 217.453125 c 0
 836.528320312 213.096679688 838.041015625 209.0546875 840.126953125 205.557617188 c 0
 842.213867188 202.060546875 844.8359375 199.177734375 847.841796875 197.075195312 c 0
 850.846679688 194.970703125 854.177734375 193.685546875 857.643554688 193.293945312 c 0
 861.111328125 192.903320312 864.643554688 193.412109375 868.043945312 194.791992188 c 0
 871.442382812 196.173828125 874.640625 198.400390625 877.455078125 201.341796875 c 0
 880.270507812 204.286132812 882.645507812 207.888671875 884.447265625 211.9453125 c 0
 885.549804688 214.427734375 886.423828125 217.051757812 887.052734375 219.755859375 c 0
 887.71875 222.614257812 885.590820312 225.255859375 882.676757812 225.583984375 c 0
575.442382812 472.177734375 m 1
 612.388671875 527.333007812 l 1
 574.995117188 527.333007812 l 1
 574.995117188 544.885742188 l 1
 636.862304688 544.885742188 l 1
 636.862304688 532.081054688 l 1
 599.916015625 476.927734375 l 1
 637.309570312 476.927734375 l 1
 637.309570312 459.375 l 1
 575.442382812 459.375 l 1
 575.442382812 472.177734375 l 1
659.416992188 472.364257812 m 1
 687.395507812 508.298828125 l 1
 660.458007812 508.298828125 l 1
 660.458007812 525.8515625 l 1
 712.510742188 525.8515625 l 1
 712.510742188 512.591796875 l 1
 685.314453125 476.927734375 l 1
 713.552734375 476.927734375 l 1
 713.552734375 459.375 l 1
 659.416992188 459.375 l 1
 659.416992188 472.364257812 l 1
EndSplineSet
EndChar

StartChar: uniE203
Encoding: 57859 57859 23
Width: 1000
Flags: H
LayerCount: 2
Fore
SplineSet
537.140625 137.078125 m 0
 537.431640625 136.958984375 537.716796875 136.840820312 537.995117188 136.724609375 c 0
 564.416015625 125.740234375 574.435546875 108.478515625 561.682617188 97.494140625 c 0
 550.372070312 87.751953125 542.643554688 86.650390625 526.424804688 84.3359375 c 2
 526.412109375 84.333984375 l 2
 524.346679688 84.0390625 522.142578125 83.724609375 519.775390625 83.3701171875 c 0
 498.822265625 80.232421875 435.051757812 90.4326171875 388.588867188 111.6171875 c 0
 342.127929688 132.801757812 313.885742188 168.893554688 315.708007812 226.171875 c 0
 316.818359375 261.081054688 335.2734375 289.098632812 350.848632812 305.4375 c 0
 350.887695312 305.573242188 350.926757812 305.7109375 350.965820312 305.848632812 c 1
 339.950195312 303.525390625 328.0625 300.427734375 316.294921875 296.168945312 c 0
 291.474609375 287.182617188 270.400390625 274.151367188 258.373046875 255.5390625 c 0
 244.379882812 233.8828125 240.122070312 214.231445312 241.080078125 196.5546875 c 0
 242.059570312 178.494140625 248.598632812 160.779296875 258.826171875 143.732421875 c 0
 264.200195312 134.776367188 275.588867188 124.056640625 290.5078125 115.450195312 c 0
 305.427734375 106.841796875 320.426757812 102.34375 331.25 102.34375 c 0
 345.489257812 102.34375 357.03125 90.8017578125 357.03125 76.5625 c 0
 357.03125 62.3232421875 345.489257812 50.78125 331.25 50.78125 c 0
 308.481445312 50.78125 284.53125 59.3720703125 264.744140625 70.7861328125 c 0
 244.956054688 82.2001953125 225.875 98.4326171875 214.612304688 117.205078125 c 0
 201.401367188 139.220703125 191.150390625 165.052734375 189.59375 193.763671875 c 0
 188.015625 222.861328125 195.4765625 253.208007812 215.065429688 283.5234375 c 0
 235.8515625 315.692382812 269.073242188 333.911132812 298.744140625 344.651367188 c 0
 328.712890625 355.5 358.357421875 359.8828125 375.34375 362.252929688 c 0
 377.802734375 362.595703125 380.228515625 362.580078125 382.568359375 362.245117188 c 0
 400.8046875 381.137695312 426.254882812 394.34375 460.15625 395.3125 c 0
 526.581054688 397.2109375 559.287109375 367.768554688 585.674804688 344.013671875 c 0
 588.154296875 341.783203125 590.578125 339.6015625 592.96875 337.5 c 0
 594.090820312 336.513671875 595.21875 335.521484375 596.348632812 334.526367188 c 2
 596.372070312 334.505859375 l 2
 620.662109375 313.122070312 646.537109375 290.34375 670.348632812 286.1796875 c 1
 682.7890625 317.418945312 705.833984375 361.223632812 738.369140625 380.604492188 c 0
 781.703125 406.419921875 772.416015625 372.6875 763.712890625 341.076171875 c 0
 761.658203125 333.6171875 759.637695312 326.276367188 758.346679688 319.864257812 c 1
 765.512695312 320.926757812 772.747070312 321.369140625 779.973632812 321.115234375 c 0
 788.138671875 332.7421875 801.640625 348.3671875 815.701171875 359.212890625 c 0
 836.376953125 375.159179688 857.994140625 377.205078125 867.794921875 374.114257812 c 0
 875.171875 371.7890625 864.098632812 325.271484375 851.939453125 296.966796875 c 1
 890.630859375 271.596679688 916.637695312 230.046875 911.279296875 189.879882812 c 0
 907.926757812 164.744140625 892.831054688 144.197265625 871.323242188 129.583984375 c 1
 880.515625 126.392578125 888.302734375 123.106445312 891.40625 120.3125 c 0
 899.21875 113.28125 905.46875 104.6875 898.4375 92.96875 c 0
 891.40625 81.25 857.03125 85.15625 839.84375 89.0625 c 0
 838.479492188 89.373046875 836.340820312 89.978515625 833.549804688 90.8310546875 c 1
 842.637695312 83.0234375 846.662109375 74.955078125 843.75 67.1875 c 0
 839.0625 54.6875 817.96875 46.875 786.71875 55.46875 c 0
 755.46875 64.0625 703.125 82.8125 674.21875 104.6875 c 0
 662.0078125 113.9296875 651.873046875 124.448242188 644.298828125 133.623046875 c 1
 616.901367188 133.228515625 588.572265625 134.331054688 563.28125 135.9375 c 0
 553.865234375 136.536132812 545.018554688 136.935546875 536.568359375 137.314453125 c 1
 536.762695312 137.236328125 536.953125 137.15625 537.140625 137.078125 c 0
701.095703125 292.5390625 m 1
 744.96875 310.529296875 l 1
 749.956054688 342.923828125 l 2
 750.856445312 348.765625 745.234375 353.255859375 740.1953125 350.1640625 c 0
 733.190429688 345.865234375 726.416015625 340.026367188 720.760742188 332.987304688 c 0
 712.801757812 323.076171875 702.997070312 304.893554688 701.095703125 292.5390625 c 1
839.318359375 343.189453125 m 0
 825.823242188 337.677734375 812.4296875 322.560546875 807.418945312 315.692382812 c 1
 811.676757812 314.245117188 821.376953125 310.854492188 826.127929688 308.859375 c 0
 830.879882812 306.862304688 837.4921875 303.947265625 840.205078125 302.739257812 c 1
 842.403320312 308.4609375 847.370117188 321.5546875 849.653320312 328.159179688 c 0
 852.504882812 336.416015625 856.189453125 350.076171875 839.318359375 343.189453125 c 0
804.986328125 226.005859375 m 0
 805.651367188 228.864257812 803.5234375 231.505859375 800.607421875 231.833984375 c 0
 797.692382812 232.1640625 795.115234375 230.0390625 794.224609375 227.244140625 c 0
 793.120117188 223.771484375 791.3359375 220.65625 789.029296875 218.244140625 c 0
 785.619140625 214.676757812 781.341796875 212.940429688 777.142578125 213.4140625 c 0
 772.942382812 213.888671875 769.162109375 216.536132812 766.6328125 220.771484375 c 0
 764.921875 223.638671875 763.877929688 227.073242188 763.575195312 230.705078125 c 0
 763.330078125 233.627929688 761.291992188 236.275390625 758.376953125 236.604492188 c 0
 755.4609375 236.932617188 752.796875 234.833007812 752.809570312 231.8984375 c 0
 752.837890625 224.556640625 754.658203125 217.5078125 758.059570312 211.807617188 c 0
 762.275390625 204.745117188 768.576171875 200.333984375 775.576171875 199.543945312 c 0
 782.576171875 198.752929688 789.703125 201.6484375 795.387695312 207.591796875 c 0
 799.974609375 212.388671875 803.3203125 218.854492188 804.986328125 226.005859375 c 0
882.676757812 225.583984375 m 0
 879.760742188 225.9140625 877.182617188 223.7890625 876.291992188 220.994140625 c 0
 876.005859375 220.090820312 875.671875 219.208984375 875.291992188 218.354492188 c 0
 874.2109375 215.921875 872.786132812 213.759765625 871.096679688 211.994140625 c 0
 869.408203125 210.228515625 867.489257812 208.892578125 865.450195312 208.064453125 c 0
 863.411132812 207.234375 861.291015625 206.9296875 859.2109375 207.1640625 c 0
 857.130859375 207.3984375 855.1328125 208.169921875 853.330078125 209.432617188 c 0
 851.525390625 210.6953125 849.953125 212.424804688 848.700195312 214.521484375 c 0
 847.448242188 216.620117188 846.541015625 219.044921875 846.029296875 221.659179688 c 0
 845.849609375 222.576171875 845.721679688 223.510742188 845.642578125 224.455078125 c 0
 845.3984375 227.377929688 843.359375 230.025390625 840.443359375 230.354492188 c 0
 837.528320312 230.682617188 834.865234375 228.583007812 834.876953125 225.6484375 c 0
 834.887695312 222.870117188 835.154296875 220.119140625 835.676757812 217.453125 c 0
 836.528320312 213.096679688 838.041015625 209.0546875 840.126953125 205.557617188 c 0
 842.213867188 202.060546875 844.8359375 199.177734375 847.841796875 197.075195312 c 0
 850.846679688 194.970703125 854.177734375 193.685546875 857.643554688 193.293945312 c 0
 861.111328125 192.903320312 864.643554688 193.412109375 868.043945312 194.791992188 c 0
 871.442382812 196.173828125 874.640625 198.400390625 877.455078125 201.341796875 c 0
 880.270507812 204.286132812 882.645507812 207.888671875 884.447265625 211.9453125 c 0
 885.549804688 214.427734375 886.423828125 217.051757812 887.052734375 219.755859375 c 0
 887.71875 222.614257812 885.590820312 225.255859375 882.676757812 225.583984375 c 0
559.916015625 486.341796875 m 1
 597.4765625 542.409179688 l 1
 559.463867188 542.409179688 l 1
 559.463867188 560.0859375 l 1
 622.114257812 560.0859375 l 1
 622.114257812 547.181640625 l 1
 584.5546875 491.114257812 l 1
 622.567382812 491.114257812 l 1
 622.567382812 473.4375 l 1
 559.916015625 473.4375 l 1
 559.916015625 486.341796875 l 1
645.145507812 486.526367188 m 1
 673.614257812 523.090820312 l 1
 646.201171875 523.090820312 l 1
 646.201171875 540.767578125 l 1
 698.892578125 540.767578125 l 1
 698.892578125 527.403320312 l 1
 671.21875 491.114257812 l 1
 699.948242188 491.114257812 l 1
 699.948242188 473.4375 l 1
 645.145507812 473.4375 l 1
 645.145507812 486.526367188 l 1
EndSplineSet
EndChar

StartChar: uniE204
Encoding: 57860 57860 24
Width: 1000
Flags: H
LayerCount: 2
Fore
SplineSet
537.140625 137.078125 m 0
 537.431640625 136.958984375 537.716796875 136.840820312 537.995117188 136.724609375 c 0
 564.416015625 125.740234375 574.435546875 108.478515625 561.682617188 97.494140625 c 0
 550.372070312 87.751953125 542.643554688 86.650390625 526.424804688 84.3359375 c 2
 526.412109375 84.333984375 l 2
 524.346679688 84.0390625 522.142578125 83.724609375 519.775390625 83.3701171875 c 0
 498.822265625 80.232421875 435.051757812 90.4326171875 388.588867188 111.6171875 c 0
 342.127929688 132.801757812 313.885742188 168.893554688 315.708007812 226.171875 c 0
 316.818359375 261.081054688 335.2734375 289.098632812 350.848632812 305.4375 c 0
 350.887695312 305.573242188 350.926757812 305.7109375 350.965820312 305.848632812 c 1
 339.950195312 303.525390625 328.0625 300.427734375 316.294921875 296.168945312 c 0
 291.474609375 287.182617188 270.400390625 274.151367188 258.373046875 255.5390625 c 0
 244.379882812 233.8828125 240.122070312 214.231445312 241.080078125 196.5546875 c 0
 242.059570312 178.494140625 248.598632812 160.779296875 258.826171875 143.732421875 c 0
 264.200195312 134.776367188 275.588867188 124.056640625 290.5078125 115.450195312 c 0
 305.427734375 106.841796875 320.426757812 102.34375 331.25 102.34375 c 0
 345.489257812 102.34375 357.03125 90.8017578125 357.03125 76.5625 c 0
 357.03125 62.3232421875 345.489257812 50.78125 331.25 50.78125 c 0
 308.481445312 50.78125 284.53125 59.3720703125 264.744140625 70.7861328125 c 0
 244.956054688 82.2001953125 225.875 98.4326171875 214.612304688 117.205078125 c 0
 201.401367188 139.220703125 191.150390625 165.052734375 189.59375 193.763671875 c 0
 188.015625 222.861328125 195.4765625 253.208007812 215.065429688 283.5234375 c 0
 235.8515625 315.692382812 269.073242188 333.911132812 298.744140625 344.651367188 c 0
 328.712890625 355.5 358.357421875 359.8828125 375.34375 362.252929688 c 0
 377.802734375 362.595703125 380.228515625 362.580078125 382.568359375 362.245117188 c 0
 400.8046875 381.137695312 426.254882812 394.34375 460.15625 395.3125 c 0
 526.581054688 397.2109375 559.287109375 367.768554688 585.674804688 344.013671875 c 0
 588.154296875 341.783203125 590.578125 339.6015625 592.96875 337.5 c 0
 594.090820312 336.513671875 595.21875 335.521484375 596.348632812 334.526367188 c 2
 596.372070312 334.505859375 l 2
 620.662109375 313.122070312 646.537109375 290.34375 670.348632812 286.1796875 c 1
 682.7890625 317.418945312 705.833984375 361.223632812 738.369140625 380.604492188 c 0
 781.703125 406.419921875 772.416015625 372.6875 763.712890625 341.076171875 c 0
 761.658203125 333.6171875 759.637695312 326.276367188 758.346679688 319.864257812 c 1
 765.512695312 320.926757812 772.747070312 321.369140625 779.973632812 321.115234375 c 0
 788.138671875 332.7421875 801.640625 348.3671875 815.701171875 359.212890625 c 0
 836.376953125 375.159179688 857.994140625 377.205078125 867.794921875 374.114257812 c 0
 875.171875 371.7890625 864.098632812 325.271484375 851.939453125 296.966796875 c 1
 890.630859375 271.596679688 916.637695312 230.046875 911.279296875 189.879882812 c 0
 907.926757812 164.744140625 892.831054688 144.197265625 871.323242188 129.583984375 c 1
 880.515625 126.392578125 888.302734375 123.106445312 891.40625 120.3125 c 0
 899.21875 113.28125 905.46875 104.6875 898.4375 92.96875 c 0
 891.40625 81.25 857.03125 85.15625 839.84375 89.0625 c 0
 838.479492188 89.373046875 836.340820312 89.978515625 833.549804688 90.8310546875 c 1
 842.637695312 83.0234375 846.662109375 74.955078125 843.75 67.1875 c 0
 839.0625 54.6875 817.96875 46.875 786.71875 55.46875 c 0
 755.46875 64.0625 703.125 82.8125 674.21875 104.6875 c 0
 662.0078125 113.9296875 651.873046875 124.448242188 644.298828125 133.623046875 c 1
 616.901367188 133.228515625 588.572265625 134.331054688 563.28125 135.9375 c 0
 553.865234375 136.536132812 545.018554688 136.935546875 536.568359375 137.314453125 c 1
 536.762695312 137.236328125 536.953125 137.15625 537.140625 137.078125 c 0
701.095703125 292.5390625 m 1
 744.96875 310.529296875 l 1
 749.956054688 342.923828125 l 2
 750.856445312 348.765625 745.234375 353.255859375 740.1953125 350.1640625 c 0
 733.190429688 345.865234375 726.416015625 340.026367188 720.760742188 332.987304688 c 0
 712.801757812 323.076171875 702.997070312 304.893554688 701.095703125 292.5390625 c 1
839.318359375 343.189453125 m 0
 825.823242188 337.677734375 812.4296875 322.560546875 807.418945312 315.692382812 c 1
 811.676757812 314.245117188 821.376953125 310.854492188 826.127929688 308.859375 c 0
 830.879882812 306.862304688 837.4921875 303.947265625 840.205078125 302.739257812 c 1
 842.403320312 308.4609375 847.370117188 321.5546875 849.653320312 328.159179688 c 0
 852.504882812 336.416015625 856.189453125 350.076171875 839.318359375 343.189453125 c 0
804.986328125 226.005859375 m 0
 805.651367188 228.864257812 803.5234375 231.505859375 800.607421875 231.833984375 c 0
 797.692382812 232.1640625 795.115234375 230.0390625 794.224609375 227.244140625 c 0
 793.120117188 223.771484375 791.3359375 220.65625 789.029296875 218.244140625 c 0
 785.619140625 214.676757812 781.341796875 212.940429688 777.142578125 213.4140625 c 0
 772.942382812 213.888671875 769.162109375 216.536132812 766.6328125 220.771484375 c 0
 764.921875 223.638671875 763.877929688 227.073242188 763.575195312 230.705078125 c 0
 763.330078125 233.627929688 761.291992188 236.275390625 758.376953125 236.604492188 c 0
 755.4609375 236.932617188 752.796875 234.833007812 752.809570312 231.8984375 c 0
 752.837890625 224.556640625 754.658203125 217.5078125 758.059570312 211.807617188 c 0
 762.275390625 204.745117188 768.576171875 200.333984375 775.576171875 199.543945312 c 0
 782.576171875 198.752929688 789.703125 201.6484375 795.387695312 207.591796875 c 0
 799.974609375 212.388671875 803.3203125 218.854492188 804.986328125 226.005859375 c 0
882.676757812 225.583984375 m 0
 879.760742188 225.9140625 877.182617188 223.7890625 876.291992188 220.994140625 c 0
 876.005859375 220.090820312 875.671875 219.208984375 875.291992188 218.354492188 c 0
 874.2109375 215.921875 872.786132812 213.759765625 871.096679688 211.994140625 c 0
 869.408203125 210.228515625 867.489257812 208.892578125 865.450195312 208.064453125 c 0
 863.411132812 207.234375 861.291015625 206.9296875 859.2109375 207.1640625 c 0
 857.130859375 207.3984375 855.1328125 208.169921875 853.330078125 209.432617188 c 0
 851.525390625 210.6953125 849.953125 212.424804688 848.700195312 214.521484375 c 0
 847.448242188 216.620117188 846.541015625 219.044921875 846.029296875 221.659179688 c 0
 845.849609375 222.576171875 845.721679688 223.510742188 845.642578125 224.455078125 c 0
 845.3984375 227.377929688 843.359375 230.025390625 840.443359375 230.354492188 c 0
 837.528320312 230.682617188 834.865234375 228.583007812 834.876953125 225.6484375 c 0
 834.887695312 222.870117188 835.154296875 220.119140625 835.676757812 217.453125 c 0
 836.528320312 213.096679688 838.041015625 209.0546875 840.126953125 205.557617188 c 0
 842.213867188 202.060546875 844.8359375 199.177734375 847.841796875 197.075195312 c 0
 850.846679688 194.970703125 854.177734375 193.685546875 857.643554688 193.293945312 c 0
 861.111328125 192.903320312 864.643554688 193.412109375 868.043945312 194.791992188 c 0
 871.442382812 196.173828125 874.640625 198.400390625 877.455078125 201.341796875 c 0
 880.270507812 204.286132812 882.645507812 207.888671875 884.447265625 211.9453125 c 0
 885.549804688 214.427734375 886.423828125 217.051757812 887.052734375 219.755859375 c 0
 887.71875 222.614257812 885.590820312 225.255859375 882.676757812 225.583984375 c 0
544.390625 500.502929688 m 1
 582.564453125 557.486328125 l 1
 543.931640625 557.486328125 l 1
 543.931640625 575.284179688 l 1
 607.365234375 575.284179688 l 1
 607.365234375 562.279296875 l 1
 569.193359375 505.296875 l 1
 607.825195312 505.296875 l 1
 607.825195312 487.5 l 1
 544.390625 487.5 l 1
 544.390625 500.502929688 l 1
630.873046875 500.6875 m 1
 659.833007812 537.884765625 l 1
 631.9453125 537.884765625 l 1
 631.9453125 555.681640625 l 1
 685.2734375 555.681640625 l 1
 685.2734375 542.212890625 l 1
 657.122070312 505.296875 l 1
 686.345703125 505.296875 l 1
 686.345703125 487.5 l 1
 630.873046875 487.5 l 1
 630.873046875 500.6875 l 1
EndSplineSet
EndChar

StartChar: uniE205
Encoding: 57861 57861 25
Width: 1000
Flags: H
LayerCount: 2
Fore
SplineSet
537.140625 137.078125 m 0
 537.431640625 136.958984375 537.716796875 136.840820312 537.995117188 136.724609375 c 0
 564.416015625 125.740234375 574.435546875 108.478515625 561.682617188 97.494140625 c 0
 550.372070312 87.751953125 542.643554688 86.650390625 526.424804688 84.3359375 c 2
 526.412109375 84.333984375 l 2
 524.346679688 84.0390625 522.142578125 83.724609375 519.775390625 83.3701171875 c 0
 498.822265625 80.232421875 435.051757812 90.4326171875 388.588867188 111.6171875 c 0
 342.127929688 132.801757812 313.885742188 168.893554688 315.708007812 226.171875 c 0
 316.818359375 261.081054688 335.2734375 289.098632812 350.848632812 305.4375 c 0
 350.887695312 305.573242188 350.926757812 305.7109375 350.965820312 305.848632812 c 1
 339.950195312 303.525390625 328.0625 300.427734375 316.294921875 296.168945312 c 0
 291.474609375 287.182617188 270.400390625 274.151367188 258.373046875 255.5390625 c 0
 244.379882812 233.8828125 240.122070312 214.231445312 241.080078125 196.5546875 c 0
 242.059570312 178.494140625 248.598632812 160.779296875 258.826171875 143.732421875 c 0
 264.200195312 134.776367188 275.588867188 124.056640625 290.5078125 115.450195312 c 0
 305.427734375 106.841796875 320.426757812 102.34375 331.25 102.34375 c 0
 345.489257812 102.34375 357.03125 90.8017578125 357.03125 76.5625 c 0
 357.03125 62.3232421875 345.489257812 50.78125 331.25 50.78125 c 0
 308.481445312 50.78125 284.53125 59.3720703125 264.744140625 70.7861328125 c 0
 244.956054688 82.2001953125 225.875 98.4326171875 214.612304688 117.205078125 c 0
 201.401367188 139.220703125 191.150390625 165.052734375 189.59375 193.763671875 c 0
 188.015625 222.861328125 195.4765625 253.208007812 215.065429688 283.5234375 c 0
 235.8515625 315.692382812 269.073242188 333.911132812 298.744140625 344.651367188 c 0
 328.712890625 355.5 358.357421875 359.8828125 375.34375 362.252929688 c 0
 377.802734375 362.595703125 380.228515625 362.580078125 382.568359375 362.245117188 c 0
 400.8046875 381.137695312 426.254882812 394.34375 460.15625 395.3125 c 0
 526.581054688 397.2109375 559.287109375 367.768554688 585.674804688 344.013671875 c 0
 588.154296875 341.783203125 590.578125 339.6015625 592.96875 337.5 c 0
 594.090820312 336.513671875 595.21875 335.521484375 596.348632812 334.526367188 c 2
 596.372070312 334.505859375 l 2
 620.662109375 313.122070312 646.537109375 290.34375 670.348632812 286.1796875 c 1
 682.7890625 317.418945312 705.833984375 361.223632812 738.369140625 380.604492188 c 0
 781.703125 406.419921875 772.416015625 372.6875 763.712890625 341.076171875 c 0
 761.658203125 333.6171875 759.637695312 326.276367188 758.346679688 319.864257812 c 1
 765.512695312 320.926757812 772.747070312 321.369140625 779.973632812 321.115234375 c 0
 788.138671875 332.7421875 801.640625 348.3671875 815.701171875 359.212890625 c 0
 836.376953125 375.159179688 857.994140625 377.205078125 867.794921875 374.114257812 c 0
 875.171875 371.7890625 864.098632812 325.271484375 851.939453125 296.966796875 c 1
 890.630859375 271.596679688 916.637695312 230.046875 911.279296875 189.879882812 c 0
 907.926757812 164.744140625 892.831054688 144.197265625 871.323242188 129.583984375 c 1
 880.515625 126.392578125 888.302734375 123.106445312 891.40625 120.3125 c 0
 899.21875 113.28125 905.46875 104.6875 898.4375 92.96875 c 0
 891.40625 81.25 857.03125 85.15625 839.84375 89.0625 c 0
 838.479492188 89.373046875 836.340820312 89.978515625 833.549804688 90.8310546875 c 1
 842.637695312 83.0234375 846.662109375 74.955078125 843.75 67.1875 c 0
 839.0625 54.6875 817.96875 46.875 786.71875 55.46875 c 0
 755.46875 64.0625 703.125 82.8125 674.21875 104.6875 c 0
 662.0078125 113.9296875 651.873046875 124.448242188 644.298828125 133.623046875 c 1
 616.901367188 133.228515625 588.572265625 134.331054688 563.28125 135.9375 c 0
 553.865234375 136.536132812 545.018554688 136.935546875 536.568359375 137.314453125 c 1
 536.762695312 137.236328125 536.953125 137.15625 537.140625 137.078125 c 0
701.095703125 292.5390625 m 1
 744.96875 310.529296875 l 1
 749.956054688 342.923828125 l 2
 750.856445312 348.765625 745.234375 353.255859375 740.1953125 350.1640625 c 0
 733.190429688 345.865234375 726.416015625 340.026367188 720.760742188 332.987304688 c 0
 712.801757812 323.076171875 702.997070312 304.893554688 701.095703125 292.5390625 c 1
839.318359375 343.189453125 m 0
 825.823242188 337.677734375 812.4296875 322.560546875 807.418945312 315.692382812 c 1
 811.676757812 314.245117188 821.376953125 310.854492188 826.127929688 308.859375 c 0
 830.879882812 306.862304688 837.4921875 303.947265625 840.205078125 302.739257812 c 1
 842.403320312 308.4609375 847.370117188 321.5546875 849.653320312 328.159179688 c 0
 852.504882812 336.416015625 856.189453125 350.076171875 839.318359375 343.189453125 c 0
804.986328125 226.005859375 m 0
 805.651367188 228.864257812 803.5234375 231.505859375 800.607421875 231.833984375 c 0
 797.692382812 232.1640625 795.115234375 230.0390625 794.224609375 227.244140625 c 0
 793.120117188 223.771484375 791.3359375 220.65625 789.029296875 218.244140625 c 0
 785.619140625 214.676757812 781.341796875 212.940429688 777.142578125 213.4140625 c 0
 772.942382812 213.888671875 769.162109375 216.536132812 766.6328125 220.771484375 c 0
 764.921875 223.638671875 763.877929688 227.073242188 763.575195312 230.705078125 c 0
 763.330078125 233.627929688 761.291992188 236.275390625 758.376953125 236.604492188 c 0
 755.4609375 236.932617188 752.796875 234.833007812 752.809570312 231.8984375 c 0
 752.837890625 224.556640625 754.658203125 217.5078125 758.059570312 211.807617188 c 0
 762.275390625 204.745117188 768.576171875 200.333984375 775.576171875 199.543945312 c 0
 782.576171875 198.752929688 789.703125 201.6484375 795.387695312 207.591796875 c 0
 799.974609375 212.388671875 803.3203125 218.854492188 804.986328125 226.005859375 c 0
882.676757812 225.583984375 m 0
 879.760742188 225.9140625 877.182617188 223.7890625 876.291992188 220.994140625 c 0
 876.005859375 220.090820312 875.671875 219.208984375 875.291992188 218.354492188 c 0
 874.2109375 215.921875 872.786132812 213.759765625 871.096679688 211.994140625 c 0
 869.408203125 210.228515625 867.489257812 208.892578125 865.450195312 208.064453125 c 0
 863.411132812 207.234375 861.291015625 206.9296875 859.2109375 207.1640625 c 0
 857.130859375 207.3984375 855.1328125 208.169921875 853.330078125 209.432617188 c 0
 851.525390625 210.6953125 849.953125 212.424804688 848.700195312 214.521484375 c 0
 847.448242188 216.620117188 846.541015625 219.044921875 846.029296875 221.659179688 c 0
 845.849609375 222.576171875 845.721679688 223.510742188 845.642578125 224.455078125 c 0
 845.3984375 227.377929688 843.359375 230.025390625 840.443359375 230.354492188 c 0
 837.528320312 230.682617188 834.865234375 228.583007812 834.876953125 225.6484375 c 0
 834.887695312 222.870117188 835.154296875 220.119140625 835.676757812 217.453125 c 0
 836.528320312 213.096679688 838.041015625 209.0546875 840.126953125 205.557617188 c 0
 842.213867188 202.060546875 844.8359375 199.177734375 847.841796875 197.075195312 c 0
 850.846679688 194.970703125 854.177734375 193.685546875 857.643554688 193.293945312 c 0
 861.111328125 192.903320312 864.643554688 193.412109375 868.043945312 194.791992188 c 0
 871.442382812 196.173828125 874.640625 198.400390625 877.455078125 201.341796875 c 0
 880.270507812 204.286132812 882.645507812 207.888671875 884.447265625 211.9453125 c 0
 885.549804688 214.427734375 886.423828125 217.051757812 887.052734375 219.755859375 c 0
 887.71875 222.614257812 885.590820312 225.255859375 882.676757812 225.583984375 c 0
528.865234375 514.666992188 m 1
 567.651367188 572.5625 l 1
 528.400390625 572.5625 l 1
 528.400390625 590.482421875 l 1
 592.6171875 590.482421875 l 1
 592.6171875 577.379882812 l 1
 553.833007812 519.482421875 l 1
 593.083984375 519.482421875 l 1
 593.083984375 501.5625 l 1
 528.865234375 501.5625 l 1
 528.865234375 514.666992188 l 1
616.6015625 514.8515625 m 1
 646.051757812 552.676757812 l 1
 617.689453125 552.676757812 l 1
 617.689453125 570.596679688 l 1
 671.653320312 570.596679688 l 1
 671.653320312 557.0234375 l 1
 643.025390625 519.482421875 l 1
 672.740234375 519.482421875 l 1
 672.740234375 501.5625 l 1
 616.6015625 501.5625 l 1
 616.6015625 514.8515625 l 1
EndSplineSet
EndChar

StartChar: uniE206
Encoding: 57862 57862 26
Width: 1000
Flags: H
LayerCount: 2
Fore
SplineSet
537.140625 137.078125 m 0
 537.431640625 136.958984375 537.716796875 136.840820312 537.995117188 136.724609375 c 0
 564.416015625 125.740234375 574.435546875 108.478515625 561.682617188 97.494140625 c 0
 550.372070312 87.751953125 542.643554688 86.650390625 526.424804688 84.3359375 c 2
 526.412109375 84.333984375 l 2
 524.346679688 84.0390625 522.142578125 83.724609375 519.775390625 83.3701171875 c 0
 498.822265625 80.232421875 435.051757812 90.4326171875 388.588867188 111.6171875 c 0
 342.127929688 132.801757812 313.885742188 168.893554688 315.708007812 226.171875 c 0
 316.818359375 261.081054688 335.2734375 289.098632812 350.848632812 305.4375 c 0
 350.887695312 305.573242188 350.926757812 305.7109375 350.965820312 305.848632812 c 1
 339.950195312 303.525390625 328.0625 300.427734375 316.294921875 296.168945312 c 0
 291.474609375 287.182617188 270.400390625 274.151367188 258.373046875 255.5390625 c 0
 244.379882812 233.8828125 240.122070312 214.231445312 241.080078125 196.5546875 c 0
 242.059570312 178.494140625 248.598632812 160.779296875 258.826171875 143.732421875 c 0
 264.200195312 134.776367188 275.588867188 124.056640625 290.5078125 115.450195312 c 0
 305.427734375 106.841796875 320.426757812 102.34375 331.25 102.34375 c 0
 345.489257812 102.34375 357.03125 90.8017578125 357.03125 76.5625 c 0
 357.03125 62.3232421875 345.489257812 50.78125 331.25 50.78125 c 0
 308.481445312 50.78125 284.53125 59.3720703125 264.744140625 70.7861328125 c 0
 244.956054688 82.2001953125 225.875 98.4326171875 214.612304688 117.205078125 c 0
 201.401367188 139.220703125 191.150390625 165.052734375 189.59375 193.763671875 c 0
 188.015625 222.861328125 195.4765625 253.208007812 215.065429688 283.5234375 c 0
 235.8515625 315.692382812 269.073242188 333.911132812 298.744140625 344.651367188 c 0
 328.712890625 355.5 358.357421875 359.8828125 375.34375 362.252929688 c 0
 377.802734375 362.595703125 380.228515625 362.580078125 382.568359375 362.245117188 c 0
 400.8046875 381.137695312 426.254882812 394.34375 460.15625 395.3125 c 0
 526.581054688 397.2109375 559.287109375 367.768554688 585.674804688 344.013671875 c 0
 588.154296875 341.783203125 590.578125 339.6015625 592.96875 337.5 c 0
 594.090820312 336.513671875 595.21875 335.521484375 596.348632812 334.526367188 c 2
 596.372070312 334.505859375 l 2
 620.662109375 313.122070312 646.537109375 290.34375 670.348632812 286.1796875 c 1
 682.7890625 317.418945312 705.833984375 361.223632812 738.369140625 380.604492188 c 0
 781.703125 406.419921875 772.416015625 372.6875 763.712890625 341.076171875 c 0
 761.658203125 333.6171875 759.637695312 326.276367188 758.346679688 319.864257812 c 1
 765.512695312 320.926757812 772.747070312 321.369140625 779.973632812 321.115234375 c 0
 788.138671875 332.7421875 801.640625 348.3671875 815.701171875 359.212890625 c 0
 836.376953125 375.159179688 857.994140625 377.205078125 867.794921875 374.114257812 c 0
 875.171875 371.7890625 864.098632812 325.271484375 851.939453125 296.966796875 c 1
 890.630859375 271.596679688 916.637695312 230.046875 911.279296875 189.879882812 c 0
 907.926757812 164.744140625 892.831054688 144.197265625 871.323242188 129.583984375 c 1
 880.515625 126.392578125 888.302734375 123.106445312 891.40625 120.3125 c 0
 899.21875 113.28125 905.46875 104.6875 898.4375 92.96875 c 0
 891.40625 81.25 857.03125 85.15625 839.84375 89.0625 c 0
 838.479492188 89.373046875 836.340820312 89.978515625 833.549804688 90.8310546875 c 1
 842.637695312 83.0234375 846.662109375 74.955078125 843.75 67.1875 c 0
 839.0625 54.6875 817.96875 46.875 786.71875 55.46875 c 0
 755.46875 64.0625 703.125 82.8125 674.21875 104.6875 c 0
 662.0078125 113.9296875 651.873046875 124.448242188 644.298828125 133.623046875 c 1
 616.901367188 133.228515625 588.572265625 134.331054688 563.28125 135.9375 c 0
 553.865234375 136.536132812 545.018554688 136.935546875 536.568359375 137.314453125 c 1
 536.762695312 137.236328125 536.953125 137.15625 537.140625 137.078125 c 0
701.095703125 292.5390625 m 1
 744.96875 310.529296875 l 1
 749.956054688 342.923828125 l 2
 750.856445312 348.765625 745.234375 353.255859375 740.1953125 350.1640625 c 0
 733.190429688 345.865234375 726.416015625 340.026367188 720.760742188 332.987304688 c 0
 712.801757812 323.076171875 702.997070312 304.893554688 701.095703125 292.5390625 c 1
839.318359375 343.189453125 m 0
 825.823242188 337.677734375 812.4296875 322.560546875 807.418945312 315.692382812 c 1
 811.676757812 314.245117188 821.376953125 310.854492188 826.127929688 308.859375 c 0
 830.879882812 306.862304688 837.4921875 303.947265625 840.205078125 302.739257812 c 1
 842.403320312 308.4609375 847.370117188 321.5546875 849.653320312 328.159179688 c 0
 852.504882812 336.416015625 856.189453125 350.076171875 839.318359375 343.189453125 c 0
804.986328125 226.005859375 m 0
 805.651367188 228.864257812 803.5234375 231.505859375 800.607421875 231.833984375 c 0
 797.692382812 232.1640625 795.115234375 230.0390625 794.224609375 227.244140625 c 0
 793.120117188 223.771484375 791.3359375 220.65625 789.029296875 218.244140625 c 0
 785.619140625 214.676757812 781.341796875 212.940429688 777.142578125 213.4140625 c 0
 772.942382812 213.888671875 769.162109375 216.536132812 766.6328125 220.771484375 c 0
 764.921875 223.638671875 763.877929688 227.073242188 763.575195312 230.705078125 c 0
 763.330078125 233.627929688 761.291992188 236.275390625 758.376953125 236.604492188 c 0
 755.4609375 236.932617188 752.796875 234.833007812 752.809570312 231.8984375 c 0
 752.837890625 224.556640625 754.658203125 217.5078125 758.059570312 211.807617188 c 0
 762.275390625 204.745117188 768.576171875 200.333984375 775.576171875 199.543945312 c 0
 782.576171875 198.752929688 789.703125 201.6484375 795.387695312 207.591796875 c 0
 799.974609375 212.388671875 803.3203125 218.854492188 804.986328125 226.005859375 c 0
882.676757812 225.583984375 m 0
 879.760742188 225.9140625 877.182617188 223.7890625 876.291992188 220.994140625 c 0
 876.005859375 220.090820312 875.671875 219.208984375 875.291992188 218.354492188 c 0
 874.2109375 215.921875 872.786132812 213.759765625 871.096679688 211.994140625 c 0
 869.408203125 210.228515625 867.489257812 208.892578125 865.450195312 208.064453125 c 0
 863.411132812 207.234375 861.291015625 206.9296875 859.2109375 207.1640625 c 0
 857.130859375 207.3984375 855.1328125 208.169921875 853.330078125 209.432617188 c 0
 851.525390625 210.6953125 849.953125 212.424804688 848.700195312 214.521484375 c 0
 847.448242188 216.620117188 846.541015625 219.044921875 846.029296875 221.659179688 c 0
 845.849609375 222.576171875 845.721679688 223.510742188 845.642578125 224.455078125 c 0
 845.3984375 227.377929688 843.359375 230.025390625 840.443359375 230.354492188 c 0
 837.528320312 230.682617188 834.865234375 228.583007812 834.876953125 225.6484375 c 0
 834.887695312 222.870117188 835.154296875 220.119140625 835.676757812 217.453125 c 0
 836.528320312 213.096679688 838.041015625 209.0546875 840.126953125 205.557617188 c 0
 842.213867188 202.060546875 844.8359375 199.177734375 847.841796875 197.075195312 c 0
 850.846679688 194.970703125 854.177734375 193.685546875 857.643554688 193.293945312 c 0
 861.111328125 192.903320312 864.643554688 193.412109375 868.043945312 194.791992188 c 0
 871.442382812 196.173828125 874.640625 198.400390625 877.455078125 201.341796875 c 0
 880.270507812 204.286132812 882.645507812 207.888671875 884.447265625 211.9453125 c 0
 885.549804688 214.427734375 886.423828125 217.051757812 887.052734375 219.755859375 c 0
 887.71875 222.614257812 885.590820312 225.255859375 882.676757812 225.583984375 c 0
513.341796875 528.828125 m 1
 552.739257812 587.638671875 l 1
 512.869140625 587.638671875 l 1
 512.869140625 605.681640625 l 1
 577.870117188 605.681640625 l 1
 577.870117188 592.478515625 l 1
 538.473632812 533.666992188 l 1
 578.34375 533.666992188 l 1
 578.34375 515.625 l 1
 513.341796875 515.625 l 1
 513.341796875 528.828125 l 1
602.331054688 529.012695312 m 1
 632.271484375 567.46875 l 1
 603.434570312 567.46875 l 1
 603.434570312 585.510742188 l 1
 658.036132812 585.510742188 l 1
 658.036132812 571.833984375 l 1
 628.9296875 533.666992188 l 1
 659.138671875 533.666992188 l 1
 659.138671875 515.625 l 1
 602.331054688 515.625 l 1
 602.331054688 529.012695312 l 1
EndSplineSet
EndChar

StartChar: uniE207
Encoding: 57863 57863 27
Width: 1000
Flags: H
LayerCount: 2
Fore
SplineSet
537.140625 137.078125 m 0
 537.431640625 136.958984375 537.716796875 136.840820312 537.995117188 136.724609375 c 0
 564.416015625 125.740234375 574.435546875 108.478515625 561.682617188 97.494140625 c 0
 550.372070312 87.751953125 542.643554688 86.650390625 526.424804688 84.3359375 c 2
 526.412109375 84.333984375 l 2
 524.346679688 84.0390625 522.142578125 83.724609375 519.775390625 83.3701171875 c 0
 498.822265625 80.232421875 435.051757812 90.4326171875 388.588867188 111.6171875 c 0
 342.127929688 132.801757812 313.885742188 168.893554688 315.708007812 226.171875 c 0
 316.818359375 261.081054688 335.2734375 289.098632812 350.848632812 305.4375 c 0
 350.887695312 305.573242188 350.926757812 305.7109375 350.965820312 305.848632812 c 1
 339.950195312 303.525390625 328.0625 300.427734375 316.294921875 296.168945312 c 0
 291.474609375 287.182617188 270.400390625 274.151367188 258.373046875 255.5390625 c 0
 244.379882812 233.8828125 240.122070312 214.231445312 241.080078125 196.5546875 c 0
 242.059570312 178.494140625 248.598632812 160.779296875 258.826171875 143.732421875 c 0
 264.200195312 134.776367188 275.588867188 124.056640625 290.5078125 115.450195312 c 0
 305.427734375 106.841796875 320.426757812 102.34375 331.25 102.34375 c 0
 345.489257812 102.34375 357.03125 90.8017578125 357.03125 76.5625 c 0
 357.03125 62.3232421875 345.489257812 50.78125 331.25 50.78125 c 0
 308.481445312 50.78125 284.53125 59.3720703125 264.744140625 70.7861328125 c 0
 244.956054688 82.2001953125 225.875 98.4326171875 214.612304688 117.205078125 c 0
 201.401367188 139.220703125 191.150390625 165.052734375 189.59375 193.763671875 c 0
 188.015625 222.861328125 195.4765625 253.208007812 215.065429688 283.5234375 c 0
 235.8515625 315.692382812 269.073242188 333.911132812 298.744140625 344.651367188 c 0
 328.712890625 355.5 358.357421875 359.8828125 375.34375 362.252929688 c 0
 377.802734375 362.595703125 380.228515625 362.580078125 382.568359375 362.245117188 c 0
 400.8046875 381.137695312 426.254882812 394.34375 460.15625 395.3125 c 0
 526.581054688 397.2109375 559.287109375 367.768554688 585.674804688 344.013671875 c 0
 588.154296875 341.783203125 590.578125 339.6015625 592.96875 337.5 c 0
 594.090820312 336.513671875 595.21875 335.521484375 596.348632812 334.526367188 c 2
 596.372070312 334.505859375 l 2
 620.662109375 313.122070312 646.537109375 290.34375 670.348632812 286.1796875 c 1
 682.7890625 317.418945312 705.833984375 361.223632812 738.369140625 380.604492188 c 0
 781.703125 406.419921875 772.416015625 372.6875 763.712890625 341.076171875 c 0
 761.658203125 333.6171875 759.637695312 326.276367188 758.346679688 319.864257812 c 1
 765.512695312 320.926757812 772.747070312 321.369140625 779.973632812 321.115234375 c 0
 788.138671875 332.7421875 801.640625 348.3671875 815.701171875 359.212890625 c 0
 836.376953125 375.159179688 857.994140625 377.205078125 867.794921875 374.114257812 c 0
 875.171875 371.7890625 864.098632812 325.271484375 851.939453125 296.966796875 c 1
 890.630859375 271.596679688 916.637695312 230.046875 911.279296875 189.879882812 c 0
 907.926757812 164.744140625 892.831054688 144.197265625 871.323242188 129.583984375 c 1
 880.515625 126.392578125 888.302734375 123.106445312 891.40625 120.3125 c 0
 899.21875 113.28125 905.46875 104.6875 898.4375 92.96875 c 0
 891.40625 81.25 857.03125 85.15625 839.84375 89.0625 c 0
 838.479492188 89.373046875 836.340820312 89.978515625 833.549804688 90.8310546875 c 1
 842.637695312 83.0234375 846.662109375 74.955078125 843.75 67.1875 c 0
 839.0625 54.6875 817.96875 46.875 786.71875 55.46875 c 0
 755.46875 64.0625 703.125 82.8125 674.21875 104.6875 c 0
 662.0078125 113.9296875 651.873046875 124.448242188 644.298828125 133.623046875 c 1
 616.901367188 133.228515625 588.572265625 134.331054688 563.28125 135.9375 c 0
 553.865234375 136.536132812 545.018554688 136.935546875 536.568359375 137.314453125 c 1
 536.762695312 137.236328125 536.953125 137.15625 537.140625 137.078125 c 0
701.095703125 292.5390625 m 1
 744.96875 310.529296875 l 1
 749.956054688 342.923828125 l 2
 750.856445312 348.765625 745.234375 353.255859375 740.1953125 350.1640625 c 0
 733.190429688 345.865234375 726.416015625 340.026367188 720.760742188 332.987304688 c 0
 712.801757812 323.076171875 702.997070312 304.893554688 701.095703125 292.5390625 c 1
839.318359375 343.189453125 m 0
 825.823242188 337.677734375 812.4296875 322.560546875 807.418945312 315.692382812 c 1
 811.676757812 314.245117188 821.376953125 310.854492188 826.127929688 308.859375 c 0
 830.879882812 306.862304688 837.4921875 303.947265625 840.205078125 302.739257812 c 1
 842.403320312 308.4609375 847.370117188 321.5546875 849.653320312 328.159179688 c 0
 852.504882812 336.416015625 856.189453125 350.076171875 839.318359375 343.189453125 c 0
804.986328125 226.005859375 m 0
 805.651367188 228.864257812 803.5234375 231.505859375 800.607421875 231.833984375 c 0
 797.692382812 232.1640625 795.115234375 230.0390625 794.224609375 227.244140625 c 0
 793.120117188 223.771484375 791.3359375 220.65625 789.029296875 218.244140625 c 0
 785.619140625 214.676757812 781.341796875 212.940429688 777.142578125 213.4140625 c 0
 772.942382812 213.888671875 769.162109375 216.536132812 766.6328125 220.771484375 c 0
 764.921875 223.638671875 763.877929688 227.073242188 763.575195312 230.705078125 c 0
 763.330078125 233.627929688 761.291992188 236.275390625 758.376953125 236.604492188 c 0
 755.4609375 236.932617188 752.796875 234.833007812 752.809570312 231.8984375 c 0
 752.837890625 224.556640625 754.658203125 217.5078125 758.059570312 211.807617188 c 0
 762.275390625 204.745117188 768.576171875 200.333984375 775.576171875 199.543945312 c 0
 782.576171875 198.752929688 789.703125 201.6484375 795.387695312 207.591796875 c 0
 799.974609375 212.388671875 803.3203125 218.854492188 804.986328125 226.005859375 c 0
882.676757812 225.583984375 m 0
 879.760742188 225.9140625 877.182617188 223.7890625 876.291992188 220.994140625 c 0
 876.005859375 220.090820312 875.671875 219.208984375 875.291992188 218.354492188 c 0
 874.2109375 215.921875 872.786132812 213.759765625 871.096679688 211.994140625 c 0
 869.408203125 210.228515625 867.489257812 208.892578125 865.450195312 208.064453125 c 0
 863.411132812 207.234375 861.291015625 206.9296875 859.2109375 207.1640625 c 0
 857.130859375 207.3984375 855.1328125 208.169921875 853.330078125 209.432617188 c 0
 851.525390625 210.6953125 849.953125 212.424804688 848.700195312 214.521484375 c 0
 847.448242188 216.620117188 846.541015625 219.044921875 846.029296875 221.659179688 c 0
 845.849609375 222.576171875 845.721679688 223.510742188 845.642578125 224.455078125 c 0
 845.3984375 227.377929688 843.359375 230.025390625 840.443359375 230.354492188 c 0
 837.528320312 230.682617188 834.865234375 228.583007812 834.876953125 225.6484375 c 0
 834.887695312 222.870117188 835.154296875 220.119140625 835.676757812 217.453125 c 0
 836.528320312 213.096679688 838.041015625 209.0546875 840.126953125 205.557617188 c 0
 842.213867188 202.060546875 844.8359375 199.177734375 847.841796875 197.075195312 c 0
 850.846679688 194.970703125 854.177734375 193.685546875 857.643554688 193.293945312 c 0
 861.111328125 192.903320312 864.643554688 193.412109375 868.043945312 194.791992188 c 0
 871.442382812 196.173828125 874.640625 198.400390625 877.455078125 201.341796875 c 0
 880.270507812 204.286132812 882.645507812 207.888671875 884.447265625 211.9453125 c 0
 885.549804688 214.427734375 886.423828125 217.051757812 887.052734375 219.755859375 c 0
 887.71875 222.614257812 885.590820312 225.255859375 882.676757812 225.583984375 c 0
497.815429688 542.990234375 m 1
 537.825195312 602.716796875 l 1
 497.3359375 602.716796875 l 1
 497.3359375 620.880859375 l 1
 563.120117188 620.880859375 l 1
 563.120117188 607.578125 l 1
 523.111328125 547.8515625 l 1
 563.599609375 547.8515625 l 1
 563.599609375 529.6875 l 1
 497.815429688 529.6875 l 1
 497.815429688 542.990234375 l 1
588.057617188 543.176757812 m 1
 618.489257812 582.262695312 l 1
 589.176757812 582.262695312 l 1
 589.176757812 600.426757812 l 1
 644.4140625 600.426757812 l 1
 644.4140625 586.645507812 l 1
 614.831054688 547.8515625 l 1
 645.533203125 547.8515625 l 1
 645.533203125 529.6875 l 1
 588.057617188 529.6875 l 1
 588.057617188 543.176757812 l 1
EndSplineSet
EndChar

StartChar: uniE208
Encoding: 57864 57864 28
Width: 1000
Flags: H
LayerCount: 2
Fore
SplineSet
537.140625 137.078125 m 0
 537.431640625 136.958984375 537.716796875 136.840820312 537.995117188 136.724609375 c 0
 564.416015625 125.740234375 574.435546875 108.478515625 561.682617188 97.494140625 c 0
 550.372070312 87.751953125 542.643554688 86.650390625 526.424804688 84.3359375 c 2
 526.412109375 84.333984375 l 2
 524.346679688 84.0390625 522.142578125 83.724609375 519.775390625 83.3701171875 c 0
 498.822265625 80.232421875 435.051757812 90.4326171875 388.588867188 111.6171875 c 0
 342.127929688 132.801757812 313.885742188 168.893554688 315.708007812 226.171875 c 0
 316.818359375 261.081054688 335.2734375 289.098632812 350.848632812 305.4375 c 0
 350.887695312 305.573242188 350.926757812 305.7109375 350.965820312 305.848632812 c 1
 339.950195312 303.525390625 328.0625 300.427734375 316.294921875 296.168945312 c 0
 291.474609375 287.182617188 270.400390625 274.151367188 258.373046875 255.5390625 c 0
 244.379882812 233.8828125 240.122070312 214.231445312 241.080078125 196.5546875 c 0
 242.059570312 178.494140625 248.598632812 160.779296875 258.826171875 143.732421875 c 0
 264.200195312 134.776367188 275.588867188 124.056640625 290.5078125 115.450195312 c 0
 305.427734375 106.841796875 320.426757812 102.34375 331.25 102.34375 c 0
 345.489257812 102.34375 357.03125 90.8017578125 357.03125 76.5625 c 0
 357.03125 62.3232421875 345.489257812 50.78125 331.25 50.78125 c 0
 308.481445312 50.78125 284.53125 59.3720703125 264.744140625 70.7861328125 c 0
 244.956054688 82.2001953125 225.875 98.4326171875 214.612304688 117.205078125 c 0
 201.401367188 139.220703125 191.150390625 165.052734375 189.59375 193.763671875 c 0
 188.015625 222.861328125 195.4765625 253.208007812 215.065429688 283.5234375 c 0
 235.8515625 315.692382812 269.073242188 333.911132812 298.744140625 344.651367188 c 0
 328.712890625 355.5 358.357421875 359.8828125 375.34375 362.252929688 c 0
 377.802734375 362.595703125 380.228515625 362.580078125 382.568359375 362.245117188 c 0
 400.8046875 381.137695312 426.254882812 394.34375 460.15625 395.3125 c 0
 526.581054688 397.2109375 559.287109375 367.768554688 585.674804688 344.013671875 c 0
 588.154296875 341.783203125 590.578125 339.6015625 592.96875 337.5 c 0
 594.090820312 336.513671875 595.21875 335.521484375 596.348632812 334.526367188 c 2
 596.372070312 334.505859375 l 2
 620.662109375 313.122070312 646.537109375 290.34375 670.348632812 286.1796875 c 1
 682.7890625 317.418945312 705.833984375 361.223632812 738.369140625 380.604492188 c 0
 781.703125 406.419921875 772.416015625 372.6875 763.712890625 341.076171875 c 0
 761.658203125 333.6171875 759.637695312 326.276367188 758.346679688 319.864257812 c 1
 765.512695312 320.926757812 772.747070312 321.369140625 779.973632812 321.115234375 c 0
 788.138671875 332.7421875 801.640625 348.3671875 815.701171875 359.212890625 c 0
 836.376953125 375.159179688 857.994140625 377.205078125 867.794921875 374.114257812 c 0
 875.171875 371.7890625 864.098632812 325.271484375 851.939453125 296.966796875 c 1
 890.630859375 271.596679688 916.637695312 230.046875 911.279296875 189.879882812 c 0
 907.926757812 164.744140625 892.831054688 144.197265625 871.323242188 129.583984375 c 1
 880.515625 126.392578125 888.302734375 123.106445312 891.40625 120.3125 c 0
 899.21875 113.28125 905.46875 104.6875 898.4375 92.96875 c 0
 891.40625 81.25 857.03125 85.15625 839.84375 89.0625 c 0
 838.479492188 89.373046875 836.340820312 89.978515625 833.549804688 90.8310546875 c 1
 842.637695312 83.0234375 846.662109375 74.955078125 843.75 67.1875 c 0
 839.0625 54.6875 817.96875 46.875 786.71875 55.46875 c 0
 755.46875 64.0625 703.125 82.8125 674.21875 104.6875 c 0
 662.0078125 113.9296875 651.873046875 124.448242188 644.298828125 133.623046875 c 1
 616.901367188 133.228515625 588.572265625 134.331054688 563.28125 135.9375 c 0
 553.865234375 136.536132812 545.018554688 136.935546875 536.568359375 137.314453125 c 1
 536.762695312 137.236328125 536.953125 137.15625 537.140625 137.078125 c 0
701.095703125 292.5390625 m 1
 744.96875 310.529296875 l 1
 749.956054688 342.923828125 l 2
 750.856445312 348.765625 745.234375 353.255859375 740.1953125 350.1640625 c 0
 733.190429688 345.865234375 726.416015625 340.026367188 720.760742188 332.987304688 c 0
 712.801757812 323.076171875 702.997070312 304.893554688 701.095703125 292.5390625 c 1
839.318359375 343.189453125 m 0
 825.823242188 337.677734375 812.4296875 322.560546875 807.418945312 315.692382812 c 1
 811.676757812 314.245117188 821.376953125 310.854492188 826.127929688 308.859375 c 0
 830.879882812 306.862304688 837.4921875 303.947265625 840.205078125 302.739257812 c 1
 842.403320312 308.4609375 847.370117188 321.5546875 849.653320312 328.159179688 c 0
 852.504882812 336.416015625 856.189453125 350.076171875 839.318359375 343.189453125 c 0
804.986328125 226.005859375 m 0
 805.651367188 228.864257812 803.5234375 231.505859375 800.607421875 231.833984375 c 0
 797.692382812 232.1640625 795.115234375 230.0390625 794.224609375 227.244140625 c 0
 793.120117188 223.771484375 791.3359375 220.65625 789.029296875 218.244140625 c 0
 785.619140625 214.676757812 781.341796875 212.940429688 777.142578125 213.4140625 c 0
 772.942382812 213.888671875 769.162109375 216.536132812 766.6328125 220.771484375 c 0
 764.921875 223.638671875 763.877929688 227.073242188 763.575195312 230.705078125 c 0
 763.330078125 233.627929688 761.291992188 236.275390625 758.376953125 236.604492188 c 0
 755.4609375 236.932617188 752.796875 234.833007812 752.809570312 231.8984375 c 0
 752.837890625 224.556640625 754.658203125 217.5078125 758.059570312 211.807617188 c 0
 762.275390625 204.745117188 768.576171875 200.333984375 775.576171875 199.543945312 c 0
 782.576171875 198.752929688 789.703125 201.6484375 795.387695312 207.591796875 c 0
 799.974609375 212.388671875 803.3203125 218.854492188 804.986328125 226.005859375 c 0
882.676757812 225.583984375 m 0
 879.760742188 225.9140625 877.182617188 223.7890625 876.291992188 220.994140625 c 0
 876.005859375 220.090820312 875.671875 219.208984375 875.291992188 218.354492188 c 0
 874.2109375 215.921875 872.786132812 213.759765625 871.096679688 211.994140625 c 0
 869.408203125 210.228515625 867.489257812 208.892578125 865.450195312 208.064453125 c 0
 863.411132812 207.234375 861.291015625 206.9296875 859.2109375 207.1640625 c 0
 857.130859375 207.3984375 855.1328125 208.169921875 853.330078125 209.432617188 c 0
 851.525390625 210.6953125 849.953125 212.424804688 848.700195312 214.521484375 c 0
 847.448242188 216.620117188 846.541015625 219.044921875 846.029296875 221.659179688 c 0
 845.849609375 222.576171875 845.721679688 223.510742188 845.642578125 224.455078125 c 0
 845.3984375 227.377929688 843.359375 230.025390625 840.443359375 230.354492188 c 0
 837.528320312 230.682617188 834.865234375 228.583007812 834.876953125 225.6484375 c 0
 834.887695312 222.870117188 835.154296875 220.119140625 835.676757812 217.453125 c 0
 836.528320312 213.096679688 838.041015625 209.0546875 840.126953125 205.557617188 c 0
 842.213867188 202.060546875 844.8359375 199.177734375 847.841796875 197.075195312 c 0
 850.846679688 194.970703125 854.177734375 193.685546875 857.643554688 193.293945312 c 0
 861.111328125 192.903320312 864.643554688 193.412109375 868.043945312 194.791992188 c 0
 871.442382812 196.173828125 874.640625 198.400390625 877.455078125 201.341796875 c 0
 880.270507812 204.286132812 882.645507812 207.888671875 884.447265625 211.9453125 c 0
 885.549804688 214.427734375 886.423828125 217.051757812 887.052734375 219.755859375 c 0
 887.71875 222.614257812 885.590820312 225.255859375 882.676757812 225.583984375 c 0
482.291992188 557.153320312 m 1
 522.9140625 617.793945312 l 1
 481.8046875 617.793945312 l 1
 481.8046875 636.080078125 l 1
 548.373046875 636.080078125 l 1
 548.373046875 622.676757812 l 1
 507.75 562.036132812 l 1
 548.859375 562.036132812 l 1
 548.859375 543.75 l 1
 482.291992188 543.75 l 1
 482.291992188 557.153320312 l 1
573.787109375 557.337890625 m 1
 604.708984375 597.0546875 l 1
 574.921875 597.0546875 l 1
 574.921875 615.340820312 l 1
 630.796875 615.340820312 l 1
 630.796875 601.455078125 l 1
 600.736328125 562.036132812 l 1
 631.931640625 562.036132812 l 1
 631.931640625 543.75 l 1
 573.787109375 543.75 l 1
 573.787109375 557.337890625 l 1
EndSplineSet
EndChar

StartChar: uniE209
Encoding: 57865 57865 29
Width: 1000
Flags: H
LayerCount: 2
Fore
SplineSet
537.140625 137.078125 m 0
 537.431640625 136.958984375 537.716796875 136.840820312 537.995117188 136.724609375 c 0
 564.416015625 125.740234375 574.435546875 108.478515625 561.682617188 97.494140625 c 0
 550.372070312 87.751953125 542.643554688 86.650390625 526.424804688 84.3359375 c 2
 526.412109375 84.333984375 l 2
 524.346679688 84.0390625 522.142578125 83.724609375 519.775390625 83.3701171875 c 0
 498.822265625 80.232421875 435.051757812 90.4326171875 388.588867188 111.6171875 c 0
 342.127929688 132.801757812 313.885742188 168.893554688 315.708007812 226.171875 c 0
 316.818359375 261.081054688 335.2734375 289.098632812 350.848632812 305.4375 c 0
 350.887695312 305.573242188 350.926757812 305.7109375 350.965820312 305.848632812 c 1
 339.950195312 303.525390625 328.0625 300.427734375 316.294921875 296.168945312 c 0
 291.474609375 287.182617188 270.400390625 274.151367188 258.373046875 255.5390625 c 0
 244.379882812 233.8828125 240.122070312 214.231445312 241.080078125 196.5546875 c 0
 242.059570312 178.494140625 248.598632812 160.779296875 258.826171875 143.732421875 c 0
 264.200195312 134.776367188 275.588867188 124.056640625 290.5078125 115.450195312 c 0
 305.427734375 106.841796875 320.426757812 102.34375 331.25 102.34375 c 0
 345.489257812 102.34375 357.03125 90.8017578125 357.03125 76.5625 c 0
 357.03125 62.3232421875 345.489257812 50.78125 331.25 50.78125 c 0
 308.481445312 50.78125 284.53125 59.3720703125 264.744140625 70.7861328125 c 0
 244.956054688 82.2001953125 225.875 98.4326171875 214.612304688 117.205078125 c 0
 201.401367188 139.220703125 191.150390625 165.052734375 189.59375 193.763671875 c 0
 188.015625 222.861328125 195.4765625 253.208007812 215.065429688 283.5234375 c 0
 235.8515625 315.692382812 269.073242188 333.911132812 298.744140625 344.651367188 c 0
 328.712890625 355.5 358.357421875 359.8828125 375.34375 362.252929688 c 0
 377.802734375 362.595703125 380.228515625 362.580078125 382.568359375 362.245117188 c 0
 400.8046875 381.137695312 426.254882812 394.34375 460.15625 395.3125 c 0
 526.581054688 397.2109375 559.287109375 367.768554688 585.674804688 344.013671875 c 0
 588.154296875 341.783203125 590.578125 339.6015625 592.96875 337.5 c 0
 594.090820312 336.513671875 595.21875 335.521484375 596.348632812 334.526367188 c 2
 596.372070312 334.505859375 l 2
 620.662109375 313.122070312 646.537109375 290.34375 670.348632812 286.1796875 c 1
 682.7890625 317.418945312 705.833984375 361.223632812 738.369140625 380.604492188 c 0
 781.703125 406.419921875 772.416015625 372.6875 763.712890625 341.076171875 c 0
 761.658203125 333.6171875 759.637695312 326.276367188 758.346679688 319.864257812 c 1
 765.512695312 320.926757812 772.747070312 321.369140625 779.973632812 321.115234375 c 0
 788.138671875 332.7421875 801.640625 348.3671875 815.701171875 359.212890625 c 0
 836.376953125 375.159179688 857.994140625 377.205078125 867.794921875 374.114257812 c 0
 875.171875 371.7890625 864.098632812 325.271484375 851.939453125 296.966796875 c 1
 890.630859375 271.596679688 916.637695312 230.046875 911.279296875 189.879882812 c 0
 907.926757812 164.744140625 892.831054688 144.197265625 871.323242188 129.583984375 c 1
 880.515625 126.392578125 888.302734375 123.106445312 891.40625 120.3125 c 0
 899.21875 113.28125 905.46875 104.6875 898.4375 92.96875 c 0
 891.40625 81.25 857.03125 85.15625 839.84375 89.0625 c 0
 838.479492188 89.373046875 836.340820312 89.978515625 833.549804688 90.8310546875 c 1
 842.637695312 83.0234375 846.662109375 74.955078125 843.75 67.1875 c 0
 839.0625 54.6875 817.96875 46.875 786.71875 55.46875 c 0
 755.46875 64.0625 703.125 82.8125 674.21875 104.6875 c 0
 662.0078125 113.9296875 651.873046875 124.448242188 644.298828125 133.623046875 c 1
 616.901367188 133.228515625 588.572265625 134.331054688 563.28125 135.9375 c 0
 553.865234375 136.536132812 545.018554688 136.935546875 536.568359375 137.314453125 c 1
 536.762695312 137.236328125 536.953125 137.15625 537.140625 137.078125 c 0
701.095703125 292.5390625 m 1
 744.96875 310.529296875 l 1
 749.956054688 342.923828125 l 2
 750.856445312 348.765625 745.234375 353.255859375 740.1953125 350.1640625 c 0
 733.190429688 345.865234375 726.416015625 340.026367188 720.760742188 332.987304688 c 0
 712.801757812 323.076171875 702.997070312 304.893554688 701.095703125 292.5390625 c 1
839.318359375 343.189453125 m 0
 825.823242188 337.677734375 812.4296875 322.560546875 807.418945312 315.692382812 c 1
 811.676757812 314.245117188 821.376953125 310.854492188 826.127929688 308.859375 c 0
 830.879882812 306.862304688 837.4921875 303.947265625 840.205078125 302.739257812 c 1
 842.403320312 308.4609375 847.370117188 321.5546875 849.653320312 328.159179688 c 0
 852.504882812 336.416015625 856.189453125 350.076171875 839.318359375 343.189453125 c 0
804.986328125 226.005859375 m 0
 805.651367188 228.864257812 803.5234375 231.505859375 800.607421875 231.833984375 c 0
 797.692382812 232.1640625 795.115234375 230.0390625 794.224609375 227.244140625 c 0
 793.120117188 223.771484375 791.3359375 220.65625 789.029296875 218.244140625 c 0
 785.619140625 214.676757812 781.341796875 212.940429688 777.142578125 213.4140625 c 0
 772.942382812 213.888671875 769.162109375 216.536132812 766.6328125 220.771484375 c 0
 764.921875 223.638671875 763.877929688 227.073242188 763.575195312 230.705078125 c 0
 763.330078125 233.627929688 761.291992188 236.275390625 758.376953125 236.604492188 c 0
 755.4609375 236.932617188 752.796875 234.833007812 752.809570312 231.8984375 c 0
 752.837890625 224.556640625 754.658203125 217.5078125 758.059570312 211.807617188 c 0
 762.275390625 204.745117188 768.576171875 200.333984375 775.576171875 199.543945312 c 0
 782.576171875 198.752929688 789.703125 201.6484375 795.387695312 207.591796875 c 0
 799.974609375 212.388671875 803.3203125 218.854492188 804.986328125 226.005859375 c 0
882.676757812 225.583984375 m 0
 879.760742188 225.9140625 877.182617188 223.7890625 876.291992188 220.994140625 c 0
 876.005859375 220.090820312 875.671875 219.208984375 875.291992188 218.354492188 c 0
 874.2109375 215.921875 872.786132812 213.759765625 871.096679688 211.994140625 c 0
 869.408203125 210.228515625 867.489257812 208.892578125 865.450195312 208.064453125 c 0
 863.411132812 207.234375 861.291015625 206.9296875 859.2109375 207.1640625 c 0
 857.130859375 207.3984375 855.1328125 208.169921875 853.330078125 209.432617188 c 0
 851.525390625 210.6953125 849.953125 212.424804688 848.700195312 214.521484375 c 0
 847.448242188 216.620117188 846.541015625 219.044921875 846.029296875 221.659179688 c 0
 845.849609375 222.576171875 845.721679688 223.510742188 845.642578125 224.455078125 c 0
 845.3984375 227.377929688 843.359375 230.025390625 840.443359375 230.354492188 c 0
 837.528320312 230.682617188 834.865234375 228.583007812 834.876953125 225.6484375 c 0
 834.887695312 222.870117188 835.154296875 220.119140625 835.676757812 217.453125 c 0
 836.528320312 213.096679688 838.041015625 209.0546875 840.126953125 205.557617188 c 0
 842.213867188 202.060546875 844.8359375 199.177734375 847.841796875 197.075195312 c 0
 850.846679688 194.970703125 854.177734375 193.685546875 857.643554688 193.293945312 c 0
 861.111328125 192.903320312 864.643554688 193.412109375 868.043945312 194.791992188 c 0
 871.442382812 196.173828125 874.640625 198.400390625 877.455078125 201.341796875 c 0
 880.270507812 204.286132812 882.645507812 207.888671875 884.447265625 211.9453125 c 0
 885.549804688 214.427734375 886.423828125 217.051757812 887.052734375 219.755859375 c 0
 887.71875 222.614257812 885.590820312 225.255859375 882.676757812 225.583984375 c 0
466.763671875 571.315429688 m 1
 508 632.870117188 l 1
 466.271484375 632.870117188 l 1
 466.271484375 651.278320312 l 1
 533.623046875 651.278320312 l 1
 533.623046875 637.775390625 l 1
 492.387695312 576.220703125 l 1
 534.1171875 576.220703125 l 1
 534.1171875 557.8125 l 1
 466.763671875 557.8125 l 1
 466.763671875 571.315429688 l 1
559.513671875 571.5 m 1
 590.927734375 611.848632812 l 1
 560.6640625 611.848632812 l 1
 560.6640625 630.255859375 l 1
 617.176757812 630.255859375 l 1
 617.176757812 616.265625 l 1
 586.637695312 576.220703125 l 1
 618.325195312 576.220703125 l 1
 618.325195312 557.8125 l 1
 559.513671875 557.8125 l 1
 559.513671875 571.5 l 1
EndSplineSet
EndChar

StartChar: uniE20A
Encoding: 57866 57866 30
Width: 1000
Flags: H
LayerCount: 2
Fore
SplineSet
537.140625 137.078125 m 0
 537.431640625 136.958984375 537.716796875 136.840820312 537.995117188 136.724609375 c 0
 564.416015625 125.740234375 574.435546875 108.478515625 561.682617188 97.494140625 c 0
 550.372070312 87.751953125 542.643554688 86.650390625 526.424804688 84.3359375 c 2
 526.412109375 84.333984375 l 2
 524.346679688 84.0390625 522.142578125 83.724609375 519.775390625 83.3701171875 c 0
 498.822265625 80.232421875 435.051757812 90.4326171875 388.588867188 111.6171875 c 0
 342.127929688 132.801757812 313.885742188 168.893554688 315.708007812 226.171875 c 0
 316.818359375 261.081054688 335.2734375 289.098632812 350.848632812 305.4375 c 0
 350.887695312 305.573242188 350.926757812 305.7109375 350.965820312 305.848632812 c 1
 339.950195312 303.525390625 328.0625 300.427734375 316.294921875 296.168945312 c 0
 291.474609375 287.182617188 270.400390625 274.151367188 258.373046875 255.5390625 c 0
 244.379882812 233.8828125 240.122070312 214.231445312 241.080078125 196.5546875 c 0
 242.059570312 178.494140625 248.598632812 160.779296875 258.826171875 143.732421875 c 0
 264.200195312 134.776367188 275.588867188 124.056640625 290.5078125 115.450195312 c 0
 305.427734375 106.841796875 320.426757812 102.34375 331.25 102.34375 c 0
 345.489257812 102.34375 357.03125 90.8017578125 357.03125 76.5625 c 0
 357.03125 62.3232421875 345.489257812 50.78125 331.25 50.78125 c 0
 308.481445312 50.78125 284.53125 59.3720703125 264.744140625 70.7861328125 c 0
 244.956054688 82.2001953125 225.875 98.4326171875 214.612304688 117.205078125 c 0
 201.401367188 139.220703125 191.150390625 165.052734375 189.59375 193.763671875 c 0
 188.015625 222.861328125 195.4765625 253.208007812 215.065429688 283.5234375 c 0
 235.8515625 315.692382812 269.073242188 333.911132812 298.744140625 344.651367188 c 0
 328.712890625 355.5 358.357421875 359.8828125 375.34375 362.252929688 c 0
 377.802734375 362.595703125 380.228515625 362.580078125 382.568359375 362.245117188 c 0
 400.8046875 381.137695312 426.254882812 394.34375 460.15625 395.3125 c 0
 526.581054688 397.2109375 559.287109375 367.768554688 585.674804688 344.013671875 c 0
 588.154296875 341.783203125 590.578125 339.6015625 592.96875 337.5 c 0
 594.090820312 336.513671875 595.21875 335.521484375 596.348632812 334.526367188 c 2
 596.372070312 334.505859375 l 2
 620.662109375 313.122070312 646.537109375 290.34375 670.348632812 286.1796875 c 1
 682.7890625 317.418945312 705.833984375 361.223632812 738.369140625 380.604492188 c 0
 781.703125 406.419921875 772.416015625 372.6875 763.712890625 341.076171875 c 0
 761.658203125 333.6171875 759.637695312 326.276367188 758.346679688 319.864257812 c 1
 765.512695312 320.926757812 772.747070312 321.369140625 779.973632812 321.115234375 c 0
 788.138671875 332.7421875 801.640625 348.3671875 815.701171875 359.212890625 c 0
 836.376953125 375.159179688 857.994140625 377.205078125 867.794921875 374.114257812 c 0
 875.171875 371.7890625 864.098632812 325.271484375 851.939453125 296.966796875 c 1
 890.630859375 271.596679688 916.637695312 230.046875 911.279296875 189.879882812 c 0
 907.926757812 164.744140625 892.831054688 144.197265625 871.323242188 129.583984375 c 1
 880.515625 126.392578125 888.302734375 123.106445312 891.40625 120.3125 c 0
 899.21875 113.28125 905.46875 104.6875 898.4375 92.96875 c 0
 891.40625 81.25 857.03125 85.15625 839.84375 89.0625 c 0
 838.479492188 89.373046875 836.340820312 89.978515625 833.549804688 90.8310546875 c 1
 842.637695312 83.0234375 846.662109375 74.955078125 843.75 67.1875 c 0
 839.0625 54.6875 817.96875 46.875 786.71875 55.46875 c 0
 755.46875 64.0625 703.125 82.8125 674.21875 104.6875 c 0
 662.0078125 113.9296875 651.873046875 124.448242188 644.298828125 133.623046875 c 1
 616.901367188 133.228515625 588.572265625 134.331054688 563.28125 135.9375 c 0
 553.865234375 136.536132812 545.018554688 136.935546875 536.568359375 137.314453125 c 1
 536.762695312 137.236328125 536.953125 137.15625 537.140625 137.078125 c 0
701.095703125 292.5390625 m 1
 744.96875 310.529296875 l 1
 749.956054688 342.923828125 l 2
 750.856445312 348.765625 745.234375 353.255859375 740.1953125 350.1640625 c 0
 733.190429688 345.865234375 726.416015625 340.026367188 720.760742188 332.987304688 c 0
 712.801757812 323.076171875 702.997070312 304.893554688 701.095703125 292.5390625 c 1
839.318359375 343.189453125 m 0
 825.823242188 337.677734375 812.4296875 322.560546875 807.418945312 315.692382812 c 1
 811.676757812 314.245117188 821.376953125 310.854492188 826.127929688 308.859375 c 0
 830.879882812 306.862304688 837.4921875 303.947265625 840.205078125 302.739257812 c 1
 842.403320312 308.4609375 847.370117188 321.5546875 849.653320312 328.159179688 c 0
 852.504882812 336.416015625 856.189453125 350.076171875 839.318359375 343.189453125 c 0
804.986328125 226.005859375 m 0
 805.651367188 228.864257812 803.5234375 231.505859375 800.607421875 231.833984375 c 0
 797.692382812 232.1640625 795.115234375 230.0390625 794.224609375 227.244140625 c 0
 793.120117188 223.771484375 791.3359375 220.65625 789.029296875 218.244140625 c 0
 785.619140625 214.676757812 781.341796875 212.940429688 777.142578125 213.4140625 c 0
 772.942382812 213.888671875 769.162109375 216.536132812 766.6328125 220.771484375 c 0
 764.921875 223.638671875 763.877929688 227.073242188 763.575195312 230.705078125 c 0
 763.330078125 233.627929688 761.291992188 236.275390625 758.376953125 236.604492188 c 0
 755.4609375 236.932617188 752.796875 234.833007812 752.809570312 231.8984375 c 0
 752.837890625 224.556640625 754.658203125 217.5078125 758.059570312 211.807617188 c 0
 762.275390625 204.745117188 768.576171875 200.333984375 775.576171875 199.543945312 c 0
 782.576171875 198.752929688 789.703125 201.6484375 795.387695312 207.591796875 c 0
 799.974609375 212.388671875 803.3203125 218.854492188 804.986328125 226.005859375 c 0
882.676757812 225.583984375 m 0
 879.760742188 225.9140625 877.182617188 223.7890625 876.291992188 220.994140625 c 0
 876.005859375 220.090820312 875.671875 219.208984375 875.291992188 218.354492188 c 0
 874.2109375 215.921875 872.786132812 213.759765625 871.096679688 211.994140625 c 0
 869.408203125 210.228515625 867.489257812 208.892578125 865.450195312 208.064453125 c 0
 863.411132812 207.234375 861.291015625 206.9296875 859.2109375 207.1640625 c 0
 857.130859375 207.3984375 855.1328125 208.169921875 853.330078125 209.432617188 c 0
 851.525390625 210.6953125 849.953125 212.424804688 848.700195312 214.521484375 c 0
 847.448242188 216.620117188 846.541015625 219.044921875 846.029296875 221.659179688 c 0
 845.849609375 222.576171875 845.721679688 223.510742188 845.642578125 224.455078125 c 0
 845.3984375 227.377929688 843.359375 230.025390625 840.443359375 230.354492188 c 0
 837.528320312 230.682617188 834.865234375 228.583007812 834.876953125 225.6484375 c 0
 834.887695312 222.870117188 835.154296875 220.119140625 835.676757812 217.453125 c 0
 836.528320312 213.096679688 838.041015625 209.0546875 840.126953125 205.557617188 c 0
 842.213867188 202.060546875 844.8359375 199.177734375 847.841796875 197.075195312 c 0
 850.846679688 194.970703125 854.177734375 193.685546875 857.643554688 193.293945312 c 0
 861.111328125 192.903320312 864.643554688 193.412109375 868.043945312 194.791992188 c 0
 871.442382812 196.173828125 874.640625 198.400390625 877.455078125 201.341796875 c 0
 880.270507812 204.286132812 882.645507812 207.888671875 884.447265625 211.9453125 c 0
 885.549804688 214.427734375 886.423828125 217.051757812 887.052734375 219.755859375 c 0
 887.71875 222.614257812 885.590820312 225.255859375 882.676757812 225.583984375 c 0
451.240234375 585.478515625 m 1
 493.088867188 647.947265625 l 1
 450.7421875 647.947265625 l 1
 450.7421875 666.477539062 l 1
 518.876953125 666.477539062 l 1
 518.876953125 652.874023438 l 1
 477.028320312 590.404296875 l 1
 519.376953125 590.404296875 l 1
 519.376953125 571.875 l 1
 451.240234375 571.875 l 1
 451.240234375 585.478515625 l 1
545.244140625 585.662109375 m 1
 577.1484375 626.640625 l 1
 546.409179688 626.640625 l 1
 546.409179688 645.169921875 l 1
 603.557617188 645.169921875 l 1
 603.557617188 631.076171875 l 1
 572.543945312 590.404296875 l 1
 604.723632812 590.404296875 l 1
 604.723632812 571.875 l 1
 545.244140625 571.875 l 1
 545.244140625 585.662109375 l 1
EndSplineSet
EndChar

StartChar: uniE20B
Encoding: 57867 57867 31
Width: 1000
Flags: H
LayerCount: 2
Fore
SplineSet
537.140625 137.078125 m 0
 537.431640625 136.958984375 537.716796875 136.840820312 537.995117188 136.724609375 c 0
 564.416015625 125.740234375 574.435546875 108.478515625 561.682617188 97.494140625 c 0
 550.372070312 87.751953125 542.643554688 86.650390625 526.424804688 84.3359375 c 2
 526.412109375 84.333984375 l 2
 524.346679688 84.0390625 522.142578125 83.724609375 519.775390625 83.3701171875 c 0
 498.822265625 80.232421875 435.051757812 90.4326171875 388.588867188 111.6171875 c 0
 342.127929688 132.801757812 313.885742188 168.893554688 315.708007812 226.171875 c 0
 316.818359375 261.081054688 335.2734375 289.098632812 350.848632812 305.4375 c 0
 350.887695312 305.573242188 350.926757812 305.7109375 350.965820312 305.848632812 c 1
 339.950195312 303.525390625 328.0625 300.427734375 316.294921875 296.168945312 c 0
 291.474609375 287.182617188 270.400390625 274.151367188 258.373046875 255.5390625 c 0
 244.379882812 233.8828125 240.122070312 214.231445312 241.080078125 196.5546875 c 0
 242.059570312 178.494140625 248.598632812 160.779296875 258.826171875 143.732421875 c 0
 264.200195312 134.776367188 275.588867188 124.056640625 290.5078125 115.450195312 c 0
 305.427734375 106.841796875 320.426757812 102.34375 331.25 102.34375 c 0
 345.489257812 102.34375 357.03125 90.8017578125 357.03125 76.5625 c 0
 357.03125 62.3232421875 345.489257812 50.78125 331.25 50.78125 c 0
 308.481445312 50.78125 284.53125 59.3720703125 264.744140625 70.7861328125 c 0
 244.956054688 82.2001953125 225.875 98.4326171875 214.612304688 117.205078125 c 0
 201.401367188 139.220703125 191.150390625 165.052734375 189.59375 193.763671875 c 0
 188.015625 222.861328125 195.4765625 253.208007812 215.065429688 283.5234375 c 0
 235.8515625 315.692382812 269.073242188 333.911132812 298.744140625 344.651367188 c 0
 328.712890625 355.5 358.357421875 359.8828125 375.34375 362.252929688 c 0
 377.802734375 362.595703125 380.228515625 362.580078125 382.568359375 362.245117188 c 0
 400.8046875 381.137695312 426.254882812 394.34375 460.15625 395.3125 c 0
 526.581054688 397.2109375 559.287109375 367.768554688 585.674804688 344.013671875 c 0
 588.154296875 341.783203125 590.578125 339.6015625 592.96875 337.5 c 0
 594.090820312 336.513671875 595.21875 335.521484375 596.348632812 334.526367188 c 2
 596.372070312 334.505859375 l 2
 620.662109375 313.122070312 646.537109375 290.34375 670.348632812 286.1796875 c 1
 682.7890625 317.418945312 705.833984375 361.223632812 738.369140625 380.604492188 c 0
 781.703125 406.419921875 772.416015625 372.6875 763.712890625 341.076171875 c 0
 761.658203125 333.6171875 759.637695312 326.276367188 758.346679688 319.864257812 c 1
 765.512695312 320.926757812 772.747070312 321.369140625 779.973632812 321.115234375 c 0
 788.138671875 332.7421875 801.640625 348.3671875 815.701171875 359.212890625 c 0
 836.376953125 375.159179688 857.994140625 377.205078125 867.794921875 374.114257812 c 0
 875.171875 371.7890625 864.098632812 325.271484375 851.939453125 296.966796875 c 1
 890.630859375 271.596679688 916.637695312 230.046875 911.279296875 189.879882812 c 0
 907.926757812 164.744140625 892.831054688 144.197265625 871.323242188 129.583984375 c 1
 880.515625 126.392578125 888.302734375 123.106445312 891.40625 120.3125 c 0
 899.21875 113.28125 905.46875 104.6875 898.4375 92.96875 c 0
 891.40625 81.25 857.03125 85.15625 839.84375 89.0625 c 0
 838.479492188 89.373046875 836.340820312 89.978515625 833.549804688 90.8310546875 c 1
 842.637695312 83.0234375 846.662109375 74.955078125 843.75 67.1875 c 0
 839.0625 54.6875 817.96875 46.875 786.71875 55.46875 c 0
 755.46875 64.0625 703.125 82.8125 674.21875 104.6875 c 0
 662.0078125 113.9296875 651.873046875 124.448242188 644.298828125 133.623046875 c 1
 616.901367188 133.228515625 588.572265625 134.331054688 563.28125 135.9375 c 0
 553.865234375 136.536132812 545.018554688 136.935546875 536.568359375 137.314453125 c 1
 536.762695312 137.236328125 536.953125 137.15625 537.140625 137.078125 c 0
701.095703125 292.5390625 m 1
 744.96875 310.529296875 l 1
 749.956054688 342.923828125 l 2
 750.856445312 348.765625 745.234375 353.255859375 740.1953125 350.1640625 c 0
 733.190429688 345.865234375 726.416015625 340.026367188 720.760742188 332.987304688 c 0
 712.801757812 323.076171875 702.997070312 304.893554688 701.095703125 292.5390625 c 1
839.318359375 343.189453125 m 0
 825.823242188 337.677734375 812.4296875 322.560546875 807.418945312 315.692382812 c 1
 811.676757812 314.245117188 821.376953125 310.854492188 826.127929688 308.859375 c 0
 830.879882812 306.862304688 837.4921875 303.947265625 840.205078125 302.739257812 c 1
 842.403320312 308.4609375 847.370117188 321.5546875 849.653320312 328.159179688 c 0
 852.504882812 336.416015625 856.189453125 350.076171875 839.318359375 343.189453125 c 0
804.986328125 226.005859375 m 0
 805.651367188 228.864257812 803.5234375 231.505859375 800.607421875 231.833984375 c 0
 797.692382812 232.1640625 795.115234375 230.0390625 794.224609375 227.244140625 c 0
 793.120117188 223.771484375 791.3359375 220.65625 789.029296875 218.244140625 c 0
 785.619140625 214.676757812 781.341796875 212.940429688 777.142578125 213.4140625 c 0
 772.942382812 213.888671875 769.162109375 216.536132812 766.6328125 220.771484375 c 0
 764.921875 223.638671875 763.877929688 227.073242188 763.575195312 230.705078125 c 0
 763.330078125 233.627929688 761.291992188 236.275390625 758.376953125 236.604492188 c 0
 755.4609375 236.932617188 752.796875 234.833007812 752.809570312 231.8984375 c 0
 752.837890625 224.556640625 754.658203125 217.5078125 758.059570312 211.807617188 c 0
 762.275390625 204.745117188 768.576171875 200.333984375 775.576171875 199.543945312 c 0
 782.576171875 198.752929688 789.703125 201.6484375 795.387695312 207.591796875 c 0
 799.974609375 212.388671875 803.3203125 218.854492188 804.986328125 226.005859375 c 0
882.676757812 225.583984375 m 0
 879.760742188 225.9140625 877.182617188 223.7890625 876.291992188 220.994140625 c 0
 876.005859375 220.090820312 875.671875 219.208984375 875.291992188 218.354492188 c 0
 874.2109375 215.921875 872.786132812 213.759765625 871.096679688 211.994140625 c 0
 869.408203125 210.228515625 867.489257812 208.892578125 865.450195312 208.064453125 c 0
 863.411132812 207.234375 861.291015625 206.9296875 859.2109375 207.1640625 c 0
 857.130859375 207.3984375 855.1328125 208.169921875 853.330078125 209.432617188 c 0
 851.525390625 210.6953125 849.953125 212.424804688 848.700195312 214.521484375 c 0
 847.448242188 216.620117188 846.541015625 219.044921875 846.029296875 221.659179688 c 0
 845.849609375 222.576171875 845.721679688 223.510742188 845.642578125 224.455078125 c 0
 845.3984375 227.377929688 843.359375 230.025390625 840.443359375 230.354492188 c 0
 837.528320312 230.682617188 834.865234375 228.583007812 834.876953125 225.6484375 c 0
 834.887695312 222.870117188 835.154296875 220.119140625 835.676757812 217.453125 c 0
 836.528320312 213.096679688 838.041015625 209.0546875 840.126953125 205.557617188 c 0
 842.213867188 202.060546875 844.8359375 199.177734375 847.841796875 197.075195312 c 0
 850.846679688 194.970703125 854.177734375 193.685546875 857.643554688 193.293945312 c 0
 861.111328125 192.903320312 864.643554688 193.412109375 868.043945312 194.791992188 c 0
 871.442382812 196.173828125 874.640625 198.400390625 877.455078125 201.341796875 c 0
 880.270507812 204.286132812 882.645507812 207.888671875 884.447265625 211.9453125 c 0
 885.549804688 214.427734375 886.423828125 217.051757812 887.052734375 219.755859375 c 0
 887.71875 222.614257812 885.590820312 225.255859375 882.676757812 225.583984375 c 0
451.240234375 585.478515625 m 1
 493.088867188 647.947265625 l 1
 450.7421875 647.947265625 l 1
 450.7421875 666.477539062 l 1
 518.876953125 666.477539062 l 1
 518.876953125 652.874023438 l 1
 477.028320312 590.404296875 l 1
 519.376953125 590.404296875 l 1
 519.376953125 571.875 l 1
 451.240234375 571.875 l 1
 451.240234375 585.478515625 l 1
545.244140625 585.662109375 m 1
 577.1484375 626.640625 l 1
 546.409179688 626.640625 l 1
 546.409179688 645.169921875 l 1
 603.557617188 645.169921875 l 1
 603.557617188 631.076171875 l 1
 572.543945312 590.404296875 l 1
 604.723632812 590.404296875 l 1
 604.723632812 571.875 l 1
 545.244140625 571.875 l 1
 545.244140625 585.662109375 l 1
EndSplineSet
EndChar

StartChar: uniE20C
Encoding: 57868 57868 32
Width: 1000
Flags: H
LayerCount: 2
Fore
SplineSet
537.140625 137.078125 m 0
 537.431640625 136.958984375 537.716796875 136.840820312 537.995117188 136.724609375 c 0
 564.416015625 125.740234375 574.435546875 108.478515625 561.682617188 97.494140625 c 0
 550.372070312 87.751953125 542.643554688 86.650390625 526.424804688 84.3359375 c 2
 526.412109375 84.333984375 l 2
 524.346679688 84.0390625 522.142578125 83.724609375 519.775390625 83.3701171875 c 0
 498.822265625 80.232421875 435.051757812 90.4326171875 388.588867188 111.6171875 c 0
 342.127929688 132.801757812 313.885742188 168.893554688 315.708007812 226.171875 c 0
 316.818359375 261.081054688 335.2734375 289.098632812 350.848632812 305.4375 c 0
 350.887695312 305.573242188 350.926757812 305.7109375 350.965820312 305.848632812 c 1
 339.950195312 303.525390625 328.0625 300.427734375 316.294921875 296.168945312 c 0
 291.474609375 287.182617188 270.400390625 274.151367188 258.373046875 255.5390625 c 0
 244.379882812 233.8828125 240.122070312 214.231445312 241.080078125 196.5546875 c 0
 242.059570312 178.494140625 248.598632812 160.779296875 258.826171875 143.732421875 c 0
 264.200195312 134.776367188 275.588867188 124.056640625 290.5078125 115.450195312 c 0
 305.427734375 106.841796875 320.426757812 102.34375 331.25 102.34375 c 0
 345.489257812 102.34375 357.03125 90.8017578125 357.03125 76.5625 c 0
 357.03125 62.3232421875 345.489257812 50.78125 331.25 50.78125 c 0
 308.481445312 50.78125 284.53125 59.3720703125 264.744140625 70.7861328125 c 0
 244.956054688 82.2001953125 225.875 98.4326171875 214.612304688 117.205078125 c 0
 201.401367188 139.220703125 191.150390625 165.052734375 189.59375 193.763671875 c 0
 188.015625 222.861328125 195.4765625 253.208007812 215.065429688 283.5234375 c 0
 235.8515625 315.692382812 269.073242188 333.911132812 298.744140625 344.651367188 c 0
 328.712890625 355.5 358.357421875 359.8828125 375.34375 362.252929688 c 0
 377.802734375 362.595703125 380.228515625 362.580078125 382.568359375 362.245117188 c 0
 400.8046875 381.137695312 426.254882812 394.34375 460.15625 395.3125 c 0
 526.581054688 397.2109375 559.287109375 367.768554688 585.674804688 344.013671875 c 0
 588.154296875 341.783203125 590.578125 339.6015625 592.96875 337.5 c 0
 594.090820312 336.513671875 595.21875 335.521484375 596.348632812 334.526367188 c 2
 596.372070312 334.505859375 l 2
 620.662109375 313.122070312 646.537109375 290.34375 670.348632812 286.1796875 c 1
 682.7890625 317.418945312 705.833984375 361.223632812 738.369140625 380.604492188 c 0
 781.703125 406.419921875 772.416015625 372.6875 763.712890625 341.076171875 c 0
 761.658203125 333.6171875 759.637695312 326.276367188 758.346679688 319.864257812 c 1
 765.512695312 320.926757812 772.747070312 321.369140625 779.973632812 321.115234375 c 0
 788.138671875 332.7421875 801.640625 348.3671875 815.701171875 359.212890625 c 0
 836.376953125 375.159179688 857.994140625 377.205078125 867.794921875 374.114257812 c 0
 875.171875 371.7890625 864.098632812 325.271484375 851.939453125 296.966796875 c 1
 890.630859375 271.596679688 916.637695312 230.046875 911.279296875 189.879882812 c 0
 907.926757812 164.744140625 892.831054688 144.197265625 871.323242188 129.583984375 c 1
 880.515625 126.392578125 888.302734375 123.106445312 891.40625 120.3125 c 0
 899.21875 113.28125 905.46875 104.6875 898.4375 92.96875 c 0
 891.40625 81.25 857.03125 85.15625 839.84375 89.0625 c 0
 838.479492188 89.373046875 836.340820312 89.978515625 833.549804688 90.8310546875 c 1
 842.637695312 83.0234375 846.662109375 74.955078125 843.75 67.1875 c 0
 839.0625 54.6875 817.96875 46.875 786.71875 55.46875 c 0
 755.46875 64.0625 703.125 82.8125 674.21875 104.6875 c 0
 662.0078125 113.9296875 651.873046875 124.448242188 644.298828125 133.623046875 c 1
 616.901367188 133.228515625 588.572265625 134.331054688 563.28125 135.9375 c 0
 553.865234375 136.536132812 545.018554688 136.935546875 536.568359375 137.314453125 c 1
 536.762695312 137.236328125 536.953125 137.15625 537.140625 137.078125 c 0
701.095703125 292.5390625 m 1
 744.96875 310.529296875 l 1
 749.956054688 342.923828125 l 2
 750.856445312 348.765625 745.234375 353.255859375 740.1953125 350.1640625 c 0
 733.190429688 345.865234375 726.416015625 340.026367188 720.760742188 332.987304688 c 0
 712.801757812 323.076171875 702.997070312 304.893554688 701.095703125 292.5390625 c 1
839.318359375 343.189453125 m 0
 825.823242188 337.677734375 812.4296875 322.560546875 807.418945312 315.692382812 c 1
 811.676757812 314.245117188 821.376953125 310.854492188 826.127929688 308.859375 c 0
 830.879882812 306.862304688 837.4921875 303.947265625 840.205078125 302.739257812 c 1
 842.403320312 308.4609375 847.370117188 321.5546875 849.653320312 328.159179688 c 0
 852.504882812 336.416015625 856.189453125 350.076171875 839.318359375 343.189453125 c 0
804.986328125 226.005859375 m 0
 805.651367188 228.864257812 803.5234375 231.505859375 800.607421875 231.833984375 c 0
 797.692382812 232.1640625 795.115234375 230.0390625 794.224609375 227.244140625 c 0
 793.120117188 223.771484375 791.3359375 220.65625 789.029296875 218.244140625 c 0
 785.619140625 214.676757812 781.341796875 212.940429688 777.142578125 213.4140625 c 0
 772.942382812 213.888671875 769.162109375 216.536132812 766.6328125 220.771484375 c 0
 764.921875 223.638671875 763.877929688 227.073242188 763.575195312 230.705078125 c 0
 763.330078125 233.627929688 761.291992188 236.275390625 758.376953125 236.604492188 c 0
 755.4609375 236.932617188 752.796875 234.833007812 752.809570312 231.8984375 c 0
 752.837890625 224.556640625 754.658203125 217.5078125 758.059570312 211.807617188 c 0
 762.275390625 204.745117188 768.576171875 200.333984375 775.576171875 199.543945312 c 0
 782.576171875 198.752929688 789.703125 201.6484375 795.387695312 207.591796875 c 0
 799.974609375 212.388671875 803.3203125 218.854492188 804.986328125 226.005859375 c 0
882.676757812 225.583984375 m 0
 879.760742188 225.9140625 877.182617188 223.7890625 876.291992188 220.994140625 c 0
 876.005859375 220.090820312 875.671875 219.208984375 875.291992188 218.354492188 c 0
 874.2109375 215.921875 872.786132812 213.759765625 871.096679688 211.994140625 c 0
 869.408203125 210.228515625 867.489257812 208.892578125 865.450195312 208.064453125 c 0
 863.411132812 207.234375 861.291015625 206.9296875 859.2109375 207.1640625 c 0
 857.130859375 207.3984375 855.1328125 208.169921875 853.330078125 209.432617188 c 0
 851.525390625 210.6953125 849.953125 212.424804688 848.700195312 214.521484375 c 0
 847.448242188 216.620117188 846.541015625 219.044921875 846.029296875 221.659179688 c 0
 845.849609375 222.576171875 845.721679688 223.510742188 845.642578125 224.455078125 c 0
 845.3984375 227.377929688 843.359375 230.025390625 840.443359375 230.354492188 c 0
 837.528320312 230.682617188 834.865234375 228.583007812 834.876953125 225.6484375 c 0
 834.887695312 222.870117188 835.154296875 220.119140625 835.676757812 217.453125 c 0
 836.528320312 213.096679688 838.041015625 209.0546875 840.126953125 205.557617188 c 0
 842.213867188 202.060546875 844.8359375 199.177734375 847.841796875 197.075195312 c 0
 850.846679688 194.970703125 854.177734375 193.685546875 857.643554688 193.293945312 c 0
 861.111328125 192.903320312 864.643554688 193.412109375 868.043945312 194.791992188 c 0
 871.442382812 196.173828125 874.640625 198.400390625 877.455078125 201.341796875 c 0
 880.270507812 204.286132812 882.645507812 207.888671875 884.447265625 211.9453125 c 0
 885.549804688 214.427734375 886.423828125 217.051757812 887.052734375 219.755859375 c 0
 887.71875 222.614257812 885.590820312 225.255859375 882.676757812 225.583984375 c 0
435.713867188 599.640625 m 1
 478.174804688 663.024414062 l 1
 435.208007812 663.024414062 l 1
 435.208007812 681.676757812 l 1
 504.126953125 681.676757812 l 1
 504.126953125 667.973632812 l 1
 461.666015625 604.590820312 l 1
 504.6328125 604.590820312 l 1
 504.6328125 585.9375 l 1
 435.713867188 585.9375 l 1
 435.713867188 599.640625 l 1
530.970703125 599.825195312 m 1
 563.365234375 641.432617188 l 1
 532.151367188 641.432617188 l 1
 532.151367188 660.0859375 l 1
 589.9375 660.0859375 l 1
 589.9375 645.88671875 l 1
 558.4453125 604.590820312 l 1
 591.1171875 604.590820312 l 1
 591.1171875 585.9375 l 1
 530.970703125 585.9375 l 1
 530.970703125 599.825195312 l 1
EndSplineSet
EndChar

StartChar: uniE20D
Encoding: 57869 57869 33
Width: 1000
Flags: H
LayerCount: 2
Fore
SplineSet
537.140625 137.078125 m 0
 537.431640625 136.958984375 537.716796875 136.840820312 537.995117188 136.724609375 c 0
 564.416015625 125.740234375 574.435546875 108.478515625 561.682617188 97.494140625 c 0
 550.372070312 87.751953125 542.643554688 86.650390625 526.424804688 84.3359375 c 2
 526.412109375 84.333984375 l 2
 524.346679688 84.0390625 522.142578125 83.724609375 519.775390625 83.3701171875 c 0
 498.822265625 80.232421875 435.051757812 90.4326171875 388.588867188 111.6171875 c 0
 342.127929688 132.801757812 313.885742188 168.893554688 315.708007812 226.171875 c 0
 316.818359375 261.081054688 335.2734375 289.098632812 350.848632812 305.4375 c 0
 350.887695312 305.573242188 350.926757812 305.7109375 350.965820312 305.848632812 c 1
 339.950195312 303.525390625 328.0625 300.427734375 316.294921875 296.168945312 c 0
 291.474609375 287.182617188 270.400390625 274.151367188 258.373046875 255.5390625 c 0
 244.379882812 233.8828125 240.122070312 214.231445312 241.080078125 196.5546875 c 0
 242.059570312 178.494140625 248.598632812 160.779296875 258.826171875 143.732421875 c 0
 264.200195312 134.776367188 275.588867188 124.056640625 290.5078125 115.450195312 c 0
 305.427734375 106.841796875 320.426757812 102.34375 331.25 102.34375 c 0
 345.489257812 102.34375 357.03125 90.8017578125 357.03125 76.5625 c 0
 357.03125 62.3232421875 345.489257812 50.78125 331.25 50.78125 c 0
 308.481445312 50.78125 284.53125 59.3720703125 264.744140625 70.7861328125 c 0
 244.956054688 82.2001953125 225.875 98.4326171875 214.612304688 117.205078125 c 0
 201.401367188 139.220703125 191.150390625 165.052734375 189.59375 193.763671875 c 0
 188.015625 222.861328125 195.4765625 253.208007812 215.065429688 283.5234375 c 0
 235.8515625 315.692382812 269.073242188 333.911132812 298.744140625 344.651367188 c 0
 328.712890625 355.5 358.357421875 359.8828125 375.34375 362.252929688 c 0
 377.802734375 362.595703125 380.228515625 362.580078125 382.568359375 362.245117188 c 0
 400.8046875 381.137695312 426.254882812 394.34375 460.15625 395.3125 c 0
 526.581054688 397.2109375 559.287109375 367.768554688 585.674804688 344.013671875 c 0
 588.154296875 341.783203125 590.578125 339.6015625 592.96875 337.5 c 0
 594.090820312 336.513671875 595.21875 335.521484375 596.348632812 334.526367188 c 2
 596.372070312 334.505859375 l 2
 620.662109375 313.122070312 646.537109375 290.34375 670.348632812 286.1796875 c 1
 682.7890625 317.418945312 705.833984375 361.223632812 738.369140625 380.604492188 c 0
 781.703125 406.419921875 772.416015625 372.6875 763.712890625 341.076171875 c 0
 761.658203125 333.6171875 759.637695312 326.276367188 758.346679688 319.864257812 c 1
 765.512695312 320.926757812 772.747070312 321.369140625 779.973632812 321.115234375 c 0
 788.138671875 332.7421875 801.640625 348.3671875 815.701171875 359.212890625 c 0
 836.376953125 375.159179688 857.994140625 377.205078125 867.794921875 374.114257812 c 0
 875.171875 371.7890625 864.098632812 325.271484375 851.939453125 296.966796875 c 1
 890.630859375 271.596679688 916.637695312 230.046875 911.279296875 189.879882812 c 0
 907.926757812 164.744140625 892.831054688 144.197265625 871.323242188 129.583984375 c 1
 880.515625 126.392578125 888.302734375 123.106445312 891.40625 120.3125 c 0
 899.21875 113.28125 905.46875 104.6875 898.4375 92.96875 c 0
 891.40625 81.25 857.03125 85.15625 839.84375 89.0625 c 0
 838.479492188 89.373046875 836.340820312 89.978515625 833.549804688 90.8310546875 c 1
 842.637695312 83.0234375 846.662109375 74.955078125 843.75 67.1875 c 0
 839.0625 54.6875 817.96875 46.875 786.71875 55.46875 c 0
 755.46875 64.0625 703.125 82.8125 674.21875 104.6875 c 0
 662.0078125 113.9296875 651.873046875 124.448242188 644.298828125 133.623046875 c 1
 616.901367188 133.228515625 588.572265625 134.331054688 563.28125 135.9375 c 0
 553.865234375 136.536132812 545.018554688 136.935546875 536.568359375 137.314453125 c 1
 536.762695312 137.236328125 536.953125 137.15625 537.140625 137.078125 c 0
701.095703125 292.5390625 m 1
 744.96875 310.529296875 l 1
 749.956054688 342.923828125 l 2
 750.856445312 348.765625 745.234375 353.255859375 740.1953125 350.1640625 c 0
 733.190429688 345.865234375 726.416015625 340.026367188 720.760742188 332.987304688 c 0
 712.801757812 323.076171875 702.997070312 304.893554688 701.095703125 292.5390625 c 1
839.318359375 343.189453125 m 0
 825.823242188 337.677734375 812.4296875 322.560546875 807.418945312 315.692382812 c 1
 811.676757812 314.245117188 821.376953125 310.854492188 826.127929688 308.859375 c 0
 830.879882812 306.862304688 837.4921875 303.947265625 840.205078125 302.739257812 c 1
 842.403320312 308.4609375 847.370117188 321.5546875 849.653320312 328.159179688 c 0
 852.504882812 336.416015625 856.189453125 350.076171875 839.318359375 343.189453125 c 0
804.986328125 226.005859375 m 0
 805.651367188 228.864257812 803.5234375 231.505859375 800.607421875 231.833984375 c 0
 797.692382812 232.1640625 795.115234375 230.0390625 794.224609375 227.244140625 c 0
 793.120117188 223.771484375 791.3359375 220.65625 789.029296875 218.244140625 c 0
 785.619140625 214.676757812 781.341796875 212.940429688 777.142578125 213.4140625 c 0
 772.942382812 213.888671875 769.162109375 216.536132812 766.6328125 220.771484375 c 0
 764.921875 223.638671875 763.877929688 227.073242188 763.575195312 230.705078125 c 0
 763.330078125 233.627929688 761.291992188 236.275390625 758.376953125 236.604492188 c 0
 755.4609375 236.932617188 752.796875 234.833007812 752.809570312 231.8984375 c 0
 752.837890625 224.556640625 754.658203125 217.5078125 758.059570312 211.807617188 c 0
 762.275390625 204.745117188 768.576171875 200.333984375 775.576171875 199.543945312 c 0
 782.576171875 198.752929688 789.703125 201.6484375 795.387695312 207.591796875 c 0
 799.974609375 212.388671875 803.3203125 218.854492188 804.986328125 226.005859375 c 0
882.676757812 225.583984375 m 0
 879.760742188 225.9140625 877.182617188 223.7890625 876.291992188 220.994140625 c 0
 876.005859375 220.090820312 875.671875 219.208984375 875.291992188 218.354492188 c 0
 874.2109375 215.921875 872.786132812 213.759765625 871.096679688 211.994140625 c 0
 869.408203125 210.228515625 867.489257812 208.892578125 865.450195312 208.064453125 c 0
 863.411132812 207.234375 861.291015625 206.9296875 859.2109375 207.1640625 c 0
 857.130859375 207.3984375 855.1328125 208.169921875 853.330078125 209.432617188 c 0
 851.525390625 210.6953125 849.953125 212.424804688 848.700195312 214.521484375 c 0
 847.448242188 216.620117188 846.541015625 219.044921875 846.029296875 221.659179688 c 0
 845.849609375 222.576171875 845.721679688 223.510742188 845.642578125 224.455078125 c 0
 845.3984375 227.377929688 843.359375 230.025390625 840.443359375 230.354492188 c 0
 837.528320312 230.682617188 834.865234375 228.583007812 834.876953125 225.6484375 c 0
 834.887695312 222.870117188 835.154296875 220.119140625 835.676757812 217.453125 c 0
 836.528320312 213.096679688 838.041015625 209.0546875 840.126953125 205.557617188 c 0
 842.213867188 202.060546875 844.8359375 199.177734375 847.841796875 197.075195312 c 0
 850.846679688 194.970703125 854.177734375 193.685546875 857.643554688 193.293945312 c 0
 861.111328125 192.903320312 864.643554688 193.412109375 868.043945312 194.791992188 c 0
 871.442382812 196.173828125 874.640625 198.400390625 877.455078125 201.341796875 c 0
 880.270507812 204.286132812 882.645507812 207.888671875 884.447265625 211.9453125 c 0
 885.549804688 214.427734375 886.423828125 217.051757812 887.052734375 219.755859375 c 0
 887.71875 222.614257812 885.590820312 225.255859375 882.676757812 225.583984375 c 0
420.190429688 613.802734375 m 1
 463.263671875 678.100585938 l 1
 419.677734375 678.100585938 l 1
 419.677734375 696.875 l 1
 489.379882812 696.875 l 1
 489.379882812 683.072265625 l 1
 446.306640625 618.775390625 l 1
 489.892578125 618.775390625 l 1
 489.892578125 600 l 1
 420.190429688 600 l 1
 420.190429688 613.802734375 l 1
516.700195312 613.987304688 m 1
 549.5859375 656.225585938 l 1
 517.896484375 656.225585938 l 1
 517.896484375 675 l 1
 576.318359375 675 l 1
 576.318359375 660.697265625 l 1
 544.349609375 618.775390625 l 1
 577.515625 618.775390625 l 1
 577.515625 600 l 1
 516.700195312 600 l 1
 516.700195312 613.987304688 l 1
EndSplineSet
EndChar

StartChar: uniE20E
Encoding: 57870 57870 34
Width: 1000
Flags: H
LayerCount: 2
Fore
SplineSet
537.140625 137.078125 m 0
 537.431640625 136.958984375 537.716796875 136.840820312 537.995117188 136.724609375 c 0
 564.416015625 125.740234375 574.435546875 108.478515625 561.682617188 97.494140625 c 0
 550.372070312 87.751953125 542.643554688 86.650390625 526.424804688 84.3359375 c 2
 526.412109375 84.333984375 l 2
 524.346679688 84.0390625 522.142578125 83.724609375 519.775390625 83.3701171875 c 0
 498.822265625 80.232421875 435.051757812 90.4326171875 388.588867188 111.6171875 c 0
 342.127929688 132.801757812 313.885742188 168.893554688 315.708007812 226.171875 c 0
 316.818359375 261.081054688 335.2734375 289.098632812 350.848632812 305.4375 c 0
 350.887695312 305.573242188 350.926757812 305.7109375 350.965820312 305.848632812 c 1
 339.950195312 303.525390625 328.0625 300.427734375 316.294921875 296.168945312 c 0
 291.474609375 287.182617188 270.400390625 274.151367188 258.373046875 255.5390625 c 0
 244.379882812 233.8828125 240.122070312 214.231445312 241.080078125 196.5546875 c 0
 242.059570312 178.494140625 248.598632812 160.779296875 258.826171875 143.732421875 c 0
 264.200195312 134.776367188 275.588867188 124.056640625 290.5078125 115.450195312 c 0
 305.427734375 106.841796875 320.426757812 102.34375 331.25 102.34375 c 0
 345.489257812 102.34375 357.03125 90.8017578125 357.03125 76.5625 c 0
 357.03125 62.3232421875 345.489257812 50.78125 331.25 50.78125 c 0
 308.481445312 50.78125 284.53125 59.3720703125 264.744140625 70.7861328125 c 0
 244.956054688 82.2001953125 225.875 98.4326171875 214.612304688 117.205078125 c 0
 201.401367188 139.220703125 191.150390625 165.052734375 189.59375 193.763671875 c 0
 188.015625 222.861328125 195.4765625 253.208007812 215.065429688 283.5234375 c 0
 235.8515625 315.692382812 269.073242188 333.911132812 298.744140625 344.651367188 c 0
 328.712890625 355.5 358.357421875 359.8828125 375.34375 362.252929688 c 0
 377.802734375 362.595703125 380.228515625 362.580078125 382.568359375 362.245117188 c 0
 400.8046875 381.137695312 426.254882812 394.34375 460.15625 395.3125 c 0
 526.581054688 397.2109375 559.287109375 367.768554688 585.674804688 344.013671875 c 0
 588.154296875 341.783203125 590.578125 339.6015625 592.96875 337.5 c 0
 594.090820312 336.513671875 595.21875 335.521484375 596.348632812 334.526367188 c 2
 596.372070312 334.505859375 l 2
 620.662109375 313.122070312 646.537109375 290.34375 670.348632812 286.1796875 c 1
 682.7890625 317.418945312 705.833984375 361.223632812 738.369140625 380.604492188 c 0
 781.703125 406.419921875 772.416015625 372.6875 763.712890625 341.076171875 c 0
 761.658203125 333.6171875 759.637695312 326.276367188 758.346679688 319.864257812 c 1
 765.512695312 320.926757812 772.747070312 321.369140625 779.973632812 321.115234375 c 0
 788.138671875 332.7421875 801.640625 348.3671875 815.701171875 359.212890625 c 0
 836.376953125 375.159179688 857.994140625 377.205078125 867.794921875 374.114257812 c 0
 875.171875 371.7890625 864.098632812 325.271484375 851.939453125 296.966796875 c 1
 890.630859375 271.596679688 916.637695312 230.046875 911.279296875 189.879882812 c 0
 907.926757812 164.744140625 892.831054688 144.197265625 871.323242188 129.583984375 c 1
 880.515625 126.392578125 888.302734375 123.106445312 891.40625 120.3125 c 0
 899.21875 113.28125 905.46875 104.6875 898.4375 92.96875 c 0
 891.40625 81.25 857.03125 85.15625 839.84375 89.0625 c 0
 838.479492188 89.373046875 836.340820312 89.978515625 833.549804688 90.8310546875 c 1
 842.637695312 83.0234375 846.662109375 74.955078125 843.75 67.1875 c 0
 839.0625 54.6875 817.96875 46.875 786.71875 55.46875 c 0
 755.46875 64.0625 703.125 82.8125 674.21875 104.6875 c 0
 662.0078125 113.9296875 651.873046875 124.448242188 644.298828125 133.623046875 c 1
 616.901367188 133.228515625 588.572265625 134.331054688 563.28125 135.9375 c 0
 553.865234375 136.536132812 545.018554688 136.935546875 536.568359375 137.314453125 c 1
 536.762695312 137.236328125 536.953125 137.15625 537.140625 137.078125 c 0
701.095703125 292.5390625 m 1
 744.96875 310.529296875 l 1
 749.956054688 342.923828125 l 2
 750.856445312 348.765625 745.234375 353.255859375 740.1953125 350.1640625 c 0
 733.190429688 345.865234375 726.416015625 340.026367188 720.760742188 332.987304688 c 0
 712.801757812 323.076171875 702.997070312 304.893554688 701.095703125 292.5390625 c 1
839.318359375 343.189453125 m 0
 825.823242188 337.677734375 812.4296875 322.560546875 807.418945312 315.692382812 c 1
 811.676757812 314.245117188 821.376953125 310.854492188 826.127929688 308.859375 c 0
 830.879882812 306.862304688 837.4921875 303.947265625 840.205078125 302.739257812 c 1
 842.403320312 308.4609375 847.370117188 321.5546875 849.653320312 328.159179688 c 0
 852.504882812 336.416015625 856.189453125 350.076171875 839.318359375 343.189453125 c 0
804.986328125 226.005859375 m 0
 805.651367188 228.864257812 803.5234375 231.505859375 800.607421875 231.833984375 c 0
 797.692382812 232.1640625 795.115234375 230.0390625 794.224609375 227.244140625 c 0
 793.120117188 223.771484375 791.3359375 220.65625 789.029296875 218.244140625 c 0
 785.619140625 214.676757812 781.341796875 212.940429688 777.142578125 213.4140625 c 0
 772.942382812 213.888671875 769.162109375 216.536132812 766.6328125 220.771484375 c 0
 764.921875 223.638671875 763.877929688 227.073242188 763.575195312 230.705078125 c 0
 763.330078125 233.627929688 761.291992188 236.275390625 758.376953125 236.604492188 c 0
 755.4609375 236.932617188 752.796875 234.833007812 752.809570312 231.8984375 c 0
 752.837890625 224.556640625 754.658203125 217.5078125 758.059570312 211.807617188 c 0
 762.275390625 204.745117188 768.576171875 200.333984375 775.576171875 199.543945312 c 0
 782.576171875 198.752929688 789.703125 201.6484375 795.387695312 207.591796875 c 0
 799.974609375 212.388671875 803.3203125 218.854492188 804.986328125 226.005859375 c 0
882.676757812 225.583984375 m 0
 879.760742188 225.9140625 877.182617188 223.7890625 876.291992188 220.994140625 c 0
 876.005859375 220.090820312 875.671875 219.208984375 875.291992188 218.354492188 c 0
 874.2109375 215.921875 872.786132812 213.759765625 871.096679688 211.994140625 c 0
 869.408203125 210.228515625 867.489257812 208.892578125 865.450195312 208.064453125 c 0
 863.411132812 207.234375 861.291015625 206.9296875 859.2109375 207.1640625 c 0
 857.130859375 207.3984375 855.1328125 208.169921875 853.330078125 209.432617188 c 0
 851.525390625 210.6953125 849.953125 212.424804688 848.700195312 214.521484375 c 0
 847.448242188 216.620117188 846.541015625 219.044921875 846.029296875 221.659179688 c 0
 845.849609375 222.576171875 845.721679688 223.510742188 845.642578125 224.455078125 c 0
 845.3984375 227.377929688 843.359375 230.025390625 840.443359375 230.354492188 c 0
 837.528320312 230.682617188 834.865234375 228.583007812 834.876953125 225.6484375 c 0
 834.887695312 222.870117188 835.154296875 220.119140625 835.676757812 217.453125 c 0
 836.528320312 213.096679688 838.041015625 209.0546875 840.126953125 205.557617188 c 0
 842.213867188 202.060546875 844.8359375 199.177734375 847.841796875 197.075195312 c 0
 850.846679688 194.970703125 854.177734375 193.685546875 857.643554688 193.293945312 c 0
 861.111328125 192.903320312 864.643554688 193.412109375 868.043945312 194.791992188 c 0
 871.442382812 196.173828125 874.640625 198.400390625 877.455078125 201.341796875 c 0
 880.270507812 204.286132812 882.645507812 207.888671875 884.447265625 211.9453125 c 0
 885.549804688 214.427734375 886.423828125 217.051757812 887.052734375 219.755859375 c 0
 887.71875 222.614257812 885.590820312 225.255859375 882.676757812 225.583984375 c 0
404.666992188 629.528320312 m 1
 448.353515625 694.739257812 l 1
 404.146484375 694.739257812 l 1
 404.146484375 713.635742188 l 1
 474.6328125 713.635742188 l 1
 474.6328125 699.733398438 l 1
 430.947265625 634.521484375 l 1
 475.151367188 634.521484375 l 1
 475.151367188 615.625 l 1
 404.666992188 615.625 l 1
 404.666992188 629.528320312 l 1
502.4296875 629.712890625 m 1
 535.806640625 672.580078125 l 1
 503.642578125 672.580078125 l 1
 503.642578125 691.4765625 l 1
 562.701171875 691.4765625 l 1
 562.701171875 677.069335938 l 1
 530.254882812 634.521484375 l 1
 563.9140625 634.521484375 l 1
 563.9140625 615.625 l 1
 502.4296875 615.625 l 1
 502.4296875 629.712890625 l 1
EndSplineSet
EndChar

StartChar: uniE300
Encoding: 58112 58112 35
Width: 1000
Flags: H
LayerCount: 2
Fore
SplineSet
729.877929688 518.372070312 m 0
 736.1796875 531.104492188 747.146484375 548.603515625 759.392578125 561.4609375 c 0
 777.400390625 580.369140625 798.455078125 585.6796875 808.611328125 584.1171875 c 0
 816.255859375 582.942382812 812.392578125 535.28125 804.681640625 505.455078125 c 1
 846.783203125 486.270507812 878.809570312 449.161132812 879.626953125 408.646484375 c 0
 880.7734375 351.791015625 820.041992188 308.7578125 754.546875 303.684570312 c 1
 754.4609375 285.362304688 751.697265625 255.388671875 741.408203125 220.3125 c 0
 724.220703125 161.71875 700.001953125 124.21875 682.814453125 111.71875 c 0
 665.626953125 99.21875 643.751953125 108.59375 638.283203125 124.21875 c 0
 634.237304688 135.778320312 638.7421875 149.901367188 643.259765625 164.060546875 c 0
 644.848632812 169.041992188 646.4375 174.026367188 647.658203125 178.90625 c 0
 648.685546875 183.020507812 648.798828125 187.580078125 648.322265625 192.208984375 c 0
 646.298828125 211.892578125 625.2265625 221.142578125 605.453125 220.387695312 c 0
 600.494140625 220.197265625 595.451171875 220.146484375 590.626953125 220.3125 c 0
 567.970703125 221.09375 555.7265625 220.28125 533.595703125 196.875 c 0
 512.877929688 174.963867188 528.306640625 150.048828125 540.637695312 130.1328125 c 0
 545.7265625 121.9140625 550.2890625 114.546875 551.564453125 108.59375 c 0
 553.908203125 97.65625 550.001953125 82.03125 536.720703125 77.34375 c 0
 523.439453125 72.65625 502.345703125 86.71875 482.033203125 108.59375 c 0
 475.161132812 115.994140625 469.307617188 123.8125 464.073242188 130.8046875 c 0
 456.9296875 140.348632812 450.9375 148.354492188 445.076171875 151.661132812 c 1
 445.122070312 150.318359375 444.8984375 148.340820312 444.611328125 145.801757812 c 0
 443.279296875 134.052734375 440.587890625 110.296875 457.033203125 82.03125 c 0
 481.6640625 39.697265625 475.9609375 34.521484375 467.567382812 26.90625 c 2
 467.189453125 26.5625 l 2
 458.595703125 18.75 439.737304688 23.0654296875 424.379882812 33.0283203125 c 0
 406.869140625 44.388671875 371.779296875 77.34375 358.728515625 143.684570312 c 0
 355.176757812 161.737304688 352.869140625 189.166992188 350.841796875 213.260742188 c 0
 349.2421875 232.268554688 347.817382812 249.200195312 346.095703125 257.8125 c 0
 343.712890625 269.7265625 341.620117188 284.255859375 341.237304688 297.146484375 c 1
 330.901367188 292.190429688 320.690429688 286.142578125 309.823242188 279.2109375 c 0
 304.815429688 276.015625 299.606445312 272.5859375 294.161132812 269 c 0
 273.083984375 255.1171875 248.478515625 238.912109375 218.421875 225.140625 c 0
 155.918945312 196.504882812 75.96484375 201.115234375 51.6796875 202.515625 c 2
 51.66796875 202.515625 l 2
 51.0830078125 202.549804688 50.53125 202.581054688 50.0126953125 202.611328125 c 0
 34.935546875 203.466796875 23.4072265625 216.3828125 24.263671875 231.4609375 c 0
 25.1201171875 246.537109375 38.0361328125 258.067382812 53.11328125 257.2109375 c 0
 77.40234375 255.831054688 145.91015625 252.073242188 195.642578125 274.859375 c 0
 221.5234375 286.715820312 241.752929688 300.018554688 262.435546875 313.6171875 c 0
 268.34375 317.501953125 274.2890625 321.411132812 280.412109375 325.317382812 c 0
 307.4296875 342.549804688 336.728515625 358.759765625 375.668945312 364.546875 c 0
 375.96875 364.590820312 376.268554688 364.630859375 376.567382812 364.666015625 c 0
 386.215820312 371.240234375 398.677734375 377.497070312 414.845703125 382.8125 c 0
 447.943359375 393.693359375 485.515625 394.840820312 519.315429688 395.870117188 c 0
 543.752929688 396.615234375 566.220703125 397.299804688 583.595703125 401.5625 c 0
 590.583984375 403.276367188 596.4453125 405.6484375 601.338867188 408.418945312 c 0
 609.668945312 413.137695312 613.916992188 422.065429688 617.590820312 430.90625 c 0
 620.198242188 437.181640625 622.3359375 443.787109375 623.482421875 450.484375 c 0
 628.818359375 481.625 645.036132812 542.220703125 679.705078125 570.8359375 c 0
 718.606445312 602.9453125 714.559570312 568.193359375 710.768554688 535.626953125 c 0
 709.873046875 527.942382812 708.994140625 520.377929688 708.693359375 513.84375 c 1
 715.614257812 515.984375 722.698242188 517.521484375 729.877929688 518.372070312 c 0
825.798828125 395.3125 m 0
 840.037109375 395.3125 851.580078125 408.953125 851.580078125 425.78125 c 0
 851.580078125 442.609375 840.037109375 456.25 825.798828125 456.25 c 0
 811.560546875 456.25 800.017578125 442.609375 800.017578125 425.78125 c 0
 800.017578125 408.953125 811.560546875 395.3125 825.798828125 395.3125 c 0
742.986328125 389.0625 m 0
 757.224609375 389.0625 768.767578125 402.703125 768.767578125 419.53125 c 0
 768.767578125 436.359375 757.224609375 450 742.986328125 450 c 0
 728.748046875 450 717.205078125 436.359375 717.205078125 419.53125 c 0
 717.205078125 402.703125 728.748046875 389.0625 742.986328125 389.0625 c 0
669.548828125 521.09375 m 0
 663.190429688 510.088867188 656.267578125 490.625 656.267578125 478.125 c 1
 696.892578125 502.581054688 l 1
 696.892578125 535.357421875 l 2
 696.892578125 541.268554688 690.651367188 544.8515625 686.142578125 541.029296875 c 0
 679.873046875 535.713867188 674.065429688 528.912109375 669.548828125 521.09375 c 0
757.830078125 517.1875 m 1
 762.2578125 516.40625 772.361328125 514.53125 777.361328125 513.28125 c 0
 782.361328125 512.03125 789.340820312 510.15625 792.205078125 509.375 c 1
 793.5078125 515.364257812 796.423828125 529.0625 797.673828125 535.9375 c 0
 799.236328125 544.53125 800.798828125 558.59375 785.173828125 549.21875 c 0
 772.673828125 541.71875 761.736328125 524.739257812 757.830078125 517.1875 c 1
EndSplineSet
EndChar

